%TF.GenerationSoftware,KiCad,Pcbnew,8.0.2-8.0.2-0~ubuntu22.04.1*%
%TF.CreationDate,2024-05-24T18:22:56+02:00*%
%TF.ProjectId,flipper-debug-devboard,666c6970-7065-4722-9d64-656275672d64,rev?*%
%TF.SameCoordinates,Original*%
%TF.FileFunction,Legend,Top*%
%TF.FilePolarity,Positive*%
%FSLAX46Y46*%
G04 Gerber Fmt 4.6, Leading zero omitted, Abs format (unit mm)*
G04 Created by KiCad (PCBNEW 8.0.2-8.0.2-0~ubuntu22.04.1) date 2024-05-24 18:22:56*
%MOMM*%
%LPD*%
G01*
G04 APERTURE LIST*
%ADD10C,0.155000*%
%ADD11C,0.300000*%
%ADD12C,0.200000*%
%ADD13C,0.120000*%
G04 APERTURE END LIST*
D10*
X106908877Y-128711178D02*
X106813639Y-128663559D01*
X106813639Y-128663559D02*
X106670782Y-128663559D01*
X106670782Y-128663559D02*
X106527925Y-128711178D01*
X106527925Y-128711178D02*
X106432687Y-128806416D01*
X106432687Y-128806416D02*
X106385068Y-128901654D01*
X106385068Y-128901654D02*
X106337449Y-129092130D01*
X106337449Y-129092130D02*
X106337449Y-129234987D01*
X106337449Y-129234987D02*
X106385068Y-129425463D01*
X106385068Y-129425463D02*
X106432687Y-129520701D01*
X106432687Y-129520701D02*
X106527925Y-129615940D01*
X106527925Y-129615940D02*
X106670782Y-129663559D01*
X106670782Y-129663559D02*
X106766020Y-129663559D01*
X106766020Y-129663559D02*
X106908877Y-129615940D01*
X106908877Y-129615940D02*
X106956496Y-129568320D01*
X106956496Y-129568320D02*
X106956496Y-129234987D01*
X106956496Y-129234987D02*
X106766020Y-129234987D01*
X107385068Y-129663559D02*
X107385068Y-128996892D01*
X107385068Y-128663559D02*
X107337449Y-128711178D01*
X107337449Y-128711178D02*
X107385068Y-128758797D01*
X107385068Y-128758797D02*
X107432687Y-128711178D01*
X107432687Y-128711178D02*
X107385068Y-128663559D01*
X107385068Y-128663559D02*
X107385068Y-128758797D01*
X107718401Y-128996892D02*
X108099353Y-128996892D01*
X107861258Y-128663559D02*
X107861258Y-129520701D01*
X107861258Y-129520701D02*
X107908877Y-129615940D01*
X107908877Y-129615940D02*
X108004115Y-129663559D01*
X108004115Y-129663559D02*
X108099353Y-129663559D01*
X108432687Y-129663559D02*
X108432687Y-128663559D01*
X108861258Y-129663559D02*
X108861258Y-129139749D01*
X108861258Y-129139749D02*
X108813639Y-129044511D01*
X108813639Y-129044511D02*
X108718401Y-128996892D01*
X108718401Y-128996892D02*
X108575544Y-128996892D01*
X108575544Y-128996892D02*
X108480306Y-129044511D01*
X108480306Y-129044511D02*
X108432687Y-129092130D01*
X109766020Y-128996892D02*
X109766020Y-129663559D01*
X109337449Y-128996892D02*
X109337449Y-129520701D01*
X109337449Y-129520701D02*
X109385068Y-129615940D01*
X109385068Y-129615940D02*
X109480306Y-129663559D01*
X109480306Y-129663559D02*
X109623163Y-129663559D01*
X109623163Y-129663559D02*
X109718401Y-129615940D01*
X109718401Y-129615940D02*
X109766020Y-129568320D01*
X110242211Y-129663559D02*
X110242211Y-128663559D01*
X110242211Y-129044511D02*
X110337449Y-128996892D01*
X110337449Y-128996892D02*
X110527925Y-128996892D01*
X110527925Y-128996892D02*
X110623163Y-129044511D01*
X110623163Y-129044511D02*
X110670782Y-129092130D01*
X110670782Y-129092130D02*
X110718401Y-129187368D01*
X110718401Y-129187368D02*
X110718401Y-129473082D01*
X110718401Y-129473082D02*
X110670782Y-129568320D01*
X110670782Y-129568320D02*
X110623163Y-129615940D01*
X110623163Y-129615940D02*
X110527925Y-129663559D01*
X110527925Y-129663559D02*
X110337449Y-129663559D01*
X110337449Y-129663559D02*
X110242211Y-129615940D01*
X111146973Y-129568320D02*
X111194592Y-129615940D01*
X111194592Y-129615940D02*
X111146973Y-129663559D01*
X111146973Y-129663559D02*
X111099354Y-129615940D01*
X111099354Y-129615940D02*
X111146973Y-129568320D01*
X111146973Y-129568320D02*
X111146973Y-129663559D01*
X111146973Y-129044511D02*
X111194592Y-129092130D01*
X111194592Y-129092130D02*
X111146973Y-129139749D01*
X111146973Y-129139749D02*
X111099354Y-129092130D01*
X111099354Y-129092130D02*
X111146973Y-129044511D01*
X111146973Y-129044511D02*
X111146973Y-129139749D01*
X112289830Y-128996892D02*
X112527925Y-129663559D01*
X112527925Y-129663559D02*
X112766020Y-128996892D01*
X113575544Y-128996892D02*
X113575544Y-129806416D01*
X113575544Y-129806416D02*
X113527925Y-129901654D01*
X113527925Y-129901654D02*
X113480306Y-129949273D01*
X113480306Y-129949273D02*
X113385068Y-129996892D01*
X113385068Y-129996892D02*
X113242211Y-129996892D01*
X113242211Y-129996892D02*
X113146973Y-129949273D01*
X113575544Y-129615940D02*
X113480306Y-129663559D01*
X113480306Y-129663559D02*
X113289830Y-129663559D01*
X113289830Y-129663559D02*
X113194592Y-129615940D01*
X113194592Y-129615940D02*
X113146973Y-129568320D01*
X113146973Y-129568320D02*
X113099354Y-129473082D01*
X113099354Y-129473082D02*
X113099354Y-129187368D01*
X113099354Y-129187368D02*
X113146973Y-129092130D01*
X113146973Y-129092130D02*
X113194592Y-129044511D01*
X113194592Y-129044511D02*
X113289830Y-128996892D01*
X113289830Y-128996892D02*
X113480306Y-128996892D01*
X113480306Y-128996892D02*
X113575544Y-129044511D01*
X114480306Y-128996892D02*
X114480306Y-129663559D01*
X114051735Y-128996892D02*
X114051735Y-129520701D01*
X114051735Y-129520701D02*
X114099354Y-129615940D01*
X114099354Y-129615940D02*
X114194592Y-129663559D01*
X114194592Y-129663559D02*
X114337449Y-129663559D01*
X114337449Y-129663559D02*
X114432687Y-129615940D01*
X114432687Y-129615940D02*
X114480306Y-129568320D01*
X114813640Y-128996892D02*
X115194592Y-128996892D01*
X114956497Y-128663559D02*
X114956497Y-129520701D01*
X114956497Y-129520701D02*
X115004116Y-129615940D01*
X115004116Y-129615940D02*
X115099354Y-129663559D01*
X115099354Y-129663559D02*
X115194592Y-129663559D01*
X115385069Y-128996892D02*
X115766021Y-128996892D01*
X115527926Y-128663559D02*
X115527926Y-129520701D01*
X115527926Y-129520701D02*
X115575545Y-129615940D01*
X115575545Y-129615940D02*
X115670783Y-129663559D01*
X115670783Y-129663559D02*
X115766021Y-129663559D01*
X116099355Y-129663559D02*
X116099355Y-128996892D01*
X116099355Y-129092130D02*
X116146974Y-129044511D01*
X116146974Y-129044511D02*
X116242212Y-128996892D01*
X116242212Y-128996892D02*
X116385069Y-128996892D01*
X116385069Y-128996892D02*
X116480307Y-129044511D01*
X116480307Y-129044511D02*
X116527926Y-129139749D01*
X116527926Y-129139749D02*
X116527926Y-129663559D01*
X116527926Y-129139749D02*
X116575545Y-129044511D01*
X116575545Y-129044511D02*
X116670783Y-128996892D01*
X116670783Y-128996892D02*
X116813640Y-128996892D01*
X116813640Y-128996892D02*
X116908879Y-129044511D01*
X116908879Y-129044511D02*
X116956498Y-129139749D01*
X116956498Y-129139749D02*
X116956498Y-129663559D01*
X117861259Y-129663559D02*
X117861259Y-129139749D01*
X117861259Y-129139749D02*
X117813640Y-129044511D01*
X117813640Y-129044511D02*
X117718402Y-128996892D01*
X117718402Y-128996892D02*
X117527926Y-128996892D01*
X117527926Y-128996892D02*
X117432688Y-129044511D01*
X117861259Y-129615940D02*
X117766021Y-129663559D01*
X117766021Y-129663559D02*
X117527926Y-129663559D01*
X117527926Y-129663559D02*
X117432688Y-129615940D01*
X117432688Y-129615940D02*
X117385069Y-129520701D01*
X117385069Y-129520701D02*
X117385069Y-129425463D01*
X117385069Y-129425463D02*
X117432688Y-129330225D01*
X117432688Y-129330225D02*
X117527926Y-129282606D01*
X117527926Y-129282606D02*
X117766021Y-129282606D01*
X117766021Y-129282606D02*
X117861259Y-129234987D01*
X118337450Y-128996892D02*
X118337450Y-129663559D01*
X118337450Y-129092130D02*
X118385069Y-129044511D01*
X118385069Y-129044511D02*
X118480307Y-128996892D01*
X118480307Y-128996892D02*
X118623164Y-128996892D01*
X118623164Y-128996892D02*
X118718402Y-129044511D01*
X118718402Y-129044511D02*
X118766021Y-129139749D01*
X118766021Y-129139749D02*
X118766021Y-129663559D01*
X119242212Y-128996892D02*
X119242212Y-129663559D01*
X119242212Y-129092130D02*
X119289831Y-129044511D01*
X119289831Y-129044511D02*
X119385069Y-128996892D01*
X119385069Y-128996892D02*
X119527926Y-128996892D01*
X119527926Y-128996892D02*
X119623164Y-129044511D01*
X119623164Y-129044511D02*
X119670783Y-129139749D01*
X119670783Y-129139749D02*
X119670783Y-129663559D01*
X104425750Y-134112000D02*
X108362750Y-134112000D01*
X108362750Y-135636000D01*
X104425750Y-135636000D01*
X104425750Y-134112000D01*
X108839000Y-135255000D02*
X112776000Y-135255000D01*
X112776000Y-136779000D01*
X108839000Y-136779000D01*
X108839000Y-135255000D01*
X108489750Y-138303000D02*
X121666000Y-138303000D01*
X113157000Y-133731000D02*
X104013000Y-133731000D01*
X108839000Y-131826000D02*
X112776000Y-131826000D01*
X112776000Y-133350000D01*
X108839000Y-133350000D01*
X108839000Y-131826000D01*
X121666000Y-136017000D02*
X112776000Y-136017000D01*
X104457500Y-131445000D02*
X104013000Y-131445000D01*
X113157000Y-136398000D02*
X117094000Y-136398000D01*
X117094000Y-137922000D01*
X113157000Y-137922000D01*
X113157000Y-136398000D01*
X113157000Y-132969000D02*
X117094000Y-132969000D01*
X117094000Y-134493000D01*
X113157000Y-134493000D01*
X113157000Y-132969000D01*
X108839000Y-136017000D02*
X104013000Y-136017000D01*
D11*
X148590000Y-120650000D02*
X153670000Y-120650000D01*
X153670000Y-130810000D01*
X148590000Y-130810000D01*
X148590000Y-120650000D01*
D10*
X122301000Y-139446000D02*
X112776000Y-139446000D01*
X113157000Y-137160000D02*
X104013000Y-137160000D01*
X108839000Y-139446000D02*
X104013000Y-139446000D01*
X108362750Y-134874000D02*
X121666000Y-134874000D01*
D11*
X148590000Y-110490000D02*
X153670000Y-110490000D01*
X153670000Y-120650000D01*
X148590000Y-120650000D01*
X148590000Y-110490000D01*
D10*
X121666000Y-132588000D02*
X112776000Y-132588000D01*
X104457500Y-137541000D02*
X108394500Y-137541000D01*
X108394500Y-139065000D01*
X104457500Y-139065000D01*
X104457500Y-137541000D01*
X104457500Y-130683000D02*
X108394500Y-130683000D01*
X108394500Y-132207000D01*
X104457500Y-132207000D01*
X104457500Y-130683000D01*
X108839000Y-138684000D02*
X112776000Y-138684000D01*
X112776000Y-140208000D01*
X108839000Y-140208000D01*
X108839000Y-138684000D01*
X108394500Y-131445000D02*
X121666000Y-131445000D01*
X104457500Y-134874000D02*
X104013000Y-134874000D01*
X121666000Y-137160000D02*
X117094000Y-137160000D01*
X108839000Y-132588000D02*
X104013000Y-132588000D01*
X121666000Y-133731000D02*
X117094000Y-133731000D01*
X104457500Y-138303000D02*
X104013000Y-138303000D01*
D12*
X114300482Y-137566980D02*
X114240958Y-137614600D01*
X114240958Y-137614600D02*
X114062387Y-137662219D01*
X114062387Y-137662219D02*
X113943339Y-137662219D01*
X113943339Y-137662219D02*
X113764768Y-137614600D01*
X113764768Y-137614600D02*
X113645720Y-137519361D01*
X113645720Y-137519361D02*
X113586197Y-137424123D01*
X113586197Y-137424123D02*
X113526673Y-137233647D01*
X113526673Y-137233647D02*
X113526673Y-137090790D01*
X113526673Y-137090790D02*
X113586197Y-136900314D01*
X113586197Y-136900314D02*
X113645720Y-136805076D01*
X113645720Y-136805076D02*
X113764768Y-136709838D01*
X113764768Y-136709838D02*
X113943339Y-136662219D01*
X113943339Y-136662219D02*
X114062387Y-136662219D01*
X114062387Y-136662219D02*
X114240958Y-136709838D01*
X114240958Y-136709838D02*
X114300482Y-136757457D01*
X114836197Y-137662219D02*
X114836197Y-136662219D01*
X114836197Y-137138409D02*
X115550482Y-137138409D01*
X115550482Y-137662219D02*
X115550482Y-136662219D01*
X116681435Y-136662219D02*
X116443340Y-136662219D01*
X116443340Y-136662219D02*
X116324292Y-136709838D01*
X116324292Y-136709838D02*
X116264768Y-136757457D01*
X116264768Y-136757457D02*
X116145721Y-136900314D01*
X116145721Y-136900314D02*
X116086197Y-137090790D01*
X116086197Y-137090790D02*
X116086197Y-137471742D01*
X116086197Y-137471742D02*
X116145721Y-137566980D01*
X116145721Y-137566980D02*
X116205244Y-137614600D01*
X116205244Y-137614600D02*
X116324292Y-137662219D01*
X116324292Y-137662219D02*
X116562387Y-137662219D01*
X116562387Y-137662219D02*
X116681435Y-137614600D01*
X116681435Y-137614600D02*
X116740959Y-137566980D01*
X116740959Y-137566980D02*
X116800482Y-137471742D01*
X116800482Y-137471742D02*
X116800482Y-137233647D01*
X116800482Y-137233647D02*
X116740959Y-137138409D01*
X116740959Y-137138409D02*
X116681435Y-137090790D01*
X116681435Y-137090790D02*
X116562387Y-137043171D01*
X116562387Y-137043171D02*
X116324292Y-137043171D01*
X116324292Y-137043171D02*
X116205244Y-137090790D01*
X116205244Y-137090790D02*
X116145721Y-137138409D01*
X116145721Y-137138409D02*
X116086197Y-137233647D01*
X109982482Y-136423980D02*
X109922958Y-136471600D01*
X109922958Y-136471600D02*
X109744387Y-136519219D01*
X109744387Y-136519219D02*
X109625339Y-136519219D01*
X109625339Y-136519219D02*
X109446768Y-136471600D01*
X109446768Y-136471600D02*
X109327720Y-136376361D01*
X109327720Y-136376361D02*
X109268197Y-136281123D01*
X109268197Y-136281123D02*
X109208673Y-136090647D01*
X109208673Y-136090647D02*
X109208673Y-135947790D01*
X109208673Y-135947790D02*
X109268197Y-135757314D01*
X109268197Y-135757314D02*
X109327720Y-135662076D01*
X109327720Y-135662076D02*
X109446768Y-135566838D01*
X109446768Y-135566838D02*
X109625339Y-135519219D01*
X109625339Y-135519219D02*
X109744387Y-135519219D01*
X109744387Y-135519219D02*
X109922958Y-135566838D01*
X109922958Y-135566838D02*
X109982482Y-135614457D01*
X110518197Y-136519219D02*
X110518197Y-135519219D01*
X110518197Y-135995409D02*
X111232482Y-135995409D01*
X111232482Y-136519219D02*
X111232482Y-135519219D01*
X112422959Y-135519219D02*
X111827721Y-135519219D01*
X111827721Y-135519219D02*
X111768197Y-135995409D01*
X111768197Y-135995409D02*
X111827721Y-135947790D01*
X111827721Y-135947790D02*
X111946768Y-135900171D01*
X111946768Y-135900171D02*
X112244387Y-135900171D01*
X112244387Y-135900171D02*
X112363435Y-135947790D01*
X112363435Y-135947790D02*
X112422959Y-135995409D01*
X112422959Y-135995409D02*
X112482482Y-136090647D01*
X112482482Y-136090647D02*
X112482482Y-136328742D01*
X112482482Y-136328742D02*
X112422959Y-136423980D01*
X112422959Y-136423980D02*
X112363435Y-136471600D01*
X112363435Y-136471600D02*
X112244387Y-136519219D01*
X112244387Y-136519219D02*
X111946768Y-136519219D01*
X111946768Y-136519219D02*
X111827721Y-136471600D01*
X111827721Y-136471600D02*
X111768197Y-136423980D01*
X105600982Y-131851980D02*
X105541458Y-131899600D01*
X105541458Y-131899600D02*
X105362887Y-131947219D01*
X105362887Y-131947219D02*
X105243839Y-131947219D01*
X105243839Y-131947219D02*
X105065268Y-131899600D01*
X105065268Y-131899600D02*
X104946220Y-131804361D01*
X104946220Y-131804361D02*
X104886697Y-131709123D01*
X104886697Y-131709123D02*
X104827173Y-131518647D01*
X104827173Y-131518647D02*
X104827173Y-131375790D01*
X104827173Y-131375790D02*
X104886697Y-131185314D01*
X104886697Y-131185314D02*
X104946220Y-131090076D01*
X104946220Y-131090076D02*
X105065268Y-130994838D01*
X105065268Y-130994838D02*
X105243839Y-130947219D01*
X105243839Y-130947219D02*
X105362887Y-130947219D01*
X105362887Y-130947219D02*
X105541458Y-130994838D01*
X105541458Y-130994838D02*
X105600982Y-131042457D01*
X106136697Y-131947219D02*
X106136697Y-130947219D01*
X106136697Y-131423409D02*
X106850982Y-131423409D01*
X106850982Y-131947219D02*
X106850982Y-130947219D01*
X108100982Y-131947219D02*
X107386697Y-131947219D01*
X107743840Y-131947219D02*
X107743840Y-130947219D01*
X107743840Y-130947219D02*
X107624792Y-131090076D01*
X107624792Y-131090076D02*
X107505744Y-131185314D01*
X107505744Y-131185314D02*
X107386697Y-131232933D01*
X105569232Y-135280980D02*
X105509708Y-135328600D01*
X105509708Y-135328600D02*
X105331137Y-135376219D01*
X105331137Y-135376219D02*
X105212089Y-135376219D01*
X105212089Y-135376219D02*
X105033518Y-135328600D01*
X105033518Y-135328600D02*
X104914470Y-135233361D01*
X104914470Y-135233361D02*
X104854947Y-135138123D01*
X104854947Y-135138123D02*
X104795423Y-134947647D01*
X104795423Y-134947647D02*
X104795423Y-134804790D01*
X104795423Y-134804790D02*
X104854947Y-134614314D01*
X104854947Y-134614314D02*
X104914470Y-134519076D01*
X104914470Y-134519076D02*
X105033518Y-134423838D01*
X105033518Y-134423838D02*
X105212089Y-134376219D01*
X105212089Y-134376219D02*
X105331137Y-134376219D01*
X105331137Y-134376219D02*
X105509708Y-134423838D01*
X105509708Y-134423838D02*
X105569232Y-134471457D01*
X106104947Y-135376219D02*
X106104947Y-134376219D01*
X106104947Y-134852409D02*
X106819232Y-134852409D01*
X106819232Y-135376219D02*
X106819232Y-134376219D01*
X107950185Y-134709552D02*
X107950185Y-135376219D01*
X107652566Y-134328600D02*
X107354947Y-135042885D01*
X107354947Y-135042885D02*
X108128756Y-135042885D01*
X109982482Y-132994980D02*
X109922958Y-133042600D01*
X109922958Y-133042600D02*
X109744387Y-133090219D01*
X109744387Y-133090219D02*
X109625339Y-133090219D01*
X109625339Y-133090219D02*
X109446768Y-133042600D01*
X109446768Y-133042600D02*
X109327720Y-132947361D01*
X109327720Y-132947361D02*
X109268197Y-132852123D01*
X109268197Y-132852123D02*
X109208673Y-132661647D01*
X109208673Y-132661647D02*
X109208673Y-132518790D01*
X109208673Y-132518790D02*
X109268197Y-132328314D01*
X109268197Y-132328314D02*
X109327720Y-132233076D01*
X109327720Y-132233076D02*
X109446768Y-132137838D01*
X109446768Y-132137838D02*
X109625339Y-132090219D01*
X109625339Y-132090219D02*
X109744387Y-132090219D01*
X109744387Y-132090219D02*
X109922958Y-132137838D01*
X109922958Y-132137838D02*
X109982482Y-132185457D01*
X110518197Y-133090219D02*
X110518197Y-132090219D01*
X110518197Y-132566409D02*
X111232482Y-132566409D01*
X111232482Y-133090219D02*
X111232482Y-132090219D01*
X111768197Y-132185457D02*
X111827721Y-132137838D01*
X111827721Y-132137838D02*
X111946768Y-132090219D01*
X111946768Y-132090219D02*
X112244387Y-132090219D01*
X112244387Y-132090219D02*
X112363435Y-132137838D01*
X112363435Y-132137838D02*
X112422959Y-132185457D01*
X112422959Y-132185457D02*
X112482482Y-132280695D01*
X112482482Y-132280695D02*
X112482482Y-132375933D01*
X112482482Y-132375933D02*
X112422959Y-132518790D01*
X112422959Y-132518790D02*
X111708673Y-133090219D01*
X111708673Y-133090219D02*
X112482482Y-133090219D01*
X105600982Y-138709980D02*
X105541458Y-138757600D01*
X105541458Y-138757600D02*
X105362887Y-138805219D01*
X105362887Y-138805219D02*
X105243839Y-138805219D01*
X105243839Y-138805219D02*
X105065268Y-138757600D01*
X105065268Y-138757600D02*
X104946220Y-138662361D01*
X104946220Y-138662361D02*
X104886697Y-138567123D01*
X104886697Y-138567123D02*
X104827173Y-138376647D01*
X104827173Y-138376647D02*
X104827173Y-138233790D01*
X104827173Y-138233790D02*
X104886697Y-138043314D01*
X104886697Y-138043314D02*
X104946220Y-137948076D01*
X104946220Y-137948076D02*
X105065268Y-137852838D01*
X105065268Y-137852838D02*
X105243839Y-137805219D01*
X105243839Y-137805219D02*
X105362887Y-137805219D01*
X105362887Y-137805219D02*
X105541458Y-137852838D01*
X105541458Y-137852838D02*
X105600982Y-137900457D01*
X106136697Y-138805219D02*
X106136697Y-137805219D01*
X106136697Y-138281409D02*
X106850982Y-138281409D01*
X106850982Y-138805219D02*
X106850982Y-137805219D01*
X107327173Y-137805219D02*
X108160506Y-137805219D01*
X108160506Y-137805219D02*
X107624792Y-138805219D01*
D10*
X150784353Y-112608400D02*
X149470068Y-112608400D01*
X150127211Y-112608400D02*
X150127211Y-111008400D01*
X150127211Y-111008400D02*
X149908163Y-111236971D01*
X149908163Y-111236971D02*
X149689115Y-111389352D01*
X149689115Y-111389352D02*
X149470068Y-111465543D01*
X151660544Y-111160781D02*
X151770068Y-111084590D01*
X151770068Y-111084590D02*
X151989115Y-111008400D01*
X151989115Y-111008400D02*
X152536734Y-111008400D01*
X152536734Y-111008400D02*
X152755782Y-111084590D01*
X152755782Y-111084590D02*
X152865306Y-111160781D01*
X152865306Y-111160781D02*
X152974829Y-111313162D01*
X152974829Y-111313162D02*
X152974829Y-111465543D01*
X152974829Y-111465543D02*
X152865306Y-111694114D01*
X152865306Y-111694114D02*
X151551020Y-112608400D01*
X151551020Y-112608400D02*
X152974829Y-112608400D01*
X149360544Y-113584310D02*
X150784353Y-113584310D01*
X150784353Y-113584310D02*
X150017687Y-114193834D01*
X150017687Y-114193834D02*
X150346258Y-114193834D01*
X150346258Y-114193834D02*
X150565306Y-114270024D01*
X150565306Y-114270024D02*
X150674830Y-114346215D01*
X150674830Y-114346215D02*
X150784353Y-114498596D01*
X150784353Y-114498596D02*
X150784353Y-114879548D01*
X150784353Y-114879548D02*
X150674830Y-115031929D01*
X150674830Y-115031929D02*
X150565306Y-115108120D01*
X150565306Y-115108120D02*
X150346258Y-115184310D01*
X150346258Y-115184310D02*
X149689115Y-115184310D01*
X149689115Y-115184310D02*
X149470068Y-115108120D01*
X149470068Y-115108120D02*
X149360544Y-115031929D01*
X152755782Y-114117643D02*
X152755782Y-115184310D01*
X152208163Y-113508120D02*
X151660544Y-114650977D01*
X151660544Y-114650977D02*
X153084353Y-114650977D01*
X150674830Y-116160220D02*
X149579592Y-116160220D01*
X149579592Y-116160220D02*
X149470068Y-116922125D01*
X149470068Y-116922125D02*
X149579592Y-116845934D01*
X149579592Y-116845934D02*
X149798639Y-116769744D01*
X149798639Y-116769744D02*
X150346258Y-116769744D01*
X150346258Y-116769744D02*
X150565306Y-116845934D01*
X150565306Y-116845934D02*
X150674830Y-116922125D01*
X150674830Y-116922125D02*
X150784353Y-117074506D01*
X150784353Y-117074506D02*
X150784353Y-117455458D01*
X150784353Y-117455458D02*
X150674830Y-117607839D01*
X150674830Y-117607839D02*
X150565306Y-117684030D01*
X150565306Y-117684030D02*
X150346258Y-117760220D01*
X150346258Y-117760220D02*
X149798639Y-117760220D01*
X149798639Y-117760220D02*
X149579592Y-117684030D01*
X149579592Y-117684030D02*
X149470068Y-117607839D01*
X152755782Y-116160220D02*
X152317687Y-116160220D01*
X152317687Y-116160220D02*
X152098639Y-116236410D01*
X152098639Y-116236410D02*
X151989115Y-116312601D01*
X151989115Y-116312601D02*
X151770068Y-116541172D01*
X151770068Y-116541172D02*
X151660544Y-116845934D01*
X151660544Y-116845934D02*
X151660544Y-117455458D01*
X151660544Y-117455458D02*
X151770068Y-117607839D01*
X151770068Y-117607839D02*
X151879591Y-117684030D01*
X151879591Y-117684030D02*
X152098639Y-117760220D01*
X152098639Y-117760220D02*
X152536734Y-117760220D01*
X152536734Y-117760220D02*
X152755782Y-117684030D01*
X152755782Y-117684030D02*
X152865306Y-117607839D01*
X152865306Y-117607839D02*
X152974829Y-117455458D01*
X152974829Y-117455458D02*
X152974829Y-117074506D01*
X152974829Y-117074506D02*
X152865306Y-116922125D01*
X152865306Y-116922125D02*
X152755782Y-116845934D01*
X152755782Y-116845934D02*
X152536734Y-116769744D01*
X152536734Y-116769744D02*
X152098639Y-116769744D01*
X152098639Y-116769744D02*
X151879591Y-116845934D01*
X151879591Y-116845934D02*
X151770068Y-116922125D01*
X151770068Y-116922125D02*
X151660544Y-117074506D01*
X149360544Y-118736130D02*
X150893877Y-118736130D01*
X150893877Y-118736130D02*
X149908163Y-120336130D01*
X152098639Y-119421844D02*
X151879591Y-119345654D01*
X151879591Y-119345654D02*
X151770068Y-119269463D01*
X151770068Y-119269463D02*
X151660544Y-119117082D01*
X151660544Y-119117082D02*
X151660544Y-119040892D01*
X151660544Y-119040892D02*
X151770068Y-118888511D01*
X151770068Y-118888511D02*
X151879591Y-118812320D01*
X151879591Y-118812320D02*
X152098639Y-118736130D01*
X152098639Y-118736130D02*
X152536734Y-118736130D01*
X152536734Y-118736130D02*
X152755782Y-118812320D01*
X152755782Y-118812320D02*
X152865306Y-118888511D01*
X152865306Y-118888511D02*
X152974829Y-119040892D01*
X152974829Y-119040892D02*
X152974829Y-119117082D01*
X152974829Y-119117082D02*
X152865306Y-119269463D01*
X152865306Y-119269463D02*
X152755782Y-119345654D01*
X152755782Y-119345654D02*
X152536734Y-119421844D01*
X152536734Y-119421844D02*
X152098639Y-119421844D01*
X152098639Y-119421844D02*
X151879591Y-119498035D01*
X151879591Y-119498035D02*
X151770068Y-119574225D01*
X151770068Y-119574225D02*
X151660544Y-119726606D01*
X151660544Y-119726606D02*
X151660544Y-120031368D01*
X151660544Y-120031368D02*
X151770068Y-120183749D01*
X151770068Y-120183749D02*
X151879591Y-120259940D01*
X151879591Y-120259940D02*
X152098639Y-120336130D01*
X152098639Y-120336130D02*
X152536734Y-120336130D01*
X152536734Y-120336130D02*
X152755782Y-120259940D01*
X152755782Y-120259940D02*
X152865306Y-120183749D01*
X152865306Y-120183749D02*
X152974829Y-120031368D01*
X152974829Y-120031368D02*
X152974829Y-119726606D01*
X152974829Y-119726606D02*
X152865306Y-119574225D01*
X152865306Y-119574225D02*
X152755782Y-119498035D01*
X152755782Y-119498035D02*
X152536734Y-119421844D01*
D12*
X114300482Y-134137980D02*
X114240958Y-134185600D01*
X114240958Y-134185600D02*
X114062387Y-134233219D01*
X114062387Y-134233219D02*
X113943339Y-134233219D01*
X113943339Y-134233219D02*
X113764768Y-134185600D01*
X113764768Y-134185600D02*
X113645720Y-134090361D01*
X113645720Y-134090361D02*
X113586197Y-133995123D01*
X113586197Y-133995123D02*
X113526673Y-133804647D01*
X113526673Y-133804647D02*
X113526673Y-133661790D01*
X113526673Y-133661790D02*
X113586197Y-133471314D01*
X113586197Y-133471314D02*
X113645720Y-133376076D01*
X113645720Y-133376076D02*
X113764768Y-133280838D01*
X113764768Y-133280838D02*
X113943339Y-133233219D01*
X113943339Y-133233219D02*
X114062387Y-133233219D01*
X114062387Y-133233219D02*
X114240958Y-133280838D01*
X114240958Y-133280838D02*
X114300482Y-133328457D01*
X114836197Y-134233219D02*
X114836197Y-133233219D01*
X114836197Y-133709409D02*
X115550482Y-133709409D01*
X115550482Y-134233219D02*
X115550482Y-133233219D01*
X116026673Y-133233219D02*
X116800482Y-133233219D01*
X116800482Y-133233219D02*
X116383816Y-133614171D01*
X116383816Y-133614171D02*
X116562387Y-133614171D01*
X116562387Y-133614171D02*
X116681435Y-133661790D01*
X116681435Y-133661790D02*
X116740959Y-133709409D01*
X116740959Y-133709409D02*
X116800482Y-133804647D01*
X116800482Y-133804647D02*
X116800482Y-134042742D01*
X116800482Y-134042742D02*
X116740959Y-134137980D01*
X116740959Y-134137980D02*
X116681435Y-134185600D01*
X116681435Y-134185600D02*
X116562387Y-134233219D01*
X116562387Y-134233219D02*
X116205244Y-134233219D01*
X116205244Y-134233219D02*
X116086197Y-134185600D01*
X116086197Y-134185600D02*
X116026673Y-134137980D01*
X109982482Y-139852980D02*
X109922958Y-139900600D01*
X109922958Y-139900600D02*
X109744387Y-139948219D01*
X109744387Y-139948219D02*
X109625339Y-139948219D01*
X109625339Y-139948219D02*
X109446768Y-139900600D01*
X109446768Y-139900600D02*
X109327720Y-139805361D01*
X109327720Y-139805361D02*
X109268197Y-139710123D01*
X109268197Y-139710123D02*
X109208673Y-139519647D01*
X109208673Y-139519647D02*
X109208673Y-139376790D01*
X109208673Y-139376790D02*
X109268197Y-139186314D01*
X109268197Y-139186314D02*
X109327720Y-139091076D01*
X109327720Y-139091076D02*
X109446768Y-138995838D01*
X109446768Y-138995838D02*
X109625339Y-138948219D01*
X109625339Y-138948219D02*
X109744387Y-138948219D01*
X109744387Y-138948219D02*
X109922958Y-138995838D01*
X109922958Y-138995838D02*
X109982482Y-139043457D01*
X110518197Y-139948219D02*
X110518197Y-138948219D01*
X110518197Y-139424409D02*
X111232482Y-139424409D01*
X111232482Y-139948219D02*
X111232482Y-138948219D01*
X112006292Y-139376790D02*
X111887244Y-139329171D01*
X111887244Y-139329171D02*
X111827721Y-139281552D01*
X111827721Y-139281552D02*
X111768197Y-139186314D01*
X111768197Y-139186314D02*
X111768197Y-139138695D01*
X111768197Y-139138695D02*
X111827721Y-139043457D01*
X111827721Y-139043457D02*
X111887244Y-138995838D01*
X111887244Y-138995838D02*
X112006292Y-138948219D01*
X112006292Y-138948219D02*
X112244387Y-138948219D01*
X112244387Y-138948219D02*
X112363435Y-138995838D01*
X112363435Y-138995838D02*
X112422959Y-139043457D01*
X112422959Y-139043457D02*
X112482482Y-139138695D01*
X112482482Y-139138695D02*
X112482482Y-139186314D01*
X112482482Y-139186314D02*
X112422959Y-139281552D01*
X112422959Y-139281552D02*
X112363435Y-139329171D01*
X112363435Y-139329171D02*
X112244387Y-139376790D01*
X112244387Y-139376790D02*
X112006292Y-139376790D01*
X112006292Y-139376790D02*
X111887244Y-139424409D01*
X111887244Y-139424409D02*
X111827721Y-139472028D01*
X111827721Y-139472028D02*
X111768197Y-139567266D01*
X111768197Y-139567266D02*
X111768197Y-139757742D01*
X111768197Y-139757742D02*
X111827721Y-139852980D01*
X111827721Y-139852980D02*
X111887244Y-139900600D01*
X111887244Y-139900600D02*
X112006292Y-139948219D01*
X112006292Y-139948219D02*
X112244387Y-139948219D01*
X112244387Y-139948219D02*
X112363435Y-139900600D01*
X112363435Y-139900600D02*
X112422959Y-139852980D01*
X112422959Y-139852980D02*
X112482482Y-139757742D01*
X112482482Y-139757742D02*
X112482482Y-139567266D01*
X112482482Y-139567266D02*
X112422959Y-139472028D01*
X112422959Y-139472028D02*
X112363435Y-139424409D01*
X112363435Y-139424409D02*
X112244387Y-139376790D01*
D13*
%TO.C,REF1*%
X68980000Y-123960000D02*
X68980000Y-124960000D01*
X68980000Y-124960000D02*
X69980000Y-124460000D01*
X69980000Y-124460000D02*
X68980000Y-123960000D01*
X70370000Y-119250000D02*
X79490000Y-119250000D01*
X70370000Y-127490000D02*
X71680000Y-127490000D01*
X70370000Y-139830000D02*
X70370000Y-119250000D01*
X71680000Y-120550000D02*
X78180000Y-120550000D01*
X71680000Y-127490000D02*
X71680000Y-120550000D01*
X71680000Y-131590000D02*
X70370000Y-131590000D01*
X71680000Y-131590000D02*
X71680000Y-131590000D01*
X71680000Y-138530000D02*
X71680000Y-131590000D01*
X78180000Y-120550000D02*
X78180000Y-138530000D01*
X78180000Y-138530000D02*
X71680000Y-138530000D01*
X79490000Y-119250000D02*
X79490000Y-139830000D01*
X79490000Y-139830000D02*
X70370000Y-139830000D01*
%TD*%
M02*
