%TF.GenerationSoftware,KiCad,Pcbnew,8.0.2-8.0.2-0~ubuntu22.04.1*%
%TF.CreationDate,2024-05-24T18:22:54+02:00*%
%TF.ProjectId,flipper-debug-devboard,666c6970-7065-4722-9d64-656275672d64,rev?*%
%TF.SameCoordinates,Original*%
%TF.FileFunction,Paste,Top*%
%TF.FilePolarity,Positive*%
%FSLAX46Y46*%
G04 Gerber Fmt 4.6, Leading zero omitted, Abs format (unit mm)*
G04 Created by KiCad (PCBNEW 8.0.2-8.0.2-0~ubuntu22.04.1) date 2024-05-24 18:22:54*
%MOMM*%
%LPD*%
G01*
G04 APERTURE LIST*
G04 Aperture macros list*
%AMFreePoly0*
4,1,8,0.191000,0.380500,0.571500,0.000000,0.191000,-0.380500,0.191000,-0.381000,-0.191000,-0.381000,-0.191000,0.381000,0.191000,0.381000,0.191000,0.380500,0.191000,0.380500,$1*%
%AMFreePoly1*
4,1,8,0.191000,-0.381000,-0.191000,-0.381000,-0.571500,-0.381000,-0.191000,-0.000500,-0.191000,0.000500,-0.571500,0.381000,0.191000,0.381000,0.191000,-0.381000,0.191000,-0.381000,$1*%
G04 Aperture macros list end*
%ADD10FreePoly0,0.000000*%
%ADD11FreePoly1,0.000000*%
G04 APERTURE END LIST*
D10*
%TO.C,REF\u002A\u002A*%
X139890500Y-131445000D03*
D11*
X141033500Y-131445000D03*
%TD*%
D10*
%TO.C,REF\u002A\u002A*%
X86550500Y-137160000D03*
D11*
X87693500Y-137160000D03*
%TD*%
D10*
%TO.C,REF\u002A\u002A*%
X129730500Y-134874000D03*
D11*
X130873500Y-134874000D03*
%TD*%
D10*
%TO.C,REF\u002A\u002A*%
X101790500Y-139446000D03*
D11*
X102933500Y-139446000D03*
%TD*%
D10*
%TO.C,REF\u002A\u002A*%
X137350500Y-132588000D03*
D11*
X138493500Y-132588000D03*
%TD*%
D10*
%TO.C,REF\u002A\u002A*%
X137350500Y-131445000D03*
D11*
X138493500Y-131445000D03*
%TD*%
D10*
%TO.C,REF\u002A\u002A*%
X94170500Y-133731000D03*
D11*
X95313500Y-133731000D03*
%TD*%
D10*
%TO.C,REF\u002A\u002A*%
X139890500Y-132588000D03*
D11*
X141033500Y-132588000D03*
%TD*%
D10*
%TO.C,REF\u002A\u002A*%
X132270500Y-137160000D03*
D11*
X133413500Y-137160000D03*
%TD*%
D10*
%TO.C,REF\u002A\u002A*%
X142430500Y-132588000D03*
D11*
X143573500Y-132588000D03*
%TD*%
D10*
%TO.C,REF\u002A\u002A*%
X86550500Y-134874000D03*
D11*
X87693500Y-134874000D03*
%TD*%
D10*
%TO.C,REF\u002A\u002A*%
X101790500Y-138303000D03*
D11*
X102933500Y-138303000D03*
%TD*%
D10*
%TO.C,REF\u002A\u002A*%
X86550500Y-132588000D03*
D11*
X87693500Y-132588000D03*
%TD*%
D10*
%TO.C,REF\u002A\u002A*%
X124650500Y-136017000D03*
D11*
X125793500Y-136017000D03*
%TD*%
D10*
%TO.C,REF\u002A\u002A*%
X122110500Y-134874000D03*
D11*
X123253500Y-134874000D03*
%TD*%
D10*
%TO.C,REF\u002A\u002A*%
X129730500Y-132588000D03*
D11*
X130873500Y-132588000D03*
%TD*%
D10*
%TO.C,REF\u002A\u002A*%
X89090500Y-132588000D03*
D11*
X90233500Y-132588000D03*
%TD*%
D10*
%TO.C,REF\u002A\u002A*%
X101790500Y-136017000D03*
D11*
X102933500Y-136017000D03*
%TD*%
D10*
%TO.C,REF\u002A\u002A*%
X132270500Y-132588000D03*
D11*
X133413500Y-132588000D03*
%TD*%
D10*
%TO.C,REF\u002A\u002A*%
X122110500Y-137160000D03*
D11*
X123253500Y-137160000D03*
%TD*%
D10*
%TO.C,REF\u002A\u002A*%
X89090500Y-139446000D03*
D11*
X90233500Y-139446000D03*
%TD*%
D10*
%TO.C,REF\u002A\u002A*%
X89090500Y-134874000D03*
D11*
X90233500Y-134874000D03*
%TD*%
D10*
%TO.C,REF\u002A\u002A*%
X96710500Y-139446000D03*
D11*
X97853500Y-139446000D03*
%TD*%
D10*
%TO.C,REF\u002A\u002A*%
X86550500Y-131445000D03*
D11*
X87693500Y-131445000D03*
%TD*%
D10*
%TO.C,REF\u002A\u002A*%
X132270500Y-138303000D03*
D11*
X133413500Y-138303000D03*
%TD*%
D10*
%TO.C,REF\u002A\u002A*%
X96710500Y-136017000D03*
D11*
X97853500Y-136017000D03*
%TD*%
D10*
%TO.C,REF\u002A\u002A*%
X91630500Y-131445000D03*
D11*
X92773500Y-131445000D03*
%TD*%
D10*
%TO.C,REF\u002A\u002A*%
X91630500Y-137160000D03*
D11*
X92773500Y-137160000D03*
%TD*%
D10*
%TO.C,REF\u002A\u002A*%
X86550500Y-139446000D03*
D11*
X87693500Y-139446000D03*
%TD*%
D10*
%TO.C,REF\u002A\u002A*%
X124650500Y-139446000D03*
D11*
X125793500Y-139446000D03*
%TD*%
D10*
%TO.C,REF\u002A\u002A*%
X124650500Y-132588000D03*
D11*
X125793500Y-132588000D03*
%TD*%
D10*
%TO.C,REF\u002A\u002A*%
X96710500Y-134874000D03*
D11*
X97853500Y-134874000D03*
%TD*%
D10*
%TO.C,REF\u002A\u002A*%
X132270500Y-136017000D03*
D11*
X133413500Y-136017000D03*
%TD*%
D10*
%TO.C,REF\u002A\u002A*%
X137350500Y-139446000D03*
D11*
X138493500Y-139446000D03*
%TD*%
D10*
%TO.C,REF\u002A\u002A*%
X94170500Y-132588000D03*
D11*
X95313500Y-132588000D03*
%TD*%
D10*
%TO.C,REF\u002A\u002A*%
X142430500Y-136017000D03*
D11*
X143573500Y-136017000D03*
%TD*%
D10*
%TO.C,REF\u002A\u002A*%
X99250500Y-134874000D03*
D11*
X100393500Y-134874000D03*
%TD*%
D10*
%TO.C,REF\u002A\u002A*%
X99250500Y-137160000D03*
D11*
X100393500Y-137160000D03*
%TD*%
D10*
%TO.C,REF\u002A\u002A*%
X91630500Y-133731000D03*
D11*
X92773500Y-133731000D03*
%TD*%
D10*
%TO.C,REF\u002A\u002A*%
X122110500Y-139446000D03*
D11*
X123253500Y-139446000D03*
%TD*%
D10*
%TO.C,REF\u002A\u002A*%
X96710500Y-133731000D03*
D11*
X97853500Y-133731000D03*
%TD*%
D10*
%TO.C,REF\u002A\u002A*%
X139890500Y-139446000D03*
D11*
X141033500Y-139446000D03*
%TD*%
D10*
%TO.C,REF\u002A\u002A*%
X134810500Y-136017000D03*
D11*
X135953500Y-136017000D03*
%TD*%
D10*
%TO.C,REF\u002A\u002A*%
X139890500Y-134874000D03*
D11*
X141033500Y-134874000D03*
%TD*%
D10*
%TO.C,REF\u002A\u002A*%
X129730500Y-133731000D03*
D11*
X130873500Y-133731000D03*
%TD*%
D10*
%TO.C,REF\u002A\u002A*%
X139890500Y-138303000D03*
D11*
X141033500Y-138303000D03*
%TD*%
D10*
%TO.C,REF\u002A\u002A*%
X94170500Y-131445000D03*
D11*
X95313500Y-131445000D03*
%TD*%
D10*
%TO.C,REF\u002A\u002A*%
X137350500Y-137160000D03*
D11*
X138493500Y-137160000D03*
%TD*%
D10*
%TO.C,REF\u002A\u002A*%
X101790500Y-137160000D03*
D11*
X102933500Y-137160000D03*
%TD*%
D10*
%TO.C,REF\u002A\u002A*%
X99250500Y-133731000D03*
D11*
X100393500Y-133731000D03*
%TD*%
D10*
%TO.C,REF\u002A\u002A*%
X142430500Y-138303000D03*
D11*
X143573500Y-138303000D03*
%TD*%
D10*
%TO.C,REF\u002A\u002A*%
X122110500Y-136017000D03*
D11*
X123253500Y-136017000D03*
%TD*%
D10*
%TO.C,REF\u002A\u002A*%
X139890500Y-137160000D03*
D11*
X141033500Y-137160000D03*
%TD*%
D10*
%TO.C,REF\u002A\u002A*%
X124650500Y-138303000D03*
D11*
X125793500Y-138303000D03*
%TD*%
D10*
%TO.C,REF\u002A\u002A*%
X91630500Y-138303000D03*
D11*
X92773500Y-138303000D03*
%TD*%
D10*
%TO.C,REF\u002A\u002A*%
X132270500Y-131445000D03*
D11*
X133413500Y-131445000D03*
%TD*%
D10*
%TO.C,REF\u002A\u002A*%
X89090500Y-138303000D03*
D11*
X90233500Y-138303000D03*
%TD*%
D10*
%TO.C,REF\u002A\u002A*%
X134810500Y-134874000D03*
D11*
X135953500Y-134874000D03*
%TD*%
D10*
%TO.C,REF\u002A\u002A*%
X96710500Y-138303000D03*
D11*
X97853500Y-138303000D03*
%TD*%
D10*
%TO.C,REF\u002A\u002A*%
X96710500Y-131445000D03*
D11*
X97853500Y-131445000D03*
%TD*%
D10*
%TO.C,REF\u002A\u002A*%
X134810500Y-133731000D03*
D11*
X135953500Y-133731000D03*
%TD*%
D10*
%TO.C,REF\u002A\u002A*%
X139890500Y-133731000D03*
D11*
X141033500Y-133731000D03*
%TD*%
D10*
%TO.C,REF\u002A\u002A*%
X101790500Y-132588000D03*
D11*
X102933500Y-132588000D03*
%TD*%
D10*
%TO.C,REF\u002A\u002A*%
X91630500Y-136017000D03*
D11*
X92773500Y-136017000D03*
%TD*%
D10*
%TO.C,REF\u002A\u002A*%
X134810500Y-138303000D03*
D11*
X135953500Y-138303000D03*
%TD*%
D10*
%TO.C,REF\u002A\u002A*%
X101790500Y-131445000D03*
D11*
X102933500Y-131445000D03*
%TD*%
D10*
%TO.C,REF\u002A\u002A*%
X129730500Y-139446000D03*
D11*
X130873500Y-139446000D03*
%TD*%
D10*
%TO.C,REF\u002A\u002A*%
X142430500Y-139446000D03*
D11*
X143573500Y-139446000D03*
%TD*%
D10*
%TO.C,REF\u002A\u002A*%
X86550500Y-133731000D03*
D11*
X87693500Y-133731000D03*
%TD*%
D10*
%TO.C,REF\u002A\u002A*%
X124650500Y-131445000D03*
D11*
X125793500Y-131445000D03*
%TD*%
D10*
%TO.C,REF\u002A\u002A*%
X129730500Y-137160000D03*
D11*
X130873500Y-137160000D03*
%TD*%
D10*
%TO.C,REF\u002A\u002A*%
X99250500Y-138303000D03*
D11*
X100393500Y-138303000D03*
%TD*%
D10*
%TO.C,REF\u002A\u002A*%
X89090500Y-136017000D03*
D11*
X90233500Y-136017000D03*
%TD*%
D10*
%TO.C,REF\u002A\u002A*%
X124650500Y-133731000D03*
D11*
X125793500Y-133731000D03*
%TD*%
D10*
%TO.C,REF\u002A\u002A*%
X124650500Y-134874000D03*
D11*
X125793500Y-134874000D03*
%TD*%
D10*
%TO.C,REF\u002A\u002A*%
X122110500Y-131445000D03*
D11*
X123253500Y-131445000D03*
%TD*%
D10*
%TO.C,REF\u002A\u002A*%
X101790500Y-134874000D03*
D11*
X102933500Y-134874000D03*
%TD*%
D10*
%TO.C,REF\u002A\u002A*%
X86550500Y-138303000D03*
D11*
X87693500Y-138303000D03*
%TD*%
D10*
%TO.C,REF\u002A\u002A*%
X99250500Y-131445000D03*
D11*
X100393500Y-131445000D03*
%TD*%
D10*
%TO.C,REF\u002A\u002A*%
X89090500Y-137160000D03*
D11*
X90233500Y-137160000D03*
%TD*%
D10*
%TO.C,REF\u002A\u002A*%
X91630500Y-139446000D03*
D11*
X92773500Y-139446000D03*
%TD*%
D10*
%TO.C,REF\u002A\u002A*%
X99250500Y-132588000D03*
D11*
X100393500Y-132588000D03*
%TD*%
D10*
%TO.C,REF\u002A\u002A*%
X137350500Y-134874000D03*
D11*
X138493500Y-134874000D03*
%TD*%
D10*
%TO.C,REF\u002A\u002A*%
X99250500Y-139446000D03*
D11*
X100393500Y-139446000D03*
%TD*%
D10*
%TO.C,REF\u002A\u002A*%
X96710500Y-137160000D03*
D11*
X97853500Y-137160000D03*
%TD*%
D10*
%TO.C,REF\u002A\u002A*%
X132270500Y-133731000D03*
D11*
X133413500Y-133731000D03*
%TD*%
D10*
%TO.C,REF\u002A\u002A*%
X122110500Y-138303000D03*
D11*
X123253500Y-138303000D03*
%TD*%
D10*
%TO.C,REF\u002A\u002A*%
X101790500Y-133731000D03*
D11*
X102933500Y-133731000D03*
%TD*%
D10*
%TO.C,REF\u002A\u002A*%
X134810500Y-131445000D03*
D11*
X135953500Y-131445000D03*
%TD*%
D10*
%TO.C,REF\u002A\u002A*%
X94170500Y-138303000D03*
D11*
X95313500Y-138303000D03*
%TD*%
D10*
%TO.C,REF\u002A\u002A*%
X129730500Y-131445000D03*
D11*
X130873500Y-131445000D03*
%TD*%
D10*
%TO.C,REF\u002A\u002A*%
X96710500Y-132588000D03*
D11*
X97853500Y-132588000D03*
%TD*%
D10*
%TO.C,REF\u002A\u002A*%
X86550500Y-136017000D03*
D11*
X87693500Y-136017000D03*
%TD*%
D10*
%TO.C,REF\u002A\u002A*%
X134810500Y-137160000D03*
D11*
X135953500Y-137160000D03*
%TD*%
D10*
%TO.C,REF\u002A\u002A*%
X89090500Y-133731000D03*
D11*
X90233500Y-133731000D03*
%TD*%
D10*
%TO.C,REF\u002A\u002A*%
X142430500Y-131445000D03*
D11*
X143573500Y-131445000D03*
%TD*%
D10*
%TO.C,REF\u002A\u002A*%
X91630500Y-132588000D03*
D11*
X92773500Y-132588000D03*
%TD*%
D10*
%TO.C,REF\u002A\u002A*%
X91630500Y-134874000D03*
D11*
X92773500Y-134874000D03*
%TD*%
D10*
%TO.C,REF\u002A\u002A*%
X122110500Y-132588000D03*
D11*
X123253500Y-132588000D03*
%TD*%
D10*
%TO.C,REF\u002A\u002A*%
X94170500Y-137160000D03*
D11*
X95313500Y-137160000D03*
%TD*%
D10*
%TO.C,REF\u002A\u002A*%
X134810500Y-132588000D03*
D11*
X135953500Y-132588000D03*
%TD*%
D10*
%TO.C,REF\u002A\u002A*%
X132270500Y-134874000D03*
D11*
X133413500Y-134874000D03*
%TD*%
D10*
%TO.C,REF\u002A\u002A*%
X89090500Y-131445000D03*
D11*
X90233500Y-131445000D03*
%TD*%
D10*
%TO.C,REF\u002A\u002A*%
X137350500Y-133731000D03*
D11*
X138493500Y-133731000D03*
%TD*%
D10*
%TO.C,REF\u002A\u002A*%
X94170500Y-136017000D03*
D11*
X95313500Y-136017000D03*
%TD*%
D10*
%TO.C,REF\u002A\u002A*%
X142430500Y-134874000D03*
D11*
X143573500Y-134874000D03*
%TD*%
D10*
%TO.C,REF\u002A\u002A*%
X139890500Y-136017000D03*
D11*
X141033500Y-136017000D03*
%TD*%
D10*
%TO.C,REF\u002A\u002A*%
X129730500Y-136017000D03*
D11*
X130873500Y-136017000D03*
%TD*%
D10*
%TO.C,REF\u002A\u002A*%
X134810500Y-139446000D03*
D11*
X135953500Y-139446000D03*
%TD*%
D10*
%TO.C,REF\u002A\u002A*%
X129730500Y-138303000D03*
D11*
X130873500Y-138303000D03*
%TD*%
D10*
%TO.C,REF\u002A\u002A*%
X137350500Y-138303000D03*
D11*
X138493500Y-138303000D03*
%TD*%
D10*
%TO.C,REF\u002A\u002A*%
X132270500Y-139446000D03*
D11*
X133413500Y-139446000D03*
%TD*%
D10*
%TO.C,REF\u002A\u002A*%
X142430500Y-137160000D03*
D11*
X143573500Y-137160000D03*
%TD*%
D10*
%TO.C,REF\u002A\u002A*%
X94170500Y-139446000D03*
D11*
X95313500Y-139446000D03*
%TD*%
D10*
%TO.C,REF\u002A\u002A*%
X124650500Y-137160000D03*
D11*
X125793500Y-137160000D03*
%TD*%
D10*
%TO.C,REF\u002A\u002A*%
X142430500Y-133731000D03*
D11*
X143573500Y-133731000D03*
%TD*%
D10*
%TO.C,REF\u002A\u002A*%
X122110500Y-133731000D03*
D11*
X123253500Y-133731000D03*
%TD*%
D10*
%TO.C,REF\u002A\u002A*%
X94170500Y-134874000D03*
D11*
X95313500Y-134874000D03*
%TD*%
D10*
%TO.C,REF\u002A\u002A*%
X99250500Y-136017000D03*
D11*
X100393500Y-136017000D03*
%TD*%
D10*
%TO.C,REF\u002A\u002A*%
X137350500Y-136017000D03*
D11*
X138493500Y-136017000D03*
%TD*%
M02*
