%TF.GenerationSoftware,KiCad,Pcbnew,8.0.2-8.0.2-0~ubuntu22.04.1*%
%TF.CreationDate,2024-05-24T18:45:01+02:00*%
%TF.ProjectId,flipper-debug-devboard,666c6970-7065-4722-9d64-656275672d64,rev?*%
%TF.SameCoordinates,Original*%
%TF.FileFunction,Copper,L1,Top*%
%TF.FilePolarity,Positive*%
%FSLAX46Y46*%
G04 Gerber Fmt 4.6, Leading zero omitted, Abs format (unit mm)*
G04 Created by KiCad (PCBNEW 8.0.2-8.0.2-0~ubuntu22.04.1) date 2024-05-24 18:45:01*
%MOMM*%
%LPD*%
G01*
G04 APERTURE LIST*
G04 Aperture macros list*
%AMRoundRect*
0 Rectangle with rounded corners*
0 $1 Rounding radius*
0 $2 $3 $4 $5 $6 $7 $8 $9 X,Y pos of 4 corners*
0 Add a 4 corners polygon primitive as box body*
4,1,4,$2,$3,$4,$5,$6,$7,$8,$9,$2,$3,0*
0 Add four circle primitives for the rounded corners*
1,1,$1+$1,$2,$3*
1,1,$1+$1,$4,$5*
1,1,$1+$1,$6,$7*
1,1,$1+$1,$8,$9*
0 Add four rect primitives between the rounded corners*
20,1,$1+$1,$2,$3,$4,$5,0*
20,1,$1+$1,$4,$5,$6,$7,0*
20,1,$1+$1,$6,$7,$8,$9,0*
20,1,$1+$1,$8,$9,$2,$3,0*%
%AMFreePoly0*
4,1,8,0.191000,0.380500,0.571500,0.000000,0.191000,-0.380500,0.191000,-0.381000,-0.191000,-0.381000,-0.191000,0.381000,0.191000,0.381000,0.191000,0.380500,0.191000,0.380500,$1*%
%AMFreePoly1*
4,1,8,0.191000,-0.381000,-0.191000,-0.381000,-0.571500,-0.381000,-0.191000,-0.000500,-0.191000,0.000500,-0.571500,0.381000,0.191000,0.381000,0.191000,-0.381000,0.191000,-0.381000,$1*%
G04 Aperture macros list end*
%TA.AperFunction,ComponentPad*%
%ADD10C,1.500000*%
%TD*%
%TA.AperFunction,SMDPad,CuDef*%
%ADD11FreePoly0,0.000000*%
%TD*%
%TA.AperFunction,SMDPad,CuDef*%
%ADD12FreePoly1,0.000000*%
%TD*%
%TA.AperFunction,ComponentPad*%
%ADD13RoundRect,0.250000X-0.600000X-0.600000X0.600000X-0.600000X0.600000X0.600000X-0.600000X0.600000X0*%
%TD*%
%TA.AperFunction,ComponentPad*%
%ADD14C,1.700000*%
%TD*%
%TA.AperFunction,ComponentPad*%
%ADD15O,1.700000X1.700000*%
%TD*%
%TA.AperFunction,ViaPad*%
%ADD16C,0.600000*%
%TD*%
%TA.AperFunction,Conductor*%
%ADD17C,0.200000*%
%TD*%
G04 APERTURE END LIST*
D10*
%TO.P,,1*%
%TO.N,N/C*%
X149860000Y-104140000D03*
%TD*%
%TO.P,,1*%
%TO.N,N/C*%
X124460000Y-104140000D03*
%TD*%
%TO.P,,1*%
%TO.N,N/C*%
X101600000Y-104140000D03*
%TD*%
%TO.P,,1*%
%TO.N,N/C*%
X142240000Y-104140000D03*
%TD*%
%TO.P,,1*%
%TO.N,N/C*%
X106680000Y-104140000D03*
%TD*%
%TO.P,,1*%
%TO.N,N/C*%
X104140000Y-104140000D03*
%TD*%
%TO.P,,1*%
%TO.N,N/C*%
X73660000Y-104140000D03*
%TD*%
%TO.P,,1*%
%TO.N,N/C*%
X139700000Y-104140000D03*
%TD*%
%TO.P,,1*%
%TO.N,N/C*%
X144780000Y-104140000D03*
%TD*%
%TO.P,,1*%
%TO.N,N/C*%
X127000000Y-104140000D03*
%TD*%
%TO.P,,1*%
%TO.N,N/C*%
X76200000Y-104140000D03*
%TD*%
%TO.P,,1*%
%TO.N,N/C*%
X88900000Y-104140000D03*
%TD*%
%TO.P,,1*%
%TO.N,N/C*%
X99060000Y-104140000D03*
%TD*%
%TO.P,,1*%
%TO.N,N/C*%
X147320000Y-104140000D03*
%TD*%
%TO.P,,1*%
%TO.N,N/C*%
X86360000Y-104140000D03*
%TD*%
%TO.P,,1*%
%TO.N,N/C*%
X132080000Y-104140000D03*
%TD*%
%TO.P,,1*%
%TO.N,N/C*%
X83820000Y-104140000D03*
%TD*%
%TO.P,,1*%
%TO.N,N/C*%
X116840000Y-104140000D03*
%TD*%
%TO.P,,1*%
%TO.N,N/C*%
X93980000Y-104140000D03*
%TD*%
%TO.P,,1*%
%TO.N,N/C*%
X96520000Y-104140000D03*
%TD*%
%TO.P,,1*%
%TO.N,N/C*%
X91440000Y-104140000D03*
%TD*%
%TO.P,,1*%
%TO.N,N/C*%
X134620000Y-104140000D03*
%TD*%
%TO.P,,1*%
%TO.N,N/C*%
X71120000Y-104140000D03*
%TD*%
%TO.P,,1*%
%TO.N,N/C*%
X119380000Y-104140000D03*
%TD*%
%TO.P,,1*%
%TO.N,N/C*%
X81280000Y-104140000D03*
%TD*%
%TO.P,,1*%
%TO.N,N/C*%
X78740000Y-104140000D03*
%TD*%
%TO.P,,1*%
%TO.N,N/C*%
X109220000Y-104140000D03*
%TD*%
%TO.P,,1*%
%TO.N,N/C*%
X137160000Y-104140000D03*
%TD*%
%TO.P,,1*%
%TO.N,N/C*%
X114300000Y-104140000D03*
%TD*%
%TO.P,,1*%
%TO.N,N/C*%
X111760000Y-104140000D03*
%TD*%
%TO.P,,1*%
%TO.N,N/C*%
X152400000Y-104140000D03*
%TD*%
%TO.P,,1*%
%TO.N,N/C*%
X129540000Y-104140000D03*
%TD*%
%TO.P,,1*%
%TO.N,N/C*%
X121920000Y-104140000D03*
%TD*%
%TO.P,,1*%
%TO.N,N/C*%
X149860000Y-106680000D03*
%TD*%
%TO.P,,1*%
%TO.N,N/C*%
X124460000Y-106680000D03*
%TD*%
%TO.P,,1*%
%TO.N,N/C*%
X101600000Y-106680000D03*
%TD*%
%TO.P,,1*%
%TO.N,N/C*%
X142240000Y-106680000D03*
%TD*%
%TO.P,,1*%
%TO.N,N/C*%
X106680000Y-106680000D03*
%TD*%
%TO.P,,1*%
%TO.N,N/C*%
X104140000Y-106680000D03*
%TD*%
%TO.P,,1*%
%TO.N,N/C*%
X73660000Y-106680000D03*
%TD*%
%TO.P,,1*%
%TO.N,N/C*%
X139700000Y-106680000D03*
%TD*%
%TO.P,,1*%
%TO.N,N/C*%
X144780000Y-106680000D03*
%TD*%
%TO.P,,1*%
%TO.N,N/C*%
X127000000Y-106680000D03*
%TD*%
%TO.P,,1*%
%TO.N,N/C*%
X76200000Y-106680000D03*
%TD*%
%TO.P,,1*%
%TO.N,N/C*%
X88900000Y-106680000D03*
%TD*%
%TO.P,,1*%
%TO.N,N/C*%
X99060000Y-106680000D03*
%TD*%
%TO.P,,1*%
%TO.N,N/C*%
X147320000Y-106680000D03*
%TD*%
%TO.P,,1*%
%TO.N,N/C*%
X86360000Y-106680000D03*
%TD*%
%TO.P,,1*%
%TO.N,N/C*%
X132080000Y-106680000D03*
%TD*%
%TO.P,,1*%
%TO.N,N/C*%
X83820000Y-106680000D03*
%TD*%
%TO.P,,1*%
%TO.N,N/C*%
X116840000Y-106680000D03*
%TD*%
%TO.P,,1*%
%TO.N,N/C*%
X93980000Y-106680000D03*
%TD*%
%TO.P,,1*%
%TO.N,N/C*%
X96520000Y-106680000D03*
%TD*%
%TO.P,,1*%
%TO.N,N/C*%
X91440000Y-106680000D03*
%TD*%
%TO.P,,1*%
%TO.N,N/C*%
X134620000Y-106680000D03*
%TD*%
%TO.P,,1*%
%TO.N,N/C*%
X71120000Y-106680000D03*
%TD*%
%TO.P,,1*%
%TO.N,N/C*%
X119380000Y-106680000D03*
%TD*%
%TO.P,,1*%
%TO.N,N/C*%
X81280000Y-106680000D03*
%TD*%
%TO.P,,1*%
%TO.N,N/C*%
X78740000Y-106680000D03*
%TD*%
%TO.P,,1*%
%TO.N,N/C*%
X109220000Y-106680000D03*
%TD*%
%TO.P,,1*%
%TO.N,N/C*%
X137160000Y-106680000D03*
%TD*%
%TO.P,,1*%
%TO.N,N/C*%
X114300000Y-106680000D03*
%TD*%
%TO.P,,1*%
%TO.N,N/C*%
X111760000Y-106680000D03*
%TD*%
%TO.P,,1*%
%TO.N,N/C*%
X152400000Y-106680000D03*
%TD*%
%TO.P,,1*%
%TO.N,N/C*%
X129540000Y-106680000D03*
%TD*%
%TO.P,,1*%
%TO.N,N/C*%
X121920000Y-106680000D03*
%TD*%
D11*
%TO.P,REF\u002A\u002A,1*%
%TO.N,N/C*%
X139890500Y-131445000D03*
D12*
%TO.P,REF\u002A\u002A,2*%
X141033500Y-131445000D03*
%TD*%
D10*
%TO.P,,1*%
%TO.N,N/C*%
X139700000Y-111760000D03*
%TD*%
%TO.P,,1*%
%TO.N,N/C*%
X86360000Y-121920000D03*
%TD*%
%TO.P,,1*%
%TO.N,N/C*%
X142240000Y-116840000D03*
%TD*%
%TO.P,,1*%
%TO.N,N/C*%
X88900000Y-121920000D03*
%TD*%
D11*
%TO.P,REF\u002A\u002A,1*%
%TO.N,N/C*%
X86550500Y-137160000D03*
D12*
%TO.P,REF\u002A\u002A,2*%
X87693500Y-137160000D03*
%TD*%
D10*
%TO.P,,1*%
%TO.N,N/C*%
X134620000Y-111760000D03*
%TD*%
%TO.P,,1*%
%TO.N,N/C*%
X114300000Y-119380000D03*
%TD*%
%TO.P,,1*%
%TO.N,N/C*%
X149860000Y-124460000D03*
%TD*%
%TO.P,,1*%
%TO.N,N/C*%
X139700000Y-116840000D03*
%TD*%
%TO.P,,1*%
%TO.N,N/C*%
X111760000Y-121920000D03*
%TD*%
%TO.P,,1*%
%TO.N,N/C*%
X129540000Y-116840000D03*
%TD*%
%TO.P,,1*%
%TO.N,N/C*%
X152400000Y-109220000D03*
%TD*%
%TO.P,,1*%
%TO.N,N/C*%
X142240000Y-127000000D03*
%TD*%
D11*
%TO.P,REF\u002A\u002A,1*%
%TO.N,N/C*%
X129730500Y-134874000D03*
D12*
%TO.P,REF\u002A\u002A,2*%
X130873500Y-134874000D03*
%TD*%
D10*
%TO.P,,1*%
%TO.N,N/C*%
X124460000Y-114300000D03*
%TD*%
%TO.P,,1*%
%TO.N,N/C*%
X114300000Y-116840000D03*
%TD*%
%TO.P,,1*%
%TO.N,N/C*%
X142240000Y-124460000D03*
%TD*%
%TO.P,,1*%
%TO.N,N/C*%
X119380000Y-119380000D03*
%TD*%
%TO.P,,1*%
%TO.N,N/C*%
X149839316Y-121912195D03*
%TD*%
%TO.P,,1*%
%TO.N,N/C*%
X109220000Y-119380000D03*
%TD*%
D11*
%TO.P,REF\u002A\u002A,1*%
%TO.N,N/C*%
X101790500Y-139446000D03*
D12*
%TO.P,REF\u002A\u002A,2*%
X102933500Y-139446000D03*
%TD*%
D11*
%TO.P,REF\u002A\u002A,1*%
%TO.N,N/C*%
X137350500Y-132588000D03*
D12*
%TO.P,REF\u002A\u002A,2*%
X138493500Y-132588000D03*
%TD*%
D10*
%TO.P,,1*%
%TO.N,N/C*%
X152400000Y-121920000D03*
%TD*%
D11*
%TO.P,REF\u002A\u002A,1*%
%TO.N,N/C*%
X137350500Y-131445000D03*
D12*
%TO.P,REF\u002A\u002A,2*%
X138493500Y-131445000D03*
%TD*%
D10*
%TO.P,,1*%
%TO.N,N/C*%
X132080000Y-121920000D03*
%TD*%
%TO.P,,1*%
%TO.N,N/C*%
X93980000Y-119380000D03*
%TD*%
%TO.P,,1*%
%TO.N,N/C*%
X76200000Y-111760000D03*
%TD*%
%TO.P,,1*%
%TO.N,N/C*%
X149860000Y-129540000D03*
%TD*%
D11*
%TO.P,REF\u002A\u002A,1*%
%TO.N,N/C*%
X94170500Y-133731000D03*
D12*
%TO.P,REF\u002A\u002A,2*%
X95313500Y-133731000D03*
%TD*%
D10*
%TO.P,,1*%
%TO.N,N/C*%
X88900000Y-124460000D03*
%TD*%
%TO.P,,1*%
%TO.N,N/C*%
X93980000Y-127000000D03*
%TD*%
D11*
%TO.P,REF\u002A\u002A,1*%
%TO.N,N/C*%
X139890500Y-132588000D03*
D12*
%TO.P,REF\u002A\u002A,2*%
X141033500Y-132588000D03*
%TD*%
D10*
%TO.P,,1*%
%TO.N,N/C*%
X91440000Y-124460000D03*
%TD*%
D11*
%TO.P,REF\u002A\u002A,1*%
%TO.N,N/C*%
X132270500Y-137160000D03*
D12*
%TO.P,REF\u002A\u002A,2*%
X133413500Y-137160000D03*
%TD*%
D10*
%TO.P,,1*%
%TO.N,N/C*%
X88900000Y-129540000D03*
%TD*%
%TO.P,,1*%
%TO.N,N/C*%
X109220000Y-116840000D03*
%TD*%
D11*
%TO.P,REF\u002A\u002A,1*%
%TO.N,N/C*%
X142430500Y-132588000D03*
D12*
%TO.P,REF\u002A\u002A,2*%
X143573500Y-132588000D03*
%TD*%
D10*
%TO.P,,1*%
%TO.N,N/C*%
X114300000Y-121920000D03*
%TD*%
%TO.P,,1*%
%TO.N,N/C*%
X93980000Y-116840000D03*
%TD*%
%TO.P,,1*%
%TO.N,N/C*%
X147320000Y-116840000D03*
%TD*%
%TO.P,,1*%
%TO.N,N/C*%
X129540000Y-109220000D03*
%TD*%
%TO.P,,1*%
%TO.N,N/C*%
X111760000Y-124460000D03*
%TD*%
D13*
%TO.P,REF1,1*%
%TO.N,N/C*%
X73660000Y-124460000D03*
D14*
%TO.P,REF1,2*%
X76200000Y-124460000D03*
%TO.P,REF1,3*%
X73660000Y-127000000D03*
%TO.P,REF1,4*%
X76200000Y-127000000D03*
%TO.P,REF1,5*%
X73660000Y-129540000D03*
%TO.P,REF1,6*%
X76200000Y-129540000D03*
%TO.P,REF1,7*%
X73660000Y-132080000D03*
%TO.P,REF1,8*%
X76200000Y-132080000D03*
%TO.P,REF1,9*%
X73660000Y-134620000D03*
%TO.P,REF1,10*%
X76200000Y-134620000D03*
%TD*%
D10*
%TO.P,,1*%
%TO.N,N/C*%
X139700000Y-114300000D03*
%TD*%
D11*
%TO.P,REF\u002A\u002A,1*%
%TO.N,N/C*%
X86550500Y-134874000D03*
D12*
%TO.P,REF\u002A\u002A,2*%
X87693500Y-134874000D03*
%TD*%
D11*
%TO.P,REF\u002A\u002A,1*%
%TO.N,N/C*%
X101790500Y-138303000D03*
D12*
%TO.P,REF\u002A\u002A,2*%
X102933500Y-138303000D03*
%TD*%
D10*
%TO.P,,1*%
%TO.N,N/C*%
X106680000Y-114300000D03*
%TD*%
%TO.P,,1*%
%TO.N,N/C*%
X134620000Y-129540000D03*
%TD*%
%TO.P,,1*%
%TO.N,N/C*%
X111760000Y-116840000D03*
%TD*%
%TO.P,,1*%
%TO.N,N/C*%
X121920000Y-109220000D03*
%TD*%
D11*
%TO.P,REF\u002A\u002A,1*%
%TO.N,N/C*%
X86550500Y-132588000D03*
D12*
%TO.P,REF\u002A\u002A,2*%
X87693500Y-132588000D03*
%TD*%
D10*
%TO.P,,1*%
%TO.N,N/C*%
X106680000Y-124460000D03*
%TD*%
D11*
%TO.P,REF\u002A\u002A,1*%
%TO.N,N/C*%
X124650500Y-136017000D03*
D12*
%TO.P,REF\u002A\u002A,2*%
X125793500Y-136017000D03*
%TD*%
D11*
%TO.P,REF\u002A\u002A,1*%
%TO.N,N/C*%
X122110500Y-134874000D03*
D12*
%TO.P,REF\u002A\u002A,2*%
X123253500Y-134874000D03*
%TD*%
D10*
%TO.P,,1*%
%TO.N,N/C*%
X121920000Y-116840000D03*
%TD*%
%TO.P,,1*%
%TO.N,N/C*%
X111760000Y-109220000D03*
%TD*%
%TO.P,,1*%
%TO.N,N/C*%
X144780000Y-121920000D03*
%TD*%
%TO.P,,1*%
%TO.N,N/C*%
X114300000Y-109220000D03*
%TD*%
%TO.P,,1*%
%TO.N,N/C*%
X142240000Y-129540000D03*
%TD*%
%TO.P,,1*%
%TO.N,N/C*%
X124460000Y-127000000D03*
%TD*%
%TO.P,,1*%
%TO.N,N/C*%
X104140000Y-121920000D03*
%TD*%
D11*
%TO.P,REF\u002A\u002A,1*%
%TO.N,N/C*%
X129730500Y-132588000D03*
D12*
%TO.P,REF\u002A\u002A,2*%
X130873500Y-132588000D03*
%TD*%
D11*
%TO.P,REF\u002A\u002A,1*%
%TO.N,N/C*%
X89090500Y-132588000D03*
D12*
%TO.P,REF\u002A\u002A,2*%
X90233500Y-132588000D03*
%TD*%
D10*
%TO.P,,1*%
%TO.N,N/C*%
X73660000Y-116840000D03*
%TD*%
%TO.P,,1*%
%TO.N,N/C*%
X144780000Y-119380000D03*
%TD*%
D11*
%TO.P,REF\u002A\u002A,1*%
%TO.N,N/C*%
X101790500Y-136017000D03*
D12*
%TO.P,REF\u002A\u002A,2*%
X102933500Y-136017000D03*
%TD*%
D10*
%TO.P,,1*%
%TO.N,N/C*%
X137160000Y-109220000D03*
%TD*%
D11*
%TO.P,REF\u002A\u002A,1*%
%TO.N,N/C*%
X132270500Y-132588000D03*
D12*
%TO.P,REF\u002A\u002A,2*%
X133413500Y-132588000D03*
%TD*%
D10*
%TO.P,,1*%
%TO.N,N/C*%
X139700000Y-121920000D03*
%TD*%
D11*
%TO.P,REF\u002A\u002A,1*%
%TO.N,N/C*%
X122110500Y-137160000D03*
D12*
%TO.P,REF\u002A\u002A,2*%
X123253500Y-137160000D03*
%TD*%
D10*
%TO.P,,1*%
%TO.N,N/C*%
X106680000Y-121920000D03*
%TD*%
D11*
%TO.P,REF\u002A\u002A,1*%
%TO.N,N/C*%
X89090500Y-139446000D03*
D12*
%TO.P,REF\u002A\u002A,2*%
X90233500Y-139446000D03*
%TD*%
D10*
%TO.P,,1*%
%TO.N,N/C*%
X88900000Y-119380000D03*
%TD*%
%TO.P,,1*%
%TO.N,N/C*%
X83820000Y-119380000D03*
%TD*%
%TO.P,,1*%
%TO.N,N/C*%
X104140000Y-116840000D03*
%TD*%
%TO.P,,1*%
%TO.N,N/C*%
X121920000Y-124460000D03*
%TD*%
D11*
%TO.P,REF\u002A\u002A,1*%
%TO.N,N/C*%
X89090500Y-134874000D03*
D12*
%TO.P,REF\u002A\u002A,2*%
X90233500Y-134874000D03*
%TD*%
D11*
%TO.P,REF\u002A\u002A,1*%
%TO.N,N/C*%
X96710500Y-139446000D03*
D12*
%TO.P,REF\u002A\u002A,2*%
X97853500Y-139446000D03*
%TD*%
D11*
%TO.P,REF\u002A\u002A,1*%
%TO.N,N/C*%
X86550500Y-131445000D03*
D12*
%TO.P,REF\u002A\u002A,2*%
X87693500Y-131445000D03*
%TD*%
D10*
%TO.P,,1*%
%TO.N,N/C*%
X119380000Y-127000000D03*
%TD*%
%TO.P,,1*%
%TO.N,N/C*%
X116840000Y-127000000D03*
%TD*%
D11*
%TO.P,REF\u002A\u002A,1*%
%TO.N,N/C*%
X132270500Y-138303000D03*
D12*
%TO.P,REF\u002A\u002A,2*%
X133413500Y-138303000D03*
%TD*%
D10*
%TO.P,,1*%
%TO.N,N/C*%
X93980000Y-114300000D03*
%TD*%
D11*
%TO.P,REF\u002A\u002A,1*%
%TO.N,N/C*%
X96710500Y-136017000D03*
D12*
%TO.P,REF\u002A\u002A,2*%
X97853500Y-136017000D03*
%TD*%
D10*
%TO.P,,1*%
%TO.N,N/C*%
X71120000Y-116840000D03*
%TD*%
%TO.P,,1*%
%TO.N,N/C*%
X83820000Y-121920000D03*
%TD*%
D11*
%TO.P,REF\u002A\u002A,1*%
%TO.N,N/C*%
X91630500Y-131445000D03*
D12*
%TO.P,REF\u002A\u002A,2*%
X92773500Y-131445000D03*
%TD*%
D10*
%TO.P,,1*%
%TO.N,N/C*%
X139700000Y-119380000D03*
%TD*%
%TO.P,,1*%
%TO.N,N/C*%
X114300000Y-124460000D03*
%TD*%
%TO.P,,1*%
%TO.N,N/C*%
X144780000Y-111760000D03*
%TD*%
D11*
%TO.P,REF\u002A\u002A,1*%
%TO.N,N/C*%
X91630500Y-137160000D03*
D12*
%TO.P,REF\u002A\u002A,2*%
X92773500Y-137160000D03*
%TD*%
D11*
%TO.P,REF\u002A\u002A,1*%
%TO.N,N/C*%
X86550500Y-139446000D03*
D12*
%TO.P,REF\u002A\u002A,2*%
X87693500Y-139446000D03*
%TD*%
D10*
%TO.P,,1*%
%TO.N,N/C*%
X101600000Y-127000000D03*
%TD*%
%TO.P,,1*%
%TO.N,N/C*%
X124460000Y-111760000D03*
%TD*%
D11*
%TO.P,REF\u002A\u002A,1*%
%TO.N,N/C*%
X124650500Y-139446000D03*
D12*
%TO.P,REF\u002A\u002A,2*%
X125793500Y-139446000D03*
%TD*%
D10*
%TO.P,,1*%
%TO.N,N/C*%
X114300000Y-127000000D03*
%TD*%
%TO.P,,1*%
%TO.N,N/C*%
X109220000Y-109220000D03*
%TD*%
%TO.P,,1*%
%TO.N,N/C*%
X134620000Y-124460000D03*
%TD*%
%TO.P,,1*%
%TO.N,N/C*%
X142240000Y-121920000D03*
%TD*%
%TO.P,,1*%
%TO.N,N/C*%
X104140000Y-111760000D03*
%TD*%
%TO.P,,1*%
%TO.N,N/C*%
X96520000Y-127000000D03*
%TD*%
D11*
%TO.P,REF\u002A\u002A,1*%
%TO.N,N/C*%
X124650500Y-132588000D03*
D12*
%TO.P,REF\u002A\u002A,2*%
X125793500Y-132588000D03*
%TD*%
D10*
%TO.P,,1*%
%TO.N,N/C*%
X132080000Y-114300000D03*
%TD*%
%TO.P,,1*%
%TO.N,N/C*%
X116840000Y-124460000D03*
%TD*%
%TO.P,,1*%
%TO.N,N/C*%
X137160000Y-129540000D03*
%TD*%
%TO.P,,1*%
%TO.N,N/C*%
X96520000Y-114300000D03*
%TD*%
%TO.P,,1*%
%TO.N,N/C*%
X88900000Y-127000000D03*
%TD*%
%TO.P,,1*%
%TO.N,N/C*%
X86360000Y-114300000D03*
%TD*%
%TO.P,,1*%
%TO.N,N/C*%
X147320000Y-111760000D03*
%TD*%
%TO.P,,1*%
%TO.N,N/C*%
X137160000Y-114300000D03*
%TD*%
D11*
%TO.P,REF\u002A\u002A,1*%
%TO.N,N/C*%
X96710500Y-134874000D03*
D12*
%TO.P,REF\u002A\u002A,2*%
X97853500Y-134874000D03*
%TD*%
D10*
%TO.P,,1*%
%TO.N,N/C*%
X83820000Y-124460000D03*
%TD*%
%TO.P,,1*%
%TO.N,N/C*%
X129540000Y-129540000D03*
%TD*%
%TO.P,,1*%
%TO.N,N/C*%
X86360000Y-127000000D03*
%TD*%
%TO.P,,1*%
%TO.N,N/C*%
X137160000Y-121920000D03*
%TD*%
%TO.P,,1*%
%TO.N,N/C*%
X132080000Y-119380000D03*
%TD*%
D11*
%TO.P,REF\u002A\u002A,1*%
%TO.N,N/C*%
X132270500Y-136017000D03*
D12*
%TO.P,REF\u002A\u002A,2*%
X133413500Y-136017000D03*
%TD*%
D10*
%TO.P,,1*%
%TO.N,N/C*%
X147320000Y-114300000D03*
%TD*%
D11*
%TO.P,REF\u002A\u002A,1*%
%TO.N,N/C*%
X137350500Y-139446000D03*
D12*
%TO.P,REF\u002A\u002A,2*%
X138493500Y-139446000D03*
%TD*%
D10*
%TO.P,,1*%
%TO.N,N/C*%
X144780000Y-114300000D03*
%TD*%
%TO.P,,1*%
%TO.N,N/C*%
X119380000Y-121920000D03*
%TD*%
D11*
%TO.P,REF\u002A\u002A,1*%
%TO.N,N/C*%
X94170500Y-132588000D03*
D12*
%TO.P,REF\u002A\u002A,2*%
X95313500Y-132588000D03*
%TD*%
D10*
%TO.P,,1*%
%TO.N,N/C*%
X78740000Y-109220000D03*
%TD*%
%TO.P,,1*%
%TO.N,N/C*%
X101600000Y-129540000D03*
%TD*%
D11*
%TO.P,REF\u002A\u002A,1*%
%TO.N,N/C*%
X142430500Y-136017000D03*
D12*
%TO.P,REF\u002A\u002A,2*%
X143573500Y-136017000D03*
%TD*%
D11*
%TO.P,REF\u002A\u002A,1*%
%TO.N,N/C*%
X99250500Y-134874000D03*
D12*
%TO.P,REF\u002A\u002A,2*%
X100393500Y-134874000D03*
%TD*%
D11*
%TO.P,REF\u002A\u002A,1*%
%TO.N,N/C*%
X99250500Y-137160000D03*
D12*
%TO.P,REF\u002A\u002A,2*%
X100393500Y-137160000D03*
%TD*%
D10*
%TO.P,,1*%
%TO.N,N/C*%
X96520000Y-129540000D03*
%TD*%
%TO.P,,1*%
%TO.N,N/C*%
X119380000Y-111760000D03*
%TD*%
D11*
%TO.P,REF\u002A\u002A,1*%
%TO.N,N/C*%
X91630500Y-133731000D03*
D12*
%TO.P,REF\u002A\u002A,2*%
X92773500Y-133731000D03*
%TD*%
D10*
%TO.P,,1*%
%TO.N,N/C*%
X111760000Y-114300000D03*
%TD*%
D11*
%TO.P,REF\u002A\u002A,1*%
%TO.N,N/C*%
X122110500Y-139446000D03*
D12*
%TO.P,REF\u002A\u002A,2*%
X123253500Y-139446000D03*
%TD*%
D10*
%TO.P,,1*%
%TO.N,N/C*%
X132080000Y-127000000D03*
%TD*%
%TO.P,,1*%
%TO.N,N/C*%
X81280000Y-109220000D03*
%TD*%
D11*
%TO.P,REF\u002A\u002A,1*%
%TO.N,N/C*%
X96710500Y-133731000D03*
D12*
%TO.P,REF\u002A\u002A,2*%
X97853500Y-133731000D03*
%TD*%
D10*
%TO.P,,1*%
%TO.N,N/C*%
X119380000Y-109220000D03*
%TD*%
%TO.P,,1*%
%TO.N,N/C*%
X71120000Y-109220000D03*
%TD*%
%TO.P,,1*%
%TO.N,N/C*%
X86360000Y-119380000D03*
%TD*%
%TO.P,,1*%
%TO.N,N/C*%
X81280000Y-116840000D03*
%TD*%
%TO.P,,1*%
%TO.N,N/C*%
X134620000Y-109220000D03*
%TD*%
%TO.P,,1*%
%TO.N,N/C*%
X71095966Y-111688191D03*
%TD*%
D11*
%TO.P,REF\u002A\u002A,1*%
%TO.N,N/C*%
X139890500Y-139446000D03*
D12*
%TO.P,REF\u002A\u002A,2*%
X141033500Y-139446000D03*
%TD*%
D10*
%TO.P,,1*%
%TO.N,N/C*%
X104140000Y-119380000D03*
%TD*%
D11*
%TO.P,REF\u002A\u002A,1*%
%TO.N,N/C*%
X134810500Y-136017000D03*
D12*
%TO.P,REF\u002A\u002A,2*%
X135953500Y-136017000D03*
%TD*%
D10*
%TO.P,,1*%
%TO.N,N/C*%
X152400000Y-124460000D03*
%TD*%
D11*
%TO.P,REF\u002A\u002A,1*%
%TO.N,N/C*%
X139890500Y-134874000D03*
D12*
%TO.P,REF\u002A\u002A,2*%
X141033500Y-134874000D03*
%TD*%
D10*
%TO.P,,1*%
%TO.N,N/C*%
X116840000Y-119380000D03*
%TD*%
%TO.P,,1*%
%TO.N,N/C*%
X142240000Y-111760000D03*
%TD*%
D11*
%TO.P,REF\u002A\u002A,1*%
%TO.N,N/C*%
X129730500Y-133731000D03*
D12*
%TO.P,REF\u002A\u002A,2*%
X130873500Y-133731000D03*
%TD*%
D11*
%TO.P,REF\u002A\u002A,1*%
%TO.N,N/C*%
X139890500Y-138303000D03*
D12*
%TO.P,REF\u002A\u002A,2*%
X141033500Y-138303000D03*
%TD*%
D10*
%TO.P,,1*%
%TO.N,N/C*%
X127000000Y-114300000D03*
%TD*%
%TO.P,,1*%
%TO.N,N/C*%
X71120000Y-114300000D03*
%TD*%
%TO.P,,1*%
%TO.N,N/C*%
X91440000Y-111760000D03*
%TD*%
%TO.P,,1*%
%TO.N,N/C*%
X73660000Y-114300000D03*
%TD*%
D11*
%TO.P,REF\u002A\u002A,1*%
%TO.N,N/C*%
X94170500Y-131445000D03*
D12*
%TO.P,REF\u002A\u002A,2*%
X95313500Y-131445000D03*
%TD*%
D11*
%TO.P,REF\u002A\u002A,1*%
%TO.N,N/C*%
X137350500Y-137160000D03*
D12*
%TO.P,REF\u002A\u002A,2*%
X138493500Y-137160000D03*
%TD*%
D10*
%TO.P,,1*%
%TO.N,N/C*%
X127000000Y-124460000D03*
%TD*%
%TO.P,,1*%
%TO.N,N/C*%
X116840000Y-121920000D03*
%TD*%
%TO.P,,1*%
%TO.N,N/C*%
X91440000Y-109220000D03*
%TD*%
%TO.P,,1*%
%TO.N,N/C*%
X134620000Y-121920000D03*
%TD*%
%TO.P,,1*%
%TO.N,N/C*%
X116840000Y-111760000D03*
%TD*%
D11*
%TO.P,REF\u002A\u002A,1*%
%TO.N,N/C*%
X101790500Y-137160000D03*
D12*
%TO.P,REF\u002A\u002A,2*%
X102933500Y-137160000D03*
%TD*%
D10*
%TO.P,,1*%
%TO.N,N/C*%
X101600000Y-124460000D03*
%TD*%
%TO.P,,1*%
%TO.N,N/C*%
X137160000Y-111760000D03*
%TD*%
%TO.P,,1*%
%TO.N,N/C*%
X127000000Y-116840000D03*
%TD*%
%TO.P,,1*%
%TO.N,N/C*%
X106680000Y-116840000D03*
%TD*%
%TO.P,,1*%
%TO.N,N/C*%
X127000000Y-127000000D03*
%TD*%
%TO.P,,1*%
%TO.N,N/C*%
X96520000Y-109220000D03*
%TD*%
D11*
%TO.P,REF\u002A\u002A,1*%
%TO.N,N/C*%
X99250500Y-133731000D03*
D12*
%TO.P,REF\u002A\u002A,2*%
X100393500Y-133731000D03*
%TD*%
D10*
%TO.P,,1*%
%TO.N,N/C*%
X127000000Y-129540000D03*
%TD*%
%TO.P,,1*%
%TO.N,N/C*%
X137160000Y-127000000D03*
%TD*%
%TO.P,,1*%
%TO.N,N/C*%
X78740000Y-116840000D03*
%TD*%
%TO.P,,1*%
%TO.N,N/C*%
X139700000Y-129540000D03*
%TD*%
%TO.P,,1*%
%TO.N,N/C*%
X99060000Y-124460000D03*
%TD*%
%TO.P,,1*%
%TO.N,N/C*%
X124460000Y-119380000D03*
%TD*%
%TO.P,,1*%
%TO.N,N/C*%
X147320000Y-119380000D03*
%TD*%
%TO.P,,1*%
%TO.N,N/C*%
X144780000Y-129540000D03*
%TD*%
%TO.P,,1*%
%TO.N,N/C*%
X119380000Y-116840000D03*
%TD*%
D11*
%TO.P,REF\u002A\u002A,1*%
%TO.N,N/C*%
X142430500Y-138303000D03*
D12*
%TO.P,REF\u002A\u002A,2*%
X143573500Y-138303000D03*
%TD*%
D11*
%TO.P,REF\u002A\u002A,1*%
%TO.N,N/C*%
X122110500Y-136017000D03*
D12*
%TO.P,REF\u002A\u002A,2*%
X123253500Y-136017000D03*
%TD*%
D11*
%TO.P,REF\u002A\u002A,1*%
%TO.N,N/C*%
X139890500Y-137160000D03*
D12*
%TO.P,REF\u002A\u002A,2*%
X141033500Y-137160000D03*
%TD*%
D10*
%TO.P,,1*%
%TO.N,N/C*%
X116840000Y-114300000D03*
%TD*%
D11*
%TO.P,REF\u002A\u002A,1*%
%TO.N,N/C*%
X124650500Y-138303000D03*
D12*
%TO.P,REF\u002A\u002A,2*%
X125793500Y-138303000D03*
%TD*%
D11*
%TO.P,REF\u002A\u002A,1*%
%TO.N,N/C*%
X91630500Y-138303000D03*
D12*
%TO.P,REF\u002A\u002A,2*%
X92773500Y-138303000D03*
%TD*%
D10*
%TO.P,,1*%
%TO.N,N/C*%
X129540000Y-127000000D03*
%TD*%
%TO.P,,1*%
%TO.N,N/C*%
X91440000Y-119380000D03*
%TD*%
%TO.P,,1*%
%TO.N,N/C*%
X147320000Y-129540000D03*
%TD*%
D11*
%TO.P,REF\u002A\u002A,1*%
%TO.N,N/C*%
X132270500Y-131445000D03*
D12*
%TO.P,REF\u002A\u002A,2*%
X133413500Y-131445000D03*
%TD*%
D10*
%TO.P,,1*%
%TO.N,N/C*%
X116840000Y-116840000D03*
%TD*%
%TO.P,,1*%
%TO.N,N/C*%
X132080000Y-129540000D03*
%TD*%
D11*
%TO.P,REF\u002A\u002A,1*%
%TO.N,N/C*%
X89090500Y-138303000D03*
D12*
%TO.P,REF\u002A\u002A,2*%
X90233500Y-138303000D03*
%TD*%
D11*
%TO.P,REF\u002A\u002A,1*%
%TO.N,N/C*%
X134810500Y-134874000D03*
D12*
%TO.P,REF\u002A\u002A,2*%
X135953500Y-134874000D03*
%TD*%
D10*
%TO.P,,1*%
%TO.N,N/C*%
X83820000Y-116840000D03*
%TD*%
%TO.P,,1*%
%TO.N,N/C*%
X93980000Y-109220000D03*
%TD*%
D11*
%TO.P,REF\u002A\u002A,1*%
%TO.N,N/C*%
X96710500Y-138303000D03*
D12*
%TO.P,REF\u002A\u002A,2*%
X97853500Y-138303000D03*
%TD*%
D10*
%TO.P,,1*%
%TO.N,N/C*%
X81280000Y-124460000D03*
%TD*%
%TO.P,,1*%
%TO.N,N/C*%
X101600000Y-119380000D03*
%TD*%
%TO.P,,1*%
%TO.N,N/C*%
X127000000Y-111760000D03*
%TD*%
%TO.P,,1*%
%TO.N,N/C*%
X121920000Y-119380000D03*
%TD*%
%TO.P,,1*%
%TO.N,N/C*%
X116840000Y-109220000D03*
%TD*%
D11*
%TO.P,REF\u002A\u002A,1*%
%TO.N,N/C*%
X96710500Y-131445000D03*
D12*
%TO.P,REF\u002A\u002A,2*%
X97853500Y-131445000D03*
%TD*%
D10*
%TO.P,,1*%
%TO.N,N/C*%
X81280000Y-111760000D03*
%TD*%
D11*
%TO.P,REF\u002A\u002A,1*%
%TO.N,N/C*%
X134810500Y-133731000D03*
D12*
%TO.P,REF\u002A\u002A,2*%
X135953500Y-133731000D03*
%TD*%
D11*
%TO.P,REF\u002A\u002A,1*%
%TO.N,N/C*%
X139890500Y-133731000D03*
D12*
%TO.P,REF\u002A\u002A,2*%
X141033500Y-133731000D03*
%TD*%
D10*
%TO.P,,1*%
%TO.N,N/C*%
X86360000Y-129540000D03*
%TD*%
%TO.P,,1*%
%TO.N,N/C*%
X83820000Y-114300000D03*
%TD*%
%TO.P,,1*%
%TO.N,N/C*%
X99060000Y-119380000D03*
%TD*%
D11*
%TO.P,REF\u002A\u002A,1*%
%TO.N,N/C*%
X101790500Y-132588000D03*
D12*
%TO.P,REF\u002A\u002A,2*%
X102933500Y-132588000D03*
%TD*%
D10*
%TO.P,,1*%
%TO.N,N/C*%
X109220000Y-121920000D03*
%TD*%
D11*
%TO.P,REF\u002A\u002A,1*%
%TO.N,N/C*%
X91630500Y-136017000D03*
D12*
%TO.P,REF\u002A\u002A,2*%
X92773500Y-136017000D03*
%TD*%
D11*
%TO.P,REF\u002A\u002A,1*%
%TO.N,N/C*%
X134810500Y-138303000D03*
D12*
%TO.P,REF\u002A\u002A,2*%
X135953500Y-138303000D03*
%TD*%
D10*
%TO.P,,1*%
%TO.N,N/C*%
X129540000Y-119380000D03*
%TD*%
%TO.P,,1*%
%TO.N,N/C*%
X83820000Y-109220000D03*
%TD*%
D11*
%TO.P,REF\u002A\u002A,1*%
%TO.N,N/C*%
X101790500Y-131445000D03*
D12*
%TO.P,REF\u002A\u002A,2*%
X102933500Y-131445000D03*
%TD*%
D10*
%TO.P,,1*%
%TO.N,N/C*%
X129540000Y-114300000D03*
%TD*%
%TO.P,,1*%
%TO.N,N/C*%
X132080000Y-109220000D03*
%TD*%
%TO.P,,1*%
%TO.N,N/C*%
X83820000Y-127000000D03*
%TD*%
D11*
%TO.P,REF\u002A\u002A,1*%
%TO.N,N/C*%
X129730500Y-139446000D03*
D12*
%TO.P,REF\u002A\u002A,2*%
X130873500Y-139446000D03*
%TD*%
D10*
%TO.P,,1*%
%TO.N,N/C*%
X91440000Y-127000000D03*
%TD*%
%TO.P,,1*%
%TO.N,N/C*%
X99060000Y-111760000D03*
%TD*%
D11*
%TO.P,REF\u002A\u002A,1*%
%TO.N,N/C*%
X142430500Y-139446000D03*
D12*
%TO.P,REF\u002A\u002A,2*%
X143573500Y-139446000D03*
%TD*%
D10*
%TO.P,,1*%
%TO.N,N/C*%
X96520000Y-116840000D03*
%TD*%
%TO.P,,1*%
%TO.N,N/C*%
X101600000Y-121920000D03*
%TD*%
D11*
%TO.P,REF\u002A\u002A,1*%
%TO.N,N/C*%
X86550500Y-133731000D03*
D12*
%TO.P,REF\u002A\u002A,2*%
X87693500Y-133731000D03*
%TD*%
D10*
%TO.P,,1*%
%TO.N,N/C*%
X93980000Y-129540000D03*
%TD*%
%TO.P,,1*%
%TO.N,N/C*%
X86360000Y-109220000D03*
%TD*%
%TO.P,,1*%
%TO.N,N/C*%
X101600000Y-114300000D03*
%TD*%
%TO.P,,1*%
%TO.N,N/C*%
X96520000Y-121920000D03*
%TD*%
%TO.P,,1*%
%TO.N,N/C*%
X83820000Y-111760000D03*
%TD*%
%TO.P,,1*%
%TO.N,N/C*%
X88900000Y-111760000D03*
%TD*%
%TO.P,,1*%
%TO.N,N/C*%
X121920000Y-121920000D03*
%TD*%
%TO.P,,1*%
%TO.N,N/C*%
X124460000Y-121920000D03*
%TD*%
%TO.P,,1*%
%TO.N,N/C*%
X147320000Y-109220000D03*
%TD*%
%TO.P,,1*%
%TO.N,N/C*%
X91440000Y-129540000D03*
%TD*%
D11*
%TO.P,REF\u002A\u002A,1*%
%TO.N,N/C*%
X124650500Y-131445000D03*
D12*
%TO.P,REF\u002A\u002A,2*%
X125793500Y-131445000D03*
%TD*%
D10*
%TO.P,,1*%
%TO.N,N/C*%
X124460000Y-124460000D03*
%TD*%
%TO.P,,1*%
%TO.N,N/C*%
X99060000Y-109220000D03*
%TD*%
%TO.P,,1*%
%TO.N,N/C*%
X114300000Y-111760000D03*
%TD*%
D11*
%TO.P,REF\u002A\u002A,1*%
%TO.N,N/C*%
X129730500Y-137160000D03*
D12*
%TO.P,REF\u002A\u002A,2*%
X130873500Y-137160000D03*
%TD*%
D10*
%TO.P,,1*%
%TO.N,N/C*%
X121920000Y-127000000D03*
%TD*%
%TO.P,,1*%
%TO.N,N/C*%
X104140000Y-129540000D03*
%TD*%
%TO.P,,1*%
%TO.N,N/C*%
X81280000Y-127000000D03*
%TD*%
%TO.P,,1*%
%TO.N,N/C*%
X88900000Y-109220000D03*
%TD*%
%TO.P,,1*%
%TO.N,N/C*%
X129540000Y-124460000D03*
%TD*%
D11*
%TO.P,REF\u002A\u002A,1*%
%TO.N,N/C*%
X99250500Y-138303000D03*
D12*
%TO.P,REF\u002A\u002A,2*%
X100393500Y-138303000D03*
%TD*%
D10*
%TO.P,,1*%
%TO.N,N/C*%
X114300000Y-114300000D03*
%TD*%
D11*
%TO.P,REF\u002A\u002A,1*%
%TO.N,N/C*%
X89090500Y-136017000D03*
D12*
%TO.P,REF\u002A\u002A,2*%
X90233500Y-136017000D03*
%TD*%
D10*
%TO.P,,1*%
%TO.N,N/C*%
X93980000Y-111760000D03*
%TD*%
%TO.P,,1*%
%TO.N,N/C*%
X86360000Y-124460000D03*
%TD*%
%TO.P,,1*%
%TO.N,N/C*%
X144780000Y-127000000D03*
%TD*%
%TO.P,,1*%
%TO.N,N/C*%
X76200000Y-109220000D03*
%TD*%
%TO.P,,1*%
%TO.N,N/C*%
X142240000Y-114300000D03*
%TD*%
%TO.P,,1*%
%TO.N,N/C*%
X132080000Y-116840000D03*
%TD*%
%TO.P,,1*%
%TO.N,N/C*%
X109220000Y-111760000D03*
%TD*%
%TO.P,,1*%
%TO.N,N/C*%
X142240000Y-119380000D03*
%TD*%
%TO.P,,1*%
%TO.N,N/C*%
X144780000Y-124460000D03*
%TD*%
D11*
%TO.P,REF\u002A\u002A,1*%
%TO.N,N/C*%
X124650500Y-133731000D03*
D12*
%TO.P,REF\u002A\u002A,2*%
X125793500Y-133731000D03*
%TD*%
D10*
%TO.P,,1*%
%TO.N,N/C*%
X91440000Y-116840000D03*
%TD*%
D11*
%TO.P,REF\u002A\u002A,1*%
%TO.N,N/C*%
X124650500Y-134874000D03*
D12*
%TO.P,REF\u002A\u002A,2*%
X125793500Y-134874000D03*
%TD*%
D11*
%TO.P,REF\u002A\u002A,1*%
%TO.N,N/C*%
X122110500Y-131445000D03*
D12*
%TO.P,REF\u002A\u002A,2*%
X123253500Y-131445000D03*
%TD*%
D11*
%TO.P,REF\u002A\u002A,1*%
%TO.N,N/C*%
X101790500Y-134874000D03*
D12*
%TO.P,REF\u002A\u002A,2*%
X102933500Y-134874000D03*
%TD*%
D10*
%TO.P,,1*%
%TO.N,N/C*%
X121920000Y-129540000D03*
%TD*%
D11*
%TO.P,REF\u002A\u002A,1*%
%TO.N,N/C*%
X86550500Y-138303000D03*
D12*
%TO.P,REF\u002A\u002A,2*%
X87693500Y-138303000D03*
%TD*%
D11*
%TO.P,REF\u002A\u002A,1*%
%TO.N,N/C*%
X99250500Y-131445000D03*
D12*
%TO.P,REF\u002A\u002A,2*%
X100393500Y-131445000D03*
%TD*%
D11*
%TO.P,REF\u002A\u002A,1*%
%TO.N,N/C*%
X89090500Y-137160000D03*
D12*
%TO.P,REF\u002A\u002A,2*%
X90233500Y-137160000D03*
%TD*%
D10*
%TO.P,,1*%
%TO.N,N/C*%
X99060000Y-114300000D03*
%TD*%
D11*
%TO.P,REF\u002A\u002A,1*%
%TO.N,N/C*%
X91630500Y-139446000D03*
D12*
%TO.P,REF\u002A\u002A,2*%
X92773500Y-139446000D03*
%TD*%
D11*
%TO.P,REF\u002A\u002A,1*%
%TO.N,N/C*%
X99250500Y-132588000D03*
D12*
%TO.P,REF\u002A\u002A,2*%
X100393500Y-132588000D03*
%TD*%
D11*
%TO.P,REF\u002A\u002A,1*%
%TO.N,N/C*%
X137350500Y-134874000D03*
D12*
%TO.P,REF\u002A\u002A,2*%
X138493500Y-134874000D03*
%TD*%
D11*
%TO.P,REF\u002A\u002A,1*%
%TO.N,N/C*%
X99250500Y-139446000D03*
D12*
%TO.P,REF\u002A\u002A,2*%
X100393500Y-139446000D03*
%TD*%
D10*
%TO.P,,1*%
%TO.N,N/C*%
X152400000Y-127000000D03*
%TD*%
%TO.P,,1*%
%TO.N,N/C*%
X129540000Y-111760000D03*
%TD*%
D11*
%TO.P,REF\u002A\u002A,1*%
%TO.N,N/C*%
X96710500Y-137160000D03*
D12*
%TO.P,REF\u002A\u002A,2*%
X97853500Y-137160000D03*
%TD*%
D10*
%TO.P,,1*%
%TO.N,N/C*%
X96520000Y-124460000D03*
%TD*%
%TO.P,,1*%
%TO.N,N/C*%
X93980000Y-124460000D03*
%TD*%
D11*
%TO.P,REF\u002A\u002A,1*%
%TO.N,N/C*%
X132270500Y-133731000D03*
D12*
%TO.P,REF\u002A\u002A,2*%
X133413500Y-133731000D03*
%TD*%
D10*
%TO.P,,1*%
%TO.N,N/C*%
X127000000Y-109220000D03*
%TD*%
%TO.P,,1*%
%TO.N,N/C*%
X147320000Y-121920000D03*
%TD*%
%TO.P,,1*%
%TO.N,N/C*%
X73660000Y-111760000D03*
%TD*%
%TO.P,,1*%
%TO.N,N/C*%
X106680000Y-127000000D03*
%TD*%
D11*
%TO.P,REF\u002A\u002A,1*%
%TO.N,N/C*%
X122110500Y-138303000D03*
D12*
%TO.P,REF\u002A\u002A,2*%
X123253500Y-138303000D03*
%TD*%
D10*
%TO.P,,1*%
%TO.N,N/C*%
X91440000Y-114300000D03*
%TD*%
D11*
%TO.P,REF\u002A\u002A,1*%
%TO.N,N/C*%
X101790500Y-133731000D03*
D12*
%TO.P,REF\u002A\u002A,2*%
X102933500Y-133731000D03*
%TD*%
D10*
%TO.P,,1*%
%TO.N,N/C*%
X144780000Y-109220000D03*
%TD*%
D11*
%TO.P,REF\u002A\u002A,1*%
%TO.N,N/C*%
X134810500Y-131445000D03*
D12*
%TO.P,REF\u002A\u002A,2*%
X135953500Y-131445000D03*
%TD*%
D11*
%TO.P,REF\u002A\u002A,1*%
%TO.N,N/C*%
X94170500Y-138303000D03*
D12*
%TO.P,REF\u002A\u002A,2*%
X95313500Y-138303000D03*
%TD*%
D11*
%TO.P,REF\u002A\u002A,1*%
%TO.N,N/C*%
X129730500Y-131445000D03*
D12*
%TO.P,REF\u002A\u002A,2*%
X130873500Y-131445000D03*
%TD*%
D10*
%TO.P,,1*%
%TO.N,N/C*%
X134620000Y-116840000D03*
%TD*%
%TO.P,,1*%
%TO.N,N/C*%
X137160000Y-116840000D03*
%TD*%
D11*
%TO.P,REF\u002A\u002A,1*%
%TO.N,N/C*%
X96710500Y-132588000D03*
D12*
%TO.P,REF\u002A\u002A,2*%
X97853500Y-132588000D03*
%TD*%
D11*
%TO.P,REF\u002A\u002A,1*%
%TO.N,N/C*%
X86550500Y-136017000D03*
D12*
%TO.P,REF\u002A\u002A,2*%
X87693500Y-136017000D03*
%TD*%
D10*
%TO.P,,1*%
%TO.N,N/C*%
X101600000Y-116840000D03*
%TD*%
%TO.P,,1*%
%TO.N,N/C*%
X99060000Y-129540000D03*
%TD*%
D11*
%TO.P,REF\u002A\u002A,1*%
%TO.N,N/C*%
X134810500Y-137160000D03*
D12*
%TO.P,REF\u002A\u002A,2*%
X135953500Y-137160000D03*
%TD*%
D10*
%TO.P,,1*%
%TO.N,N/C*%
X147320000Y-124460000D03*
%TD*%
%TO.P,,1*%
%TO.N,N/C*%
X76200000Y-114300000D03*
%TD*%
%TO.P,,1*%
%TO.N,N/C*%
X83820000Y-129540000D03*
%TD*%
%TO.P,,1*%
%TO.N,N/C*%
X109220000Y-124460000D03*
%TD*%
%TO.P,,1*%
%TO.N,N/C*%
X139700000Y-109220000D03*
%TD*%
D11*
%TO.P,REF\u002A\u002A,1*%
%TO.N,N/C*%
X89090500Y-133731000D03*
D12*
%TO.P,REF\u002A\u002A,2*%
X90233500Y-133731000D03*
%TD*%
D11*
%TO.P,REF\u002A\u002A,1*%
%TO.N,N/C*%
X142430500Y-131445000D03*
D12*
%TO.P,REF\u002A\u002A,2*%
X143573500Y-131445000D03*
%TD*%
D10*
%TO.P,,1*%
%TO.N,N/C*%
X139700000Y-127000000D03*
%TD*%
D11*
%TO.P,REF\u002A\u002A,1*%
%TO.N,N/C*%
X91630500Y-132588000D03*
D12*
%TO.P,REF\u002A\u002A,2*%
X92773500Y-132588000D03*
%TD*%
D10*
%TO.P,,1*%
%TO.N,N/C*%
X132080000Y-111760000D03*
%TD*%
D11*
%TO.P,REF\u002A\u002A,1*%
%TO.N,N/C*%
X91630500Y-134874000D03*
D12*
%TO.P,REF\u002A\u002A,2*%
X92773500Y-134874000D03*
%TD*%
D11*
%TO.P,REF\u002A\u002A,1*%
%TO.N,N/C*%
X122110500Y-132588000D03*
D12*
%TO.P,REF\u002A\u002A,2*%
X123253500Y-132588000D03*
%TD*%
D11*
%TO.P,REF\u002A\u002A,1*%
%TO.N,N/C*%
X94170500Y-137160000D03*
D12*
%TO.P,REF\u002A\u002A,2*%
X95313500Y-137160000D03*
%TD*%
D10*
%TO.P,,1*%
%TO.N,N/C*%
X99060000Y-121920000D03*
%TD*%
%TO.P,,1*%
%TO.N,N/C*%
X73660000Y-109220000D03*
%TD*%
%TO.P,,1*%
%TO.N,N/C*%
X137160000Y-119380000D03*
%TD*%
D11*
%TO.P,REF\u002A\u002A,1*%
%TO.N,N/C*%
X134810500Y-132588000D03*
D12*
%TO.P,REF\u002A\u002A,2*%
X135953500Y-132588000D03*
%TD*%
D11*
%TO.P,REF\u002A\u002A,1*%
%TO.N,N/C*%
X132270500Y-134874000D03*
D12*
%TO.P,REF\u002A\u002A,2*%
X133413500Y-134874000D03*
%TD*%
D11*
%TO.P,REF\u002A\u002A,1*%
%TO.N,N/C*%
X89090500Y-131445000D03*
D12*
%TO.P,REF\u002A\u002A,2*%
X90233500Y-131445000D03*
%TD*%
D10*
%TO.P,,1*%
%TO.N,N/C*%
X88900000Y-116840000D03*
%TD*%
%TO.P,,1*%
%TO.N,N/C*%
X119380000Y-124460000D03*
%TD*%
%TO.P,,1*%
%TO.N,N/C*%
X139700000Y-124460000D03*
%TD*%
D11*
%TO.P,REF\u002A\u002A,1*%
%TO.N,N/C*%
X137350500Y-133731000D03*
D12*
%TO.P,REF\u002A\u002A,2*%
X138493500Y-133731000D03*
%TD*%
D10*
%TO.P,,1*%
%TO.N,N/C*%
X132080000Y-124460000D03*
%TD*%
%TO.P,,1*%
%TO.N,N/C*%
X78740000Y-111760000D03*
%TD*%
%TO.P,,1*%
%TO.N,N/C*%
X137160000Y-124460000D03*
%TD*%
%TO.P,,1*%
%TO.N,N/C*%
X104140000Y-109220000D03*
%TD*%
D11*
%TO.P,REF\u002A\u002A,1*%
%TO.N,N/C*%
X94170500Y-136017000D03*
D12*
%TO.P,REF\u002A\u002A,2*%
X95313500Y-136017000D03*
%TD*%
D10*
%TO.P,,1*%
%TO.N,N/C*%
X106680000Y-119380000D03*
%TD*%
D11*
%TO.P,REF\u002A\u002A,1*%
%TO.N,N/C*%
X142430500Y-134874000D03*
D12*
%TO.P,REF\u002A\u002A,2*%
X143573500Y-134874000D03*
%TD*%
D10*
%TO.P,,1*%
%TO.N,N/C*%
X86360000Y-116840000D03*
%TD*%
%TO.P,,1*%
%TO.N,N/C*%
X96520000Y-119380000D03*
%TD*%
%TO.P,,1*%
%TO.N,N/C*%
X121920000Y-114300000D03*
%TD*%
%TO.P,,1*%
%TO.N,N/C*%
X81280000Y-114300000D03*
%TD*%
%TO.P,,1*%
%TO.N,N/C*%
X106680000Y-109220000D03*
%TD*%
%TO.P,,1*%
%TO.N,N/C*%
X109220000Y-114300000D03*
%TD*%
%TO.P,,1*%
%TO.N,N/C*%
X129540000Y-121920000D03*
%TD*%
D11*
%TO.P,REF\u002A\u002A,1*%
%TO.N,N/C*%
X139890500Y-136017000D03*
D12*
%TO.P,REF\u002A\u002A,2*%
X141033500Y-136017000D03*
%TD*%
D10*
%TO.P,,1*%
%TO.N,N/C*%
X111760000Y-119380000D03*
%TD*%
%TO.P,,1*%
%TO.N,N/C*%
X104140000Y-127000000D03*
%TD*%
%TO.P,,1*%
%TO.N,N/C*%
X88900000Y-114300000D03*
%TD*%
%TO.P,,1*%
%TO.N,N/C*%
X142240000Y-109220000D03*
%TD*%
D11*
%TO.P,REF\u002A\u002A,1*%
%TO.N,N/C*%
X129730500Y-136017000D03*
D12*
%TO.P,REF\u002A\u002A,2*%
X130873500Y-136017000D03*
%TD*%
D10*
%TO.P,,1*%
%TO.N,N/C*%
X152400000Y-129540000D03*
%TD*%
%TO.P,,1*%
%TO.N,N/C*%
X109220000Y-127000000D03*
%TD*%
%TO.P,,1*%
%TO.N,N/C*%
X99060000Y-116840000D03*
%TD*%
D11*
%TO.P,REF\u002A\u002A,1*%
%TO.N,N/C*%
X134810500Y-139446000D03*
D12*
%TO.P,REF\u002A\u002A,2*%
X135953500Y-139446000D03*
%TD*%
D10*
%TO.P,,1*%
%TO.N,N/C*%
X134620000Y-119380000D03*
%TD*%
%TO.P,,1*%
%TO.N,N/C*%
X101600000Y-109220000D03*
%TD*%
%TO.P,,1*%
%TO.N,N/C*%
X81280000Y-121920000D03*
%TD*%
%TO.P,,1*%
%TO.N,N/C*%
X91440000Y-121920000D03*
%TD*%
D11*
%TO.P,REF\u002A\u002A,1*%
%TO.N,N/C*%
X129730500Y-138303000D03*
D12*
%TO.P,REF\u002A\u002A,2*%
X130873500Y-138303000D03*
%TD*%
D11*
%TO.P,REF\u002A\u002A,1*%
%TO.N,N/C*%
X137350500Y-138303000D03*
D12*
%TO.P,REF\u002A\u002A,2*%
X138493500Y-138303000D03*
%TD*%
D10*
%TO.P,,1*%
%TO.N,N/C*%
X134620000Y-127000000D03*
%TD*%
D11*
%TO.P,REF\u002A\u002A,1*%
%TO.N,N/C*%
X132270500Y-139446000D03*
D12*
%TO.P,REF\u002A\u002A,2*%
X133413500Y-139446000D03*
%TD*%
D10*
%TO.P,,1*%
%TO.N,N/C*%
X93980000Y-121920000D03*
%TD*%
%TO.P,,1*%
%TO.N,N/C*%
X127000000Y-121920000D03*
%TD*%
%TO.P,,1*%
%TO.N,N/C*%
X147320000Y-127000000D03*
%TD*%
%TO.P,,1*%
%TO.N,N/C*%
X119380000Y-114300000D03*
%TD*%
%TO.P,,1*%
%TO.N,N/C*%
X111760000Y-111760000D03*
%TD*%
D11*
%TO.P,REF\u002A\u002A,1*%
%TO.N,N/C*%
X142430500Y-137160000D03*
D12*
%TO.P,REF\u002A\u002A,2*%
X143573500Y-137160000D03*
%TD*%
D10*
%TO.P,,1*%
%TO.N,N/C*%
X78740000Y-114300000D03*
%TD*%
D11*
%TO.P,REF\u002A\u002A,1*%
%TO.N,N/C*%
X94170500Y-139446000D03*
D12*
%TO.P,REF\u002A\u002A,2*%
X95313500Y-139446000D03*
%TD*%
D11*
%TO.P,REF\u002A\u002A,1*%
%TO.N,N/C*%
X124650500Y-137160000D03*
D12*
%TO.P,REF\u002A\u002A,2*%
X125793500Y-137160000D03*
%TD*%
D10*
%TO.P,,1*%
%TO.N,N/C*%
X104140000Y-114300000D03*
%TD*%
D11*
%TO.P,REF\u002A\u002A,1*%
%TO.N,N/C*%
X142430500Y-133731000D03*
D12*
%TO.P,REF\u002A\u002A,2*%
X143573500Y-133731000D03*
%TD*%
D10*
%TO.P,,1*%
%TO.N,N/C*%
X124460000Y-109220000D03*
%TD*%
D11*
%TO.P,REF\u002A\u002A,1*%
%TO.N,N/C*%
X122110500Y-133731000D03*
D12*
%TO.P,REF\u002A\u002A,2*%
X123253500Y-133731000D03*
%TD*%
D10*
%TO.P,,1*%
%TO.N,N/C*%
X127000000Y-119380000D03*
%TD*%
%TO.P,,1*%
%TO.N,N/C*%
X134620000Y-114300000D03*
%TD*%
D11*
%TO.P,REF\u002A\u002A,1*%
%TO.N,N/C*%
X94170500Y-134874000D03*
D12*
%TO.P,REF\u002A\u002A,2*%
X95313500Y-134874000D03*
%TD*%
D10*
%TO.P,,1*%
%TO.N,N/C*%
X144780000Y-116840000D03*
%TD*%
%TO.P,,1*%
%TO.N,N/C*%
X149860000Y-109220000D03*
%TD*%
%TO.P,,1*%
%TO.N,N/C*%
X76200000Y-116840000D03*
%TD*%
%TO.P,,1*%
%TO.N,N/C*%
X104140000Y-124460000D03*
%TD*%
%TO.P,,1*%
%TO.N,N/C*%
X101600000Y-111760000D03*
%TD*%
%TO.P,,1*%
%TO.N,N/C*%
X96520000Y-111760000D03*
%TD*%
D11*
%TO.P,REF\u002A\u002A,1*%
%TO.N,N/C*%
X99250500Y-136017000D03*
D12*
%TO.P,REF\u002A\u002A,2*%
X100393500Y-136017000D03*
%TD*%
D10*
%TO.P,,1*%
%TO.N,N/C*%
X124460000Y-129540000D03*
%TD*%
%TO.P,,1*%
%TO.N,N/C*%
X86360000Y-111760000D03*
%TD*%
%TO.P,,1*%
%TO.N,N/C*%
X81280000Y-119380000D03*
%TD*%
%TO.P,,1*%
%TO.N,N/C*%
X99060000Y-127000000D03*
%TD*%
%TO.P,,1*%
%TO.N,N/C*%
X149860000Y-127000000D03*
%TD*%
%TO.P,,1*%
%TO.N,N/C*%
X124460000Y-116840000D03*
%TD*%
%TO.P,,1*%
%TO.N,N/C*%
X121920000Y-111760000D03*
%TD*%
%TO.P,,1*%
%TO.N,N/C*%
X106680000Y-111760000D03*
%TD*%
D11*
%TO.P,REF\u002A\u002A,1*%
%TO.N,N/C*%
X137350500Y-136017000D03*
D12*
%TO.P,REF\u002A\u002A,2*%
X138493500Y-136017000D03*
%TD*%
D10*
%TO.P,,1*%
%TO.N,N/C*%
X111760000Y-127000000D03*
%TD*%
D15*
%TO.P,REF3,1*%
%TO.N,N/C*%
X121920000Y-142240000D03*
%TO.P,REF3,2*%
X124460000Y-142240000D03*
%TO.P,REF3,3*%
X127000000Y-142240000D03*
%TO.P,REF3,4*%
X129540000Y-142240000D03*
%TO.P,REF3,5*%
X132080000Y-142240000D03*
%TO.P,REF3,6*%
X134620000Y-142240000D03*
%TO.P,REF3,7*%
X137160000Y-142240000D03*
%TO.P,REF3,8*%
X139700000Y-142240000D03*
%TO.P,REF3,9*%
X142240000Y-142240000D03*
%TO.P,REF3,10*%
X144780000Y-142240000D03*
%TD*%
D14*
%TO.P,REF2,1*%
%TO.N,N/C*%
X86360000Y-142240000D03*
D15*
%TO.P,REF2,2*%
X88900000Y-142240000D03*
%TO.P,REF2,3*%
X91440000Y-142240000D03*
%TO.P,REF2,4*%
X93980000Y-142240000D03*
%TO.P,REF2,5*%
X96520000Y-142240000D03*
%TO.P,REF2,6*%
X99060000Y-142240000D03*
%TO.P,REF2,7*%
X101600000Y-142240000D03*
%TO.P,REF2,8*%
X104140000Y-142240000D03*
%TD*%
D16*
%TO.N,*%
X93472000Y-133731000D03*
X88392000Y-136017000D03*
X136652000Y-134874000D03*
X144272000Y-138303000D03*
X88392000Y-133731000D03*
X90932000Y-138303000D03*
X101092000Y-139446000D03*
X144272000Y-134874000D03*
X131572000Y-134874000D03*
X103632000Y-131445000D03*
X134112000Y-133731000D03*
X123952000Y-133731000D03*
X93472000Y-138303000D03*
X123952000Y-138303000D03*
X93472000Y-136017000D03*
X101092000Y-136017000D03*
X98552000Y-138303000D03*
X123952000Y-139446000D03*
X98552000Y-137160000D03*
X139192000Y-138303000D03*
X96012000Y-133731000D03*
X90932000Y-139446000D03*
X131572000Y-139446000D03*
X126492000Y-139446000D03*
X123952000Y-137160000D03*
X139192000Y-136017000D03*
X126492000Y-131445000D03*
X103632000Y-139446000D03*
X90932000Y-131445000D03*
X101092000Y-132588000D03*
X141732000Y-136017000D03*
X103632000Y-137160000D03*
X134112000Y-134874000D03*
X136652000Y-138303000D03*
X80010000Y-137160000D03*
X88392000Y-138303000D03*
X139192000Y-134874000D03*
X139192000Y-131445000D03*
X96012000Y-136017000D03*
X88392000Y-139446000D03*
X131572000Y-137160000D03*
X151130000Y-137160000D03*
X96012000Y-137160000D03*
X90932000Y-134874000D03*
X144272000Y-131445000D03*
X136652000Y-132588000D03*
X101092000Y-134874000D03*
X88392000Y-134874000D03*
X103632000Y-136017000D03*
X126492000Y-137160000D03*
X78740000Y-139446000D03*
X131572000Y-131445000D03*
X103632000Y-133731000D03*
X144272000Y-136017000D03*
X141732000Y-133731000D03*
X101092000Y-133731000D03*
X144272000Y-137160000D03*
X96012000Y-138303000D03*
X98552000Y-136017000D03*
X93472000Y-134874000D03*
X134112000Y-139446000D03*
X131572000Y-138303000D03*
X123952000Y-132588000D03*
X134112000Y-136017000D03*
X123952000Y-131445000D03*
X141732000Y-137160000D03*
X101092000Y-137160000D03*
X136652000Y-131445000D03*
X149860000Y-138303000D03*
X82550000Y-132588000D03*
X96012000Y-132588000D03*
X98552000Y-133731000D03*
X139192000Y-132588000D03*
X90932000Y-137160000D03*
X148590000Y-134874000D03*
X144272000Y-133731000D03*
X141732000Y-131445000D03*
X93472000Y-131445000D03*
X131572000Y-136017000D03*
X98552000Y-139446000D03*
X98552000Y-134874000D03*
X134112000Y-132588000D03*
X144272000Y-139446000D03*
X101092000Y-138303000D03*
X103632000Y-138303000D03*
X131572000Y-132588000D03*
X144272000Y-132588000D03*
X141732000Y-132588000D03*
X146050000Y-132588000D03*
X88392000Y-137160000D03*
X141732000Y-138303000D03*
X126492000Y-138303000D03*
X139192000Y-133731000D03*
X81280000Y-134874000D03*
X93472000Y-139446000D03*
X90932000Y-133731000D03*
X134112000Y-138303000D03*
X126492000Y-132588000D03*
X103632000Y-132588000D03*
X96012000Y-131445000D03*
X98552000Y-132588000D03*
X139192000Y-137160000D03*
X96012000Y-139446000D03*
X93472000Y-137160000D03*
X126492000Y-133731000D03*
X134112000Y-137160000D03*
X134112000Y-131445000D03*
X101092000Y-131445000D03*
X126492000Y-134874000D03*
X136652000Y-137160000D03*
X141732000Y-134874000D03*
X98552000Y-131445000D03*
X136652000Y-139446000D03*
X139192000Y-139446000D03*
X141732000Y-139446000D03*
X90932000Y-136017000D03*
X131572000Y-133731000D03*
X123952000Y-134874000D03*
X136652000Y-136017000D03*
X126492000Y-136017000D03*
X136652000Y-133731000D03*
X88392000Y-132588000D03*
X103632000Y-134874000D03*
X123952000Y-136017000D03*
X90932000Y-132588000D03*
X88392000Y-131445000D03*
X93472000Y-132588000D03*
X96012000Y-134874000D03*
%TD*%
D17*
%TO.N,*%
X103632000Y-136017000D02*
X102933500Y-136017000D01*
X76200000Y-124460000D02*
X77470000Y-125730000D01*
X101092000Y-134874000D02*
X100393500Y-134874000D01*
X123253500Y-134874000D02*
X123952000Y-134874000D01*
X138493500Y-131445000D02*
X139192000Y-131445000D01*
X121920000Y-121920000D02*
X121920000Y-124460000D01*
X137160000Y-127000000D02*
X137160000Y-129540000D01*
X96012000Y-137160000D02*
X95313500Y-137160000D01*
X125793500Y-134874000D02*
X126492000Y-134874000D01*
X129540000Y-129540000D02*
X129540000Y-142240000D01*
X88392000Y-137160000D02*
X87693500Y-137160000D01*
X101092000Y-139446000D02*
X100393500Y-139446000D01*
X103632000Y-132588000D02*
X102933500Y-132588000D01*
X91440000Y-127000000D02*
X91440000Y-129540000D01*
X104140000Y-127000000D02*
X104140000Y-129540000D01*
X138493500Y-138303000D02*
X139192000Y-138303000D01*
X93472000Y-133731000D02*
X92773500Y-133731000D01*
X138493500Y-139446000D02*
X139192000Y-139446000D01*
X103632000Y-131445000D02*
X102933500Y-131445000D01*
X125793500Y-131445000D02*
X126492000Y-131445000D01*
X121920000Y-127000000D02*
X121920000Y-129540000D01*
X98552000Y-138303000D02*
X97853500Y-138303000D01*
X135953500Y-138303000D02*
X136652000Y-138303000D01*
X143573500Y-133731000D02*
X144272000Y-133731000D01*
X143573500Y-132588000D02*
X144272000Y-132588000D01*
X125793500Y-138303000D02*
X126492000Y-138303000D01*
X142240000Y-127000000D02*
X142240000Y-129540000D01*
X121920000Y-129540000D02*
X121920000Y-142240000D01*
X93472000Y-137160000D02*
X92773500Y-137160000D01*
X77470000Y-133350000D02*
X78740000Y-133350000D01*
X81280000Y-128270000D02*
X81280000Y-134874000D01*
X125793500Y-139446000D02*
X126492000Y-139446000D01*
X86360000Y-129540000D02*
X86360000Y-142240000D01*
X101092000Y-137160000D02*
X100393500Y-137160000D01*
X96520000Y-127000000D02*
X96520000Y-129540000D01*
X141033500Y-132588000D02*
X141732000Y-132588000D01*
X90932000Y-139446000D02*
X90233500Y-139446000D01*
X88900000Y-127000000D02*
X88900000Y-129540000D01*
X141033500Y-134874000D02*
X141732000Y-134874000D01*
X103632000Y-139446000D02*
X102933500Y-139446000D01*
X78740000Y-133350000D02*
X78740000Y-139446000D01*
X135953500Y-136017000D02*
X136652000Y-136017000D01*
X127000000Y-142240000D02*
X127000000Y-129540000D01*
X130873500Y-133731000D02*
X131572000Y-133731000D01*
X96012000Y-136017000D02*
X95313500Y-136017000D01*
X77724000Y-125730000D02*
X82550000Y-125730000D01*
X93472000Y-136017000D02*
X92773500Y-136017000D01*
X135953500Y-137160000D02*
X136652000Y-137160000D01*
X93980000Y-127000000D02*
X93980000Y-129540000D01*
X101092000Y-136017000D02*
X100393500Y-136017000D01*
X104140000Y-124460000D02*
X104140000Y-127000000D01*
X88392000Y-133731000D02*
X87693500Y-133731000D01*
X130873500Y-139446000D02*
X131572000Y-139446000D01*
X125793500Y-132588000D02*
X126492000Y-132588000D01*
X123253500Y-138303000D02*
X123952000Y-138303000D01*
X151130000Y-128397000D02*
X151130000Y-136017000D01*
X127000000Y-124460000D02*
X127000000Y-127000000D01*
X90932000Y-133731000D02*
X90233500Y-133731000D01*
X101092000Y-138303000D02*
X100393500Y-138303000D01*
X151130000Y-128270000D02*
X151130000Y-128397000D01*
X135953500Y-139446000D02*
X136652000Y-139446000D01*
X98552000Y-133731000D02*
X97853500Y-133731000D01*
X93472000Y-134874000D02*
X92773500Y-134874000D01*
X143573500Y-139446000D02*
X144272000Y-139446000D01*
X86360000Y-127000000D02*
X86360000Y-124460000D01*
X149860000Y-129540000D02*
X149860000Y-138303000D01*
X103632000Y-133731000D02*
X102933500Y-133731000D01*
X98552000Y-131445000D02*
X97853500Y-131445000D01*
X87693500Y-134874000D02*
X88392000Y-134874000D01*
X90932000Y-138303000D02*
X90233500Y-138303000D01*
X123952000Y-131445000D02*
X123253500Y-131445000D01*
X144780000Y-127000000D02*
X144780000Y-129540000D01*
X90932000Y-136017000D02*
X90233500Y-136017000D01*
X90932000Y-132588000D02*
X90233500Y-132588000D01*
X125793500Y-137160000D02*
X126492000Y-137160000D01*
X101092000Y-132588000D02*
X100393500Y-132588000D01*
X91440000Y-129540000D02*
X91440000Y-142240000D01*
X138493500Y-132588000D02*
X139192000Y-132588000D01*
X96012000Y-133731000D02*
X95313500Y-133731000D01*
X143573500Y-136017000D02*
X144272000Y-136017000D01*
X76200000Y-127000000D02*
X77470000Y-128270000D01*
X151130000Y-123190000D02*
X146050000Y-123190000D01*
X121920000Y-124460000D02*
X121920000Y-127000000D01*
X101092000Y-133731000D02*
X100393500Y-133731000D01*
X88900000Y-129540000D02*
X88900000Y-142240000D01*
X132080000Y-129540000D02*
X132080000Y-142240000D01*
X146050000Y-123190000D02*
X146050000Y-132588000D01*
X96012000Y-139446000D02*
X95313500Y-139446000D01*
X99060000Y-127000000D02*
X99060000Y-129540000D01*
X137160000Y-129540000D02*
X137160000Y-142240000D01*
X123253500Y-133731000D02*
X123952000Y-133731000D01*
X151130000Y-125730000D02*
X148590000Y-125730000D01*
X123253500Y-139446000D02*
X123952000Y-139446000D01*
X151130000Y-136017000D02*
X151130000Y-137160000D01*
X76200000Y-129540000D02*
X77470000Y-130810000D01*
X138493500Y-137160000D02*
X139192000Y-137160000D01*
X93472000Y-132588000D02*
X92773500Y-132588000D01*
X99060000Y-129540000D02*
X99060000Y-142240000D01*
X133413500Y-136017000D02*
X134112000Y-136017000D01*
X134620000Y-129540000D02*
X134620000Y-142240000D01*
X86360000Y-124460000D02*
X86360000Y-121920000D01*
X141033500Y-131445000D02*
X141732000Y-131445000D01*
X104140000Y-129540000D02*
X104140000Y-142240000D01*
X141033500Y-138303000D02*
X141732000Y-138303000D01*
X86360000Y-129540000D02*
X86360000Y-127000000D01*
X76200000Y-132080000D02*
X77470000Y-133350000D01*
X152400000Y-127000000D02*
X151130000Y-128270000D01*
X130873500Y-134874000D02*
X131572000Y-134874000D01*
X123253500Y-137160000D02*
X123952000Y-137160000D01*
X138493500Y-136017000D02*
X139192000Y-136017000D01*
X127000000Y-127000000D02*
X127000000Y-129540000D01*
X143573500Y-131445000D02*
X144272000Y-131445000D01*
X130873500Y-137160000D02*
X131572000Y-137160000D01*
X98552000Y-137160000D02*
X97853500Y-137160000D01*
X90932000Y-137160000D02*
X90233500Y-137160000D01*
X90932000Y-134874000D02*
X90233500Y-134874000D01*
X88392000Y-132588000D02*
X87693500Y-132588000D01*
X96012000Y-131445000D02*
X95313500Y-131445000D01*
X134620000Y-127000000D02*
X134620000Y-129540000D01*
X80010000Y-130810000D02*
X80010000Y-137160000D01*
X130873500Y-136017000D02*
X131572000Y-136017000D01*
X125793500Y-136017000D02*
X126492000Y-136017000D01*
X130873500Y-138303000D02*
X131572000Y-138303000D01*
X93472000Y-131445000D02*
X92773500Y-131445000D01*
X77470000Y-130810000D02*
X80010000Y-130810000D01*
X144780000Y-121920000D02*
X144780000Y-124460000D01*
X135953500Y-133731000D02*
X136652000Y-133731000D01*
X148590000Y-125730000D02*
X148590000Y-134874000D01*
X138493500Y-133731000D02*
X139192000Y-133731000D01*
X127000000Y-121920000D02*
X127000000Y-124460000D01*
X141033500Y-137160000D02*
X141732000Y-137160000D01*
X93980000Y-129540000D02*
X93980000Y-142240000D01*
X103632000Y-137160000D02*
X102933500Y-137160000D01*
X133413500Y-137160000D02*
X134112000Y-137160000D01*
X133413500Y-139446000D02*
X134112000Y-139446000D01*
X143573500Y-137160000D02*
X144272000Y-137160000D01*
X139700000Y-127000000D02*
X139700000Y-129540000D01*
X139700000Y-129540000D02*
X139700000Y-142240000D01*
X133413500Y-131445000D02*
X134112000Y-131445000D01*
X77470000Y-125730000D02*
X77724000Y-125730000D01*
X135953500Y-131445000D02*
X136652000Y-131445000D01*
X103632000Y-138303000D02*
X102933500Y-138303000D01*
X93472000Y-138303000D02*
X92773500Y-138303000D01*
X138493500Y-134874000D02*
X139192000Y-134874000D01*
X96012000Y-132588000D02*
X95313500Y-132588000D01*
X135953500Y-134874000D02*
X136652000Y-134874000D01*
X143573500Y-138303000D02*
X144272000Y-138303000D01*
X98552000Y-136017000D02*
X97853500Y-136017000D01*
X141033500Y-139446000D02*
X141732000Y-139446000D01*
X143573500Y-134874000D02*
X144272000Y-134874000D01*
X124460000Y-127000000D02*
X124460000Y-129540000D01*
X152400000Y-124460000D02*
X151130000Y-125730000D01*
X90932000Y-131445000D02*
X90233500Y-131445000D01*
X82550000Y-125730000D02*
X82550000Y-132588000D01*
X141033500Y-133731000D02*
X141732000Y-133731000D01*
X133413500Y-134874000D02*
X134112000Y-134874000D01*
X104140000Y-121920000D02*
X104140000Y-124460000D01*
X101600000Y-127000000D02*
X101600000Y-129540000D01*
X77470000Y-128270000D02*
X81280000Y-128270000D01*
X88392000Y-131445000D02*
X87693500Y-131445000D01*
X96012000Y-134874000D02*
X95313500Y-134874000D01*
X132080000Y-127000000D02*
X132080000Y-129540000D01*
X133413500Y-133731000D02*
X134112000Y-133731000D01*
X101600000Y-129540000D02*
X101600000Y-142240000D01*
X133413500Y-132588000D02*
X134112000Y-132588000D01*
X144780000Y-129540000D02*
X144780000Y-142240000D01*
X96520000Y-129540000D02*
X96520000Y-142240000D01*
X144780000Y-124460000D02*
X144780000Y-127000000D01*
X103632000Y-134874000D02*
X102933500Y-134874000D01*
X93472000Y-139446000D02*
X92773500Y-139446000D01*
X123253500Y-136017000D02*
X123952000Y-136017000D01*
X98552000Y-139446000D02*
X97853500Y-139446000D01*
X130873500Y-132588000D02*
X131572000Y-132588000D01*
X88392000Y-139446000D02*
X87693500Y-139446000D01*
X129540000Y-127000000D02*
X129540000Y-129540000D01*
X123952000Y-132588000D02*
X123253500Y-132588000D01*
X98552000Y-132588000D02*
X97853500Y-132588000D01*
X98552000Y-134874000D02*
X97853500Y-134874000D01*
X130873500Y-131445000D02*
X131572000Y-131445000D01*
X142240000Y-129540000D02*
X142240000Y-142240000D01*
X101092000Y-131445000D02*
X100393500Y-131445000D01*
X88392000Y-138303000D02*
X87693500Y-138303000D01*
X133413500Y-138303000D02*
X134112000Y-138303000D01*
X152400000Y-121920000D02*
X151130000Y-123190000D01*
X125793500Y-133731000D02*
X126492000Y-133731000D01*
X141033500Y-136017000D02*
X141732000Y-136017000D01*
X135953500Y-132588000D02*
X136652000Y-132588000D01*
X88392000Y-136017000D02*
X87693500Y-136017000D01*
X124460000Y-129540000D02*
X124460000Y-142240000D01*
X96012000Y-138303000D02*
X95313500Y-138303000D01*
%TD*%
M02*
