%TF.GenerationSoftware,KiCad,Pcbnew,8.0.2-8.0.2-0~ubuntu22.04.1*%
%TF.CreationDate,2024-05-24T18:22:59+02:00*%
%TF.ProjectId,flipper-debug-devboard,666c6970-7065-4722-9d64-656275672d64,rev?*%
%TF.SameCoordinates,Original*%
%TF.FileFunction,Soldermask,Bot*%
%TF.FilePolarity,Negative*%
%FSLAX46Y46*%
G04 Gerber Fmt 4.6, Leading zero omitted, Abs format (unit mm)*
G04 Created by KiCad (PCBNEW 8.0.2-8.0.2-0~ubuntu22.04.1) date 2024-05-24 18:22:59*
%MOMM*%
%LPD*%
G01*
G04 APERTURE LIST*
G04 Aperture macros list*
%AMRoundRect*
0 Rectangle with rounded corners*
0 $1 Rounding radius*
0 $2 $3 $4 $5 $6 $7 $8 $9 X,Y pos of 4 corners*
0 Add a 4 corners polygon primitive as box body*
4,1,4,$2,$3,$4,$5,$6,$7,$8,$9,$2,$3,0*
0 Add four circle primitives for the rounded corners*
1,1,$1+$1,$2,$3*
1,1,$1+$1,$4,$5*
1,1,$1+$1,$6,$7*
1,1,$1+$1,$8,$9*
0 Add four rect primitives between the rounded corners*
20,1,$1+$1,$2,$3,$4,$5,0*
20,1,$1+$1,$4,$5,$6,$7,0*
20,1,$1+$1,$6,$7,$8,$9,0*
20,1,$1+$1,$8,$9,$2,$3,0*%
G04 Aperture macros list end*
%ADD10C,1.500000*%
%ADD11RoundRect,0.250000X-0.600000X-0.600000X0.600000X-0.600000X0.600000X0.600000X-0.600000X0.600000X0*%
%ADD12C,1.700000*%
%ADD13O,1.700000X1.700000*%
G04 APERTURE END LIST*
D10*
%TO.C,*%
X149860000Y-104140000D03*
%TD*%
%TO.C,*%
X124460000Y-104140000D03*
%TD*%
%TO.C,*%
X101600000Y-104140000D03*
%TD*%
%TO.C,*%
X142240000Y-104140000D03*
%TD*%
%TO.C,*%
X106680000Y-104140000D03*
%TD*%
%TO.C,*%
X104140000Y-104140000D03*
%TD*%
%TO.C,*%
X73660000Y-104140000D03*
%TD*%
%TO.C,*%
X139700000Y-104140000D03*
%TD*%
%TO.C,*%
X144780000Y-104140000D03*
%TD*%
%TO.C,*%
X127000000Y-104140000D03*
%TD*%
%TO.C,*%
X76200000Y-104140000D03*
%TD*%
%TO.C,*%
X88900000Y-104140000D03*
%TD*%
%TO.C,*%
X99060000Y-104140000D03*
%TD*%
%TO.C,*%
X147320000Y-104140000D03*
%TD*%
%TO.C,*%
X86360000Y-104140000D03*
%TD*%
%TO.C,*%
X132080000Y-104140000D03*
%TD*%
%TO.C,*%
X83820000Y-104140000D03*
%TD*%
%TO.C,*%
X116840000Y-104140000D03*
%TD*%
%TO.C,*%
X93980000Y-104140000D03*
%TD*%
%TO.C,*%
X96520000Y-104140000D03*
%TD*%
%TO.C,*%
X91440000Y-104140000D03*
%TD*%
%TO.C,*%
X134620000Y-104140000D03*
%TD*%
%TO.C,*%
X71120000Y-104140000D03*
%TD*%
%TO.C,*%
X119380000Y-104140000D03*
%TD*%
%TO.C,*%
X81280000Y-104140000D03*
%TD*%
%TO.C,*%
X78740000Y-104140000D03*
%TD*%
%TO.C,*%
X109220000Y-104140000D03*
%TD*%
%TO.C,*%
X137160000Y-104140000D03*
%TD*%
%TO.C,*%
X114300000Y-104140000D03*
%TD*%
%TO.C,*%
X111760000Y-104140000D03*
%TD*%
%TO.C,*%
X152400000Y-104140000D03*
%TD*%
%TO.C,*%
X129540000Y-104140000D03*
%TD*%
%TO.C,*%
X121920000Y-104140000D03*
%TD*%
%TO.C,*%
X149860000Y-106680000D03*
%TD*%
%TO.C,*%
X124460000Y-106680000D03*
%TD*%
%TO.C,*%
X101600000Y-106680000D03*
%TD*%
%TO.C,*%
X142240000Y-106680000D03*
%TD*%
%TO.C,*%
X106680000Y-106680000D03*
%TD*%
%TO.C,*%
X104140000Y-106680000D03*
%TD*%
%TO.C,*%
X73660000Y-106680000D03*
%TD*%
%TO.C,*%
X139700000Y-106680000D03*
%TD*%
%TO.C,*%
X144780000Y-106680000D03*
%TD*%
%TO.C,*%
X127000000Y-106680000D03*
%TD*%
%TO.C,*%
X76200000Y-106680000D03*
%TD*%
%TO.C,*%
X88900000Y-106680000D03*
%TD*%
%TO.C,*%
X99060000Y-106680000D03*
%TD*%
%TO.C,*%
X147320000Y-106680000D03*
%TD*%
%TO.C,*%
X86360000Y-106680000D03*
%TD*%
%TO.C,*%
X132080000Y-106680000D03*
%TD*%
%TO.C,*%
X83820000Y-106680000D03*
%TD*%
%TO.C,*%
X116840000Y-106680000D03*
%TD*%
%TO.C,*%
X93980000Y-106680000D03*
%TD*%
%TO.C,*%
X96520000Y-106680000D03*
%TD*%
%TO.C,*%
X91440000Y-106680000D03*
%TD*%
%TO.C,*%
X134620000Y-106680000D03*
%TD*%
%TO.C,*%
X71120000Y-106680000D03*
%TD*%
%TO.C,*%
X119380000Y-106680000D03*
%TD*%
%TO.C,*%
X81280000Y-106680000D03*
%TD*%
%TO.C,*%
X78740000Y-106680000D03*
%TD*%
%TO.C,*%
X109220000Y-106680000D03*
%TD*%
%TO.C,*%
X137160000Y-106680000D03*
%TD*%
%TO.C,*%
X114300000Y-106680000D03*
%TD*%
%TO.C,*%
X111760000Y-106680000D03*
%TD*%
%TO.C,*%
X152400000Y-106680000D03*
%TD*%
%TO.C,*%
X129540000Y-106680000D03*
%TD*%
%TO.C,*%
X121920000Y-106680000D03*
%TD*%
%TO.C,*%
X139700000Y-111760000D03*
%TD*%
%TO.C,*%
X86360000Y-121920000D03*
%TD*%
%TO.C,*%
X142240000Y-116840000D03*
%TD*%
%TO.C,*%
X88900000Y-121920000D03*
%TD*%
%TO.C,*%
X134620000Y-111760000D03*
%TD*%
%TO.C,*%
X114300000Y-119380000D03*
%TD*%
%TO.C,*%
X149860000Y-124460000D03*
%TD*%
%TO.C,*%
X139700000Y-116840000D03*
%TD*%
%TO.C,*%
X111760000Y-121920000D03*
%TD*%
%TO.C,*%
X129540000Y-116840000D03*
%TD*%
%TO.C,*%
X152400000Y-109220000D03*
%TD*%
%TO.C,*%
X142240000Y-127000000D03*
%TD*%
%TO.C,*%
X124460000Y-114300000D03*
%TD*%
%TO.C,*%
X114300000Y-116840000D03*
%TD*%
%TO.C,*%
X142240000Y-124460000D03*
%TD*%
%TO.C,*%
X119380000Y-119380000D03*
%TD*%
%TO.C,*%
X149839316Y-121912195D03*
%TD*%
%TO.C,*%
X109220000Y-119380000D03*
%TD*%
%TO.C,*%
X152400000Y-121920000D03*
%TD*%
%TO.C,*%
X132080000Y-121920000D03*
%TD*%
%TO.C,*%
X93980000Y-119380000D03*
%TD*%
%TO.C,*%
X76200000Y-111760000D03*
%TD*%
%TO.C,*%
X149860000Y-129540000D03*
%TD*%
%TO.C,*%
X88900000Y-124460000D03*
%TD*%
%TO.C,*%
X93980000Y-127000000D03*
%TD*%
%TO.C,*%
X91440000Y-124460000D03*
%TD*%
%TO.C,*%
X88900000Y-129540000D03*
%TD*%
%TO.C,*%
X109220000Y-116840000D03*
%TD*%
%TO.C,*%
X114300000Y-121920000D03*
%TD*%
%TO.C,*%
X93980000Y-116840000D03*
%TD*%
%TO.C,*%
X147320000Y-116840000D03*
%TD*%
%TO.C,*%
X129540000Y-109220000D03*
%TD*%
%TO.C,*%
X111760000Y-124460000D03*
%TD*%
D11*
%TO.C,REF1*%
X73660000Y-124460000D03*
D12*
X76200000Y-124460000D03*
X73660000Y-127000000D03*
X76200000Y-127000000D03*
X73660000Y-129540000D03*
X76200000Y-129540000D03*
X73660000Y-132080000D03*
X76200000Y-132080000D03*
X73660000Y-134620000D03*
X76200000Y-134620000D03*
%TD*%
D10*
%TO.C,*%
X139700000Y-114300000D03*
%TD*%
%TO.C,*%
X106680000Y-114300000D03*
%TD*%
%TO.C,*%
X134620000Y-129540000D03*
%TD*%
%TO.C,*%
X111760000Y-116840000D03*
%TD*%
%TO.C,*%
X121920000Y-109220000D03*
%TD*%
%TO.C,*%
X106680000Y-124460000D03*
%TD*%
%TO.C,*%
X121920000Y-116840000D03*
%TD*%
%TO.C,*%
X111760000Y-109220000D03*
%TD*%
%TO.C,*%
X144780000Y-121920000D03*
%TD*%
%TO.C,*%
X114300000Y-109220000D03*
%TD*%
%TO.C,*%
X142240000Y-129540000D03*
%TD*%
%TO.C,*%
X124460000Y-127000000D03*
%TD*%
%TO.C,*%
X104140000Y-121920000D03*
%TD*%
%TO.C,*%
X73660000Y-116840000D03*
%TD*%
%TO.C,*%
X144780000Y-119380000D03*
%TD*%
%TO.C,*%
X137160000Y-109220000D03*
%TD*%
%TO.C,*%
X139700000Y-121920000D03*
%TD*%
%TO.C,*%
X106680000Y-121920000D03*
%TD*%
%TO.C,*%
X88900000Y-119380000D03*
%TD*%
%TO.C,*%
X83820000Y-119380000D03*
%TD*%
%TO.C,*%
X104140000Y-116840000D03*
%TD*%
%TO.C,*%
X121920000Y-124460000D03*
%TD*%
%TO.C,*%
X119380000Y-127000000D03*
%TD*%
%TO.C,*%
X116840000Y-127000000D03*
%TD*%
%TO.C,*%
X93980000Y-114300000D03*
%TD*%
%TO.C,*%
X71120000Y-116840000D03*
%TD*%
%TO.C,*%
X83820000Y-121920000D03*
%TD*%
%TO.C,*%
X139700000Y-119380000D03*
%TD*%
%TO.C,*%
X114300000Y-124460000D03*
%TD*%
%TO.C,*%
X144780000Y-111760000D03*
%TD*%
%TO.C,*%
X101600000Y-127000000D03*
%TD*%
%TO.C,*%
X124460000Y-111760000D03*
%TD*%
%TO.C,*%
X114300000Y-127000000D03*
%TD*%
%TO.C,*%
X109220000Y-109220000D03*
%TD*%
%TO.C,*%
X134620000Y-124460000D03*
%TD*%
%TO.C,*%
X142240000Y-121920000D03*
%TD*%
%TO.C,*%
X104140000Y-111760000D03*
%TD*%
%TO.C,*%
X96520000Y-127000000D03*
%TD*%
%TO.C,*%
X132080000Y-114300000D03*
%TD*%
%TO.C,*%
X116840000Y-124460000D03*
%TD*%
%TO.C,*%
X137160000Y-129540000D03*
%TD*%
%TO.C,*%
X96520000Y-114300000D03*
%TD*%
%TO.C,*%
X88900000Y-127000000D03*
%TD*%
%TO.C,*%
X86360000Y-114300000D03*
%TD*%
%TO.C,*%
X147320000Y-111760000D03*
%TD*%
%TO.C,*%
X137160000Y-114300000D03*
%TD*%
%TO.C,*%
X83820000Y-124460000D03*
%TD*%
%TO.C,*%
X129540000Y-129540000D03*
%TD*%
%TO.C,*%
X86360000Y-127000000D03*
%TD*%
%TO.C,*%
X137160000Y-121920000D03*
%TD*%
%TO.C,*%
X132080000Y-119380000D03*
%TD*%
%TO.C,*%
X147320000Y-114300000D03*
%TD*%
%TO.C,*%
X144780000Y-114300000D03*
%TD*%
%TO.C,*%
X119380000Y-121920000D03*
%TD*%
%TO.C,*%
X78740000Y-109220000D03*
%TD*%
%TO.C,*%
X101600000Y-129540000D03*
%TD*%
%TO.C,*%
X96520000Y-129540000D03*
%TD*%
%TO.C,*%
X119380000Y-111760000D03*
%TD*%
%TO.C,*%
X111760000Y-114300000D03*
%TD*%
%TO.C,*%
X132080000Y-127000000D03*
%TD*%
%TO.C,*%
X81280000Y-109220000D03*
%TD*%
%TO.C,*%
X119380000Y-109220000D03*
%TD*%
%TO.C,*%
X71120000Y-109220000D03*
%TD*%
%TO.C,*%
X86360000Y-119380000D03*
%TD*%
%TO.C,*%
X81280000Y-116840000D03*
%TD*%
%TO.C,*%
X134620000Y-109220000D03*
%TD*%
%TO.C,*%
X71095966Y-111688191D03*
%TD*%
%TO.C,*%
X104140000Y-119380000D03*
%TD*%
%TO.C,*%
X152400000Y-124460000D03*
%TD*%
%TO.C,*%
X116840000Y-119380000D03*
%TD*%
%TO.C,*%
X142240000Y-111760000D03*
%TD*%
%TO.C,*%
X127000000Y-114300000D03*
%TD*%
%TO.C,*%
X71120000Y-114300000D03*
%TD*%
%TO.C,*%
X91440000Y-111760000D03*
%TD*%
%TO.C,*%
X73660000Y-114300000D03*
%TD*%
%TO.C,*%
X127000000Y-124460000D03*
%TD*%
%TO.C,*%
X116840000Y-121920000D03*
%TD*%
%TO.C,*%
X91440000Y-109220000D03*
%TD*%
%TO.C,*%
X134620000Y-121920000D03*
%TD*%
%TO.C,*%
X116840000Y-111760000D03*
%TD*%
%TO.C,*%
X101600000Y-124460000D03*
%TD*%
%TO.C,*%
X137160000Y-111760000D03*
%TD*%
%TO.C,*%
X127000000Y-116840000D03*
%TD*%
%TO.C,*%
X106680000Y-116840000D03*
%TD*%
%TO.C,*%
X127000000Y-127000000D03*
%TD*%
%TO.C,*%
X96520000Y-109220000D03*
%TD*%
%TO.C,*%
X127000000Y-129540000D03*
%TD*%
%TO.C,*%
X137160000Y-127000000D03*
%TD*%
%TO.C,*%
X78740000Y-116840000D03*
%TD*%
%TO.C,*%
X139700000Y-129540000D03*
%TD*%
%TO.C,*%
X99060000Y-124460000D03*
%TD*%
%TO.C,*%
X124460000Y-119380000D03*
%TD*%
%TO.C,*%
X147320000Y-119380000D03*
%TD*%
%TO.C,*%
X144780000Y-129540000D03*
%TD*%
%TO.C,*%
X119380000Y-116840000D03*
%TD*%
%TO.C,*%
X116840000Y-114300000D03*
%TD*%
%TO.C,*%
X129540000Y-127000000D03*
%TD*%
%TO.C,*%
X91440000Y-119380000D03*
%TD*%
%TO.C,*%
X147320000Y-129540000D03*
%TD*%
%TO.C,*%
X116840000Y-116840000D03*
%TD*%
%TO.C,*%
X132080000Y-129540000D03*
%TD*%
%TO.C,*%
X83820000Y-116840000D03*
%TD*%
%TO.C,*%
X93980000Y-109220000D03*
%TD*%
%TO.C,*%
X81280000Y-124460000D03*
%TD*%
%TO.C,*%
X101600000Y-119380000D03*
%TD*%
%TO.C,*%
X127000000Y-111760000D03*
%TD*%
%TO.C,*%
X121920000Y-119380000D03*
%TD*%
%TO.C,*%
X116840000Y-109220000D03*
%TD*%
%TO.C,*%
X81280000Y-111760000D03*
%TD*%
%TO.C,*%
X86360000Y-129540000D03*
%TD*%
%TO.C,*%
X83820000Y-114300000D03*
%TD*%
%TO.C,*%
X99060000Y-119380000D03*
%TD*%
%TO.C,*%
X109220000Y-121920000D03*
%TD*%
%TO.C,*%
X129540000Y-119380000D03*
%TD*%
%TO.C,*%
X83820000Y-109220000D03*
%TD*%
%TO.C,*%
X129540000Y-114300000D03*
%TD*%
%TO.C,*%
X132080000Y-109220000D03*
%TD*%
%TO.C,*%
X83820000Y-127000000D03*
%TD*%
%TO.C,*%
X91440000Y-127000000D03*
%TD*%
%TO.C,*%
X99060000Y-111760000D03*
%TD*%
%TO.C,*%
X96520000Y-116840000D03*
%TD*%
%TO.C,*%
X101600000Y-121920000D03*
%TD*%
%TO.C,*%
X93980000Y-129540000D03*
%TD*%
%TO.C,*%
X86360000Y-109220000D03*
%TD*%
%TO.C,*%
X101600000Y-114300000D03*
%TD*%
%TO.C,*%
X96520000Y-121920000D03*
%TD*%
%TO.C,*%
X83820000Y-111760000D03*
%TD*%
%TO.C,*%
X88900000Y-111760000D03*
%TD*%
%TO.C,*%
X121920000Y-121920000D03*
%TD*%
%TO.C,*%
X124460000Y-121920000D03*
%TD*%
%TO.C,*%
X147320000Y-109220000D03*
%TD*%
%TO.C,*%
X91440000Y-129540000D03*
%TD*%
%TO.C,*%
X124460000Y-124460000D03*
%TD*%
%TO.C,*%
X99060000Y-109220000D03*
%TD*%
%TO.C,*%
X114300000Y-111760000D03*
%TD*%
%TO.C,*%
X121920000Y-127000000D03*
%TD*%
%TO.C,*%
X104140000Y-129540000D03*
%TD*%
%TO.C,*%
X81280000Y-127000000D03*
%TD*%
%TO.C,*%
X88900000Y-109220000D03*
%TD*%
%TO.C,*%
X129540000Y-124460000D03*
%TD*%
%TO.C,*%
X114300000Y-114300000D03*
%TD*%
%TO.C,*%
X93980000Y-111760000D03*
%TD*%
%TO.C,*%
X86360000Y-124460000D03*
%TD*%
%TO.C,*%
X144780000Y-127000000D03*
%TD*%
%TO.C,*%
X76200000Y-109220000D03*
%TD*%
%TO.C,*%
X142240000Y-114300000D03*
%TD*%
%TO.C,*%
X132080000Y-116840000D03*
%TD*%
%TO.C,*%
X109220000Y-111760000D03*
%TD*%
%TO.C,*%
X142240000Y-119380000D03*
%TD*%
%TO.C,*%
X144780000Y-124460000D03*
%TD*%
%TO.C,*%
X91440000Y-116840000D03*
%TD*%
%TO.C,*%
X121920000Y-129540000D03*
%TD*%
%TO.C,*%
X99060000Y-114300000D03*
%TD*%
%TO.C,*%
X152400000Y-127000000D03*
%TD*%
%TO.C,*%
X129540000Y-111760000D03*
%TD*%
%TO.C,*%
X96520000Y-124460000D03*
%TD*%
%TO.C,*%
X93980000Y-124460000D03*
%TD*%
%TO.C,*%
X127000000Y-109220000D03*
%TD*%
%TO.C,*%
X147320000Y-121920000D03*
%TD*%
%TO.C,*%
X73660000Y-111760000D03*
%TD*%
%TO.C,*%
X106680000Y-127000000D03*
%TD*%
%TO.C,*%
X91440000Y-114300000D03*
%TD*%
%TO.C,*%
X144780000Y-109220000D03*
%TD*%
%TO.C,*%
X134620000Y-116840000D03*
%TD*%
%TO.C,*%
X137160000Y-116840000D03*
%TD*%
%TO.C,*%
X101600000Y-116840000D03*
%TD*%
%TO.C,*%
X99060000Y-129540000D03*
%TD*%
%TO.C,*%
X147320000Y-124460000D03*
%TD*%
%TO.C,*%
X76200000Y-114300000D03*
%TD*%
%TO.C,*%
X83820000Y-129540000D03*
%TD*%
%TO.C,*%
X109220000Y-124460000D03*
%TD*%
%TO.C,*%
X139700000Y-109220000D03*
%TD*%
%TO.C,*%
X139700000Y-127000000D03*
%TD*%
%TO.C,*%
X132080000Y-111760000D03*
%TD*%
%TO.C,*%
X99060000Y-121920000D03*
%TD*%
%TO.C,*%
X73660000Y-109220000D03*
%TD*%
%TO.C,*%
X137160000Y-119380000D03*
%TD*%
%TO.C,*%
X88900000Y-116840000D03*
%TD*%
%TO.C,*%
X119380000Y-124460000D03*
%TD*%
%TO.C,*%
X139700000Y-124460000D03*
%TD*%
%TO.C,*%
X132080000Y-124460000D03*
%TD*%
%TO.C,*%
X78740000Y-111760000D03*
%TD*%
%TO.C,*%
X137160000Y-124460000D03*
%TD*%
%TO.C,*%
X104140000Y-109220000D03*
%TD*%
%TO.C,*%
X106680000Y-119380000D03*
%TD*%
%TO.C,*%
X86360000Y-116840000D03*
%TD*%
%TO.C,*%
X96520000Y-119380000D03*
%TD*%
%TO.C,*%
X121920000Y-114300000D03*
%TD*%
%TO.C,*%
X81280000Y-114300000D03*
%TD*%
%TO.C,*%
X106680000Y-109220000D03*
%TD*%
%TO.C,*%
X109220000Y-114300000D03*
%TD*%
%TO.C,*%
X129540000Y-121920000D03*
%TD*%
%TO.C,*%
X111760000Y-119380000D03*
%TD*%
%TO.C,*%
X104140000Y-127000000D03*
%TD*%
%TO.C,*%
X88900000Y-114300000D03*
%TD*%
%TO.C,*%
X142240000Y-109220000D03*
%TD*%
%TO.C,*%
X152400000Y-129540000D03*
%TD*%
%TO.C,*%
X109220000Y-127000000D03*
%TD*%
%TO.C,*%
X99060000Y-116840000D03*
%TD*%
%TO.C,*%
X134620000Y-119380000D03*
%TD*%
%TO.C,*%
X101600000Y-109220000D03*
%TD*%
%TO.C,*%
X81280000Y-121920000D03*
%TD*%
%TO.C,*%
X91440000Y-121920000D03*
%TD*%
%TO.C,*%
X134620000Y-127000000D03*
%TD*%
%TO.C,*%
X93980000Y-121920000D03*
%TD*%
%TO.C,*%
X127000000Y-121920000D03*
%TD*%
%TO.C,*%
X147320000Y-127000000D03*
%TD*%
%TO.C,*%
X119380000Y-114300000D03*
%TD*%
%TO.C,*%
X111760000Y-111760000D03*
%TD*%
%TO.C,*%
X78740000Y-114300000D03*
%TD*%
%TO.C,*%
X104140000Y-114300000D03*
%TD*%
%TO.C,*%
X124460000Y-109220000D03*
%TD*%
%TO.C,*%
X127000000Y-119380000D03*
%TD*%
%TO.C,*%
X134620000Y-114300000D03*
%TD*%
%TO.C,*%
X144780000Y-116840000D03*
%TD*%
%TO.C,*%
X149860000Y-109220000D03*
%TD*%
%TO.C,*%
X76200000Y-116840000D03*
%TD*%
%TO.C,*%
X104140000Y-124460000D03*
%TD*%
%TO.C,*%
X101600000Y-111760000D03*
%TD*%
%TO.C,*%
X96520000Y-111760000D03*
%TD*%
%TO.C,*%
X124460000Y-129540000D03*
%TD*%
%TO.C,*%
X86360000Y-111760000D03*
%TD*%
%TO.C,*%
X81280000Y-119380000D03*
%TD*%
%TO.C,*%
X99060000Y-127000000D03*
%TD*%
%TO.C,*%
X149860000Y-127000000D03*
%TD*%
%TO.C,*%
X124460000Y-116840000D03*
%TD*%
%TO.C,*%
X121920000Y-111760000D03*
%TD*%
%TO.C,*%
X106680000Y-111760000D03*
%TD*%
%TO.C,*%
X111760000Y-127000000D03*
%TD*%
D13*
%TO.C,REF3*%
X121920000Y-142240000D03*
X124460000Y-142240000D03*
X127000000Y-142240000D03*
X129540000Y-142240000D03*
X132080000Y-142240000D03*
X134620000Y-142240000D03*
X137160000Y-142240000D03*
X139700000Y-142240000D03*
X142240000Y-142240000D03*
X144780000Y-142240000D03*
%TD*%
D12*
%TO.C,REF2*%
X86360000Y-142240000D03*
D13*
X88900000Y-142240000D03*
X91440000Y-142240000D03*
X93980000Y-142240000D03*
X96520000Y-142240000D03*
X99060000Y-142240000D03*
X101600000Y-142240000D03*
X104140000Y-142240000D03*
%TD*%
M02*
