M48
; DRILL file {KiCad 8.0.2-8.0.2-0~ubuntu22.04.1} date 2024-05-24T18:21:20+0200
; FORMAT={-:-/ absolute / inch / decimal}
; #@! TF.CreationDate,2024-05-24T18:21:20+02:00
; #@! TF.GenerationSoftware,Kicad,Pcbnew,8.0.2-8.0.2-0~ubuntu22.04.1
; #@! TF.FileFunction,Plated,1,2,PTH
FMAT,2
INCH
; #@! TA.AperFunction,Plated,PTH,ViaDrill
T1C0.0118
; #@! TA.AperFunction,Plated,PTH,ComponentDrill
T2C0.0394
%
G90
G05
T1
X3.1Y-5.49
X3.15Y-5.4
X3.2Y-5.31
X3.25Y-5.22
X3.48Y-5.175
X3.48Y-5.22
X3.48Y-5.265
X3.48Y-5.31
X3.48Y-5.355
X3.48Y-5.4
X3.48Y-5.445
X3.48Y-5.49
X3.58Y-5.175
X3.58Y-5.22
X3.58Y-5.265
X3.58Y-5.31
X3.58Y-5.355
X3.58Y-5.4
X3.58Y-5.445
X3.58Y-5.49
X3.68Y-5.175
X3.68Y-5.22
X3.68Y-5.265
X3.68Y-5.31
X3.68Y-5.355
X3.68Y-5.4
X3.68Y-5.445
X3.68Y-5.49
X3.78Y-5.175
X3.78Y-5.22
X3.78Y-5.265
X3.78Y-5.31
X3.78Y-5.355
X3.78Y-5.4
X3.78Y-5.445
X3.78Y-5.49
X3.88Y-5.175
X3.88Y-5.22
X3.88Y-5.265
X3.88Y-5.31
X3.88Y-5.355
X3.88Y-5.4
X3.88Y-5.445
X3.88Y-5.49
X3.98Y-5.175
X3.98Y-5.22
X3.98Y-5.265
X3.98Y-5.31
X3.98Y-5.355
X3.98Y-5.4
X3.98Y-5.445
X3.98Y-5.49
X4.08Y-5.175
X4.08Y-5.22
X4.08Y-5.265
X4.08Y-5.31
X4.08Y-5.355
X4.08Y-5.4
X4.08Y-5.445
X4.08Y-5.49
X4.88Y-5.175
X4.88Y-5.22
X4.88Y-5.265
X4.88Y-5.31
X4.88Y-5.355
X4.88Y-5.4
X4.88Y-5.445
X4.88Y-5.49
X4.98Y-5.175
X4.98Y-5.22
X4.98Y-5.265
X4.98Y-5.31
X4.98Y-5.355
X4.98Y-5.4
X4.98Y-5.445
X4.98Y-5.49
X5.18Y-5.175
X5.18Y-5.22
X5.18Y-5.265
X5.18Y-5.31
X5.18Y-5.355
X5.18Y-5.4
X5.18Y-5.445
X5.18Y-5.49
X5.28Y-5.175
X5.28Y-5.22
X5.28Y-5.265
X5.28Y-5.31
X5.28Y-5.355
X5.28Y-5.4
X5.28Y-5.445
X5.28Y-5.49
X5.38Y-5.175
X5.38Y-5.22
X5.38Y-5.265
X5.38Y-5.31
X5.38Y-5.355
X5.38Y-5.4
X5.38Y-5.445
X5.38Y-5.49
X5.48Y-5.175
X5.48Y-5.22
X5.48Y-5.265
X5.48Y-5.31
X5.48Y-5.355
X5.48Y-5.4
X5.48Y-5.445
X5.48Y-5.49
X5.58Y-5.175
X5.58Y-5.22
X5.58Y-5.265
X5.58Y-5.31
X5.58Y-5.355
X5.58Y-5.4
X5.58Y-5.445
X5.58Y-5.49
X5.68Y-5.175
X5.68Y-5.22
X5.68Y-5.265
X5.68Y-5.31
X5.68Y-5.355
X5.68Y-5.4
X5.68Y-5.445
X5.68Y-5.49
X5.75Y-5.22
X5.85Y-5.31
X5.9Y-5.445
X5.95Y-5.4
T2
X2.7991Y-4.3972
X2.8Y-4.1
X2.8Y-4.2
X2.8Y-4.3
X2.8Y-4.5
X2.8Y-4.6
X2.9Y-4.1
X2.9Y-4.2
X2.9Y-4.3
X2.9Y-4.4
X2.9Y-4.5
X2.9Y-4.6
X2.9Y-4.9
X2.9Y-5.0
X2.9Y-5.1
X2.9Y-5.2
X2.9Y-5.3
X3.0Y-4.1
X3.0Y-4.2
X3.0Y-4.3
X3.0Y-4.4
X3.0Y-4.5
X3.0Y-4.6
X3.0Y-4.9
X3.0Y-5.0
X3.0Y-5.1
X3.0Y-5.2
X3.0Y-5.3
X3.1Y-4.1
X3.1Y-4.2
X3.1Y-4.3
X3.1Y-4.4
X3.1Y-4.5
X3.1Y-4.6
X3.2Y-4.1
X3.2Y-4.2
X3.2Y-4.3
X3.2Y-4.4
X3.2Y-4.5
X3.2Y-4.6
X3.2Y-4.7
X3.2Y-4.8
X3.2Y-4.9
X3.2Y-5.0
X3.3Y-4.1
X3.3Y-4.2
X3.3Y-4.3
X3.3Y-4.4
X3.3Y-4.5
X3.3Y-4.6
X3.3Y-4.7
X3.3Y-4.8
X3.3Y-4.9
X3.3Y-5.0
X3.3Y-5.1
X3.4Y-4.1
X3.4Y-4.2
X3.4Y-4.3
X3.4Y-4.4
X3.4Y-4.5
X3.4Y-4.6
X3.4Y-4.7
X3.4Y-4.8
X3.4Y-4.9
X3.4Y-5.0
X3.4Y-5.1
X3.4Y-5.6
X3.5Y-4.1
X3.5Y-4.2
X3.5Y-4.3
X3.5Y-4.4
X3.5Y-4.5
X3.5Y-4.6
X3.5Y-4.7
X3.5Y-4.8
X3.5Y-4.9
X3.5Y-5.0
X3.5Y-5.1
X3.5Y-5.6
X3.6Y-4.1
X3.6Y-4.2
X3.6Y-4.3
X3.6Y-4.4
X3.6Y-4.5
X3.6Y-4.6
X3.6Y-4.7
X3.6Y-4.8
X3.6Y-4.9
X3.6Y-5.0
X3.6Y-5.1
X3.6Y-5.6
X3.7Y-4.1
X3.7Y-4.2
X3.7Y-4.3
X3.7Y-4.4
X3.7Y-4.5
X3.7Y-4.6
X3.7Y-4.7
X3.7Y-4.8
X3.7Y-4.9
X3.7Y-5.0
X3.7Y-5.1
X3.7Y-5.6
X3.8Y-4.1
X3.8Y-4.2
X3.8Y-4.3
X3.8Y-4.4
X3.8Y-4.5
X3.8Y-4.6
X3.8Y-4.7
X3.8Y-4.8
X3.8Y-4.9
X3.8Y-5.0
X3.8Y-5.1
X3.8Y-5.6
X3.9Y-4.1
X3.9Y-4.2
X3.9Y-4.3
X3.9Y-4.4
X3.9Y-4.5
X3.9Y-4.6
X3.9Y-4.7
X3.9Y-4.8
X3.9Y-4.9
X3.9Y-5.0
X3.9Y-5.1
X3.9Y-5.6
X4.0Y-4.1
X4.0Y-4.2
X4.0Y-4.3
X4.0Y-4.4
X4.0Y-4.5
X4.0Y-4.6
X4.0Y-4.7
X4.0Y-4.8
X4.0Y-4.9
X4.0Y-5.0
X4.0Y-5.1
X4.0Y-5.6
X4.1Y-4.1
X4.1Y-4.2
X4.1Y-4.3
X4.1Y-4.4
X4.1Y-4.5
X4.1Y-4.6
X4.1Y-4.7
X4.1Y-4.8
X4.1Y-4.9
X4.1Y-5.0
X4.1Y-5.1
X4.1Y-5.6
X4.2Y-4.1
X4.2Y-4.2
X4.2Y-4.3
X4.2Y-4.4
X4.2Y-4.5
X4.2Y-4.6
X4.2Y-4.7
X4.2Y-4.8
X4.2Y-4.9
X4.2Y-5.0
X4.3Y-4.1
X4.3Y-4.2
X4.3Y-4.3
X4.3Y-4.4
X4.3Y-4.5
X4.3Y-4.6
X4.3Y-4.7
X4.3Y-4.8
X4.3Y-4.9
X4.3Y-5.0
X4.4Y-4.1
X4.4Y-4.2
X4.4Y-4.3
X4.4Y-4.4
X4.4Y-4.5
X4.4Y-4.6
X4.4Y-4.7
X4.4Y-4.8
X4.4Y-4.9
X4.4Y-5.0
X4.5Y-4.1
X4.5Y-4.2
X4.5Y-4.3
X4.5Y-4.4
X4.5Y-4.5
X4.5Y-4.6
X4.5Y-4.7
X4.5Y-4.8
X4.5Y-4.9
X4.5Y-5.0
X4.6Y-4.1
X4.6Y-4.2
X4.6Y-4.3
X4.6Y-4.4
X4.6Y-4.5
X4.6Y-4.6
X4.6Y-4.7
X4.6Y-4.8
X4.6Y-4.9
X4.6Y-5.0
X4.7Y-4.1
X4.7Y-4.2
X4.7Y-4.3
X4.7Y-4.4
X4.7Y-4.5
X4.7Y-4.6
X4.7Y-4.7
X4.7Y-4.8
X4.7Y-4.9
X4.7Y-5.0
X4.8Y-4.1
X4.8Y-4.2
X4.8Y-4.3
X4.8Y-4.4
X4.8Y-4.5
X4.8Y-4.6
X4.8Y-4.7
X4.8Y-4.8
X4.8Y-4.9
X4.8Y-5.0
X4.8Y-5.1
X4.8Y-5.6
X4.9Y-4.1
X4.9Y-4.2
X4.9Y-4.3
X4.9Y-4.4
X4.9Y-4.5
X4.9Y-4.6
X4.9Y-4.7
X4.9Y-4.8
X4.9Y-4.9
X4.9Y-5.0
X4.9Y-5.1
X4.9Y-5.6
X5.0Y-4.1
X5.0Y-4.2
X5.0Y-4.3
X5.0Y-4.4
X5.0Y-4.5
X5.0Y-4.6
X5.0Y-4.7
X5.0Y-4.8
X5.0Y-4.9
X5.0Y-5.0
X5.0Y-5.1
X5.0Y-5.6
X5.1Y-4.1
X5.1Y-4.2
X5.1Y-4.3
X5.1Y-4.4
X5.1Y-4.5
X5.1Y-4.6
X5.1Y-4.7
X5.1Y-4.8
X5.1Y-4.9
X5.1Y-5.0
X5.1Y-5.1
X5.1Y-5.6
X5.2Y-4.1
X5.2Y-4.2
X5.2Y-4.3
X5.2Y-4.4
X5.2Y-4.5
X5.2Y-4.6
X5.2Y-4.7
X5.2Y-4.8
X5.2Y-4.9
X5.2Y-5.0
X5.2Y-5.1
X5.2Y-5.6
X5.3Y-4.1
X5.3Y-4.2
X5.3Y-4.3
X5.3Y-4.4
X5.3Y-4.5
X5.3Y-4.6
X5.3Y-4.7
X5.3Y-4.8
X5.3Y-4.9
X5.3Y-5.0
X5.3Y-5.1
X5.3Y-5.6
X5.4Y-4.1
X5.4Y-4.2
X5.4Y-4.3
X5.4Y-4.4
X5.4Y-4.5
X5.4Y-4.6
X5.4Y-4.7
X5.4Y-4.8
X5.4Y-4.9
X5.4Y-5.0
X5.4Y-5.1
X5.4Y-5.6
X5.5Y-4.1
X5.5Y-4.2
X5.5Y-4.3
X5.5Y-4.4
X5.5Y-4.5
X5.5Y-4.6
X5.5Y-4.7
X5.5Y-4.8
X5.5Y-4.9
X5.5Y-5.0
X5.5Y-5.1
X5.5Y-5.6
X5.6Y-4.1
X5.6Y-4.2
X5.6Y-4.3
X5.6Y-4.4
X5.6Y-4.5
X5.6Y-4.6
X5.6Y-4.7
X5.6Y-4.8
X5.6Y-4.9
X5.6Y-5.0
X5.6Y-5.1
X5.6Y-5.6
X5.7Y-4.1
X5.7Y-4.2
X5.7Y-4.3
X5.7Y-4.4
X5.7Y-4.5
X5.7Y-4.6
X5.7Y-4.7
X5.7Y-4.8
X5.7Y-4.9
X5.7Y-5.0
X5.7Y-5.1
X5.7Y-5.6
X5.8Y-4.1
X5.8Y-4.2
X5.8Y-4.3
X5.8Y-4.4
X5.8Y-4.5
X5.8Y-4.6
X5.8Y-4.7
X5.8Y-4.8
X5.8Y-4.9
X5.8Y-5.0
X5.8Y-5.1
X5.8992Y-4.7997
X5.9Y-4.1
X5.9Y-4.2
X5.9Y-4.3
X5.9Y-4.9
X5.9Y-5.0
X5.9Y-5.1
X6.0Y-4.1
X6.0Y-4.2
X6.0Y-4.3
X6.0Y-4.8
X6.0Y-4.9
X6.0Y-5.0
X6.0Y-5.1
M30
