%TF.GenerationSoftware,KiCad,Pcbnew,8.0.2-8.0.2-0~ubuntu22.04.1*%
%TF.CreationDate,2024-05-24T18:22:57+02:00*%
%TF.ProjectId,flipper-debug-devboard,666c6970-7065-4722-9d64-656275672d64,rev?*%
%TF.SameCoordinates,Original*%
%TF.FileFunction,Legend,Bot*%
%TF.FilePolarity,Positive*%
%FSLAX46Y46*%
G04 Gerber Fmt 4.6, Leading zero omitted, Abs format (unit mm)*
G04 Created by KiCad (PCBNEW 8.0.2-8.0.2-0~ubuntu22.04.1) date 2024-05-24 18:22:57*
%MOMM*%
%LPD*%
G01*
G04 APERTURE LIST*
%ADD10C,0.155000*%
%ADD11C,0.200000*%
G04 APERTURE END LIST*
D10*
X119380000Y-128270000D02*
X106680000Y-128270000D01*
X119380000Y-140970000D02*
X119380000Y-128270000D01*
X109220000Y-130810000D02*
X107950000Y-132080000D01*
X107950000Y-137160000D01*
X110490000Y-139700000D01*
X118110000Y-139700000D01*
X119380000Y-140970000D01*
X106680000Y-140970000D01*
X106680000Y-128270000D01*
X109220000Y-130810000D01*
G36*
X109220000Y-130810000D02*
G01*
X107950000Y-132080000D01*
X107950000Y-137160000D01*
X110490000Y-139700000D01*
X118110000Y-139700000D01*
X119380000Y-140970000D01*
X106680000Y-140970000D01*
X106680000Y-128270000D01*
X109220000Y-130810000D01*
G37*
X113030000Y-139700000D02*
X118110000Y-139700000D01*
X110490000Y-139700000D02*
X113030000Y-139700000D01*
X107950000Y-137160000D02*
X110490000Y-139700000D01*
X107950000Y-132080000D02*
X107950000Y-137160000D01*
X112395000Y-133985000D02*
X110490000Y-133985000D01*
X110490000Y-132080000D01*
X112395000Y-133985000D01*
G36*
X112395000Y-133985000D02*
G01*
X110490000Y-133985000D01*
X110490000Y-132080000D01*
X112395000Y-133985000D01*
G37*
X118110000Y-139700000D02*
X115570000Y-137160000D01*
X118110000Y-134620000D01*
X118110000Y-139700000D01*
G36*
X118110000Y-139700000D02*
G01*
X115570000Y-137160000D01*
X118110000Y-134620000D01*
X118110000Y-139700000D01*
G37*
X115570000Y-137160000D02*
X113030000Y-139700000D01*
X113030000Y-137160000D01*
X110490000Y-137160000D01*
X110490000Y-135255000D01*
X113665000Y-135255000D01*
X115570000Y-137160000D01*
G36*
X115570000Y-137160000D02*
G01*
X113030000Y-139700000D01*
X113030000Y-137160000D01*
X110490000Y-137160000D01*
X110490000Y-135255000D01*
X113665000Y-135255000D01*
X115570000Y-137160000D01*
G37*
X113665000Y-135255000D02*
X110490000Y-135255000D01*
X110490000Y-132080000D02*
X107950000Y-132080000D01*
X109220000Y-130810000D02*
X107950000Y-132080000D01*
X118110000Y-135255000D02*
X113665000Y-135255000D01*
X112395000Y-133985000D01*
X118110000Y-133985000D01*
X118110000Y-135255000D01*
G36*
X118110000Y-135255000D02*
G01*
X113665000Y-135255000D01*
X112395000Y-133985000D01*
X118110000Y-133985000D01*
X118110000Y-135255000D01*
G37*
X110490000Y-132080000D02*
X109220000Y-130810000D01*
X110490000Y-129540000D01*
X110490000Y-132080000D01*
G36*
X110490000Y-132080000D02*
G01*
X109220000Y-130810000D01*
X110490000Y-129540000D01*
X110490000Y-132080000D01*
G37*
X107315000Y-140335000D02*
X118745000Y-140335000D01*
X107315000Y-128905000D02*
X107315000Y-140335000D01*
X118745000Y-140335000D02*
X107315000Y-128905000D01*
X110490000Y-129540000D02*
X113030000Y-129540000D01*
X113030000Y-132080000D01*
X110490000Y-132080000D01*
X110490000Y-129540000D01*
G36*
X110490000Y-129540000D02*
G01*
X113030000Y-129540000D01*
X113030000Y-132080000D01*
X110490000Y-132080000D01*
X110490000Y-129540000D01*
G37*
X118110000Y-134620000D02*
X113030000Y-129540000D01*
X118110000Y-129540000D01*
X118110000Y-134620000D01*
G36*
X118110000Y-134620000D02*
G01*
X113030000Y-129540000D01*
X118110000Y-129540000D01*
X118110000Y-134620000D01*
G37*
X85090000Y-130810000D02*
X87630000Y-130810000D01*
X87630000Y-140970000D01*
X85090000Y-140970000D01*
X85090000Y-130810000D01*
X123190000Y-130810000D02*
X125730000Y-130810000D01*
X125730000Y-140970000D01*
X123190000Y-140970000D01*
X123190000Y-130810000D01*
X138430000Y-125730000D02*
X140970000Y-125730000D01*
X140970000Y-130810000D01*
X138430000Y-130810000D01*
X138430000Y-125730000D01*
X90170000Y-140970000D02*
X92710000Y-140970000D01*
X92710000Y-143510000D01*
X90170000Y-143510000D01*
X90170000Y-140970000D01*
X100330000Y-130810000D02*
X102870000Y-130810000D01*
X102870000Y-140970000D01*
X100330000Y-140970000D01*
X100330000Y-130810000D01*
X87630000Y-140970000D02*
X90170000Y-140970000D01*
X90170000Y-143510000D01*
X87630000Y-143510000D01*
X87630000Y-140970000D01*
X133350000Y-125730000D02*
X135890000Y-125730000D01*
X135890000Y-130810000D01*
X133350000Y-130810000D01*
X133350000Y-125730000D01*
X120650000Y-130810000D02*
X123190000Y-130810000D01*
X123190000Y-140970000D01*
X120650000Y-140970000D01*
X120650000Y-130810000D01*
X135890000Y-125730000D02*
X138430000Y-125730000D01*
X138430000Y-130810000D01*
X135890000Y-130810000D01*
X135890000Y-125730000D01*
X85090000Y-120650000D02*
X87630000Y-120650000D01*
X87630000Y-130810000D01*
X85090000Y-130810000D01*
X85090000Y-120650000D01*
X125730000Y-130810000D02*
X128270000Y-130810000D01*
X128270000Y-140970000D01*
X125730000Y-140970000D01*
X125730000Y-130810000D01*
X130810000Y-125730000D02*
X133350000Y-125730000D01*
X133350000Y-130810000D01*
X130810000Y-130810000D01*
X130810000Y-125730000D01*
X123190000Y-125730000D02*
X125730000Y-125730000D01*
X125730000Y-130810000D01*
X123190000Y-130810000D01*
X123190000Y-125730000D01*
X100330000Y-125730000D02*
X102870000Y-125730000D01*
X102870000Y-130810000D01*
X100330000Y-130810000D01*
X100330000Y-125730000D01*
X135890000Y-130810000D02*
X138430000Y-130810000D01*
X138430000Y-140970000D01*
X135890000Y-140970000D01*
X135890000Y-130810000D01*
X90170000Y-130810000D02*
X92710000Y-130810000D01*
X92710000Y-140970000D01*
X90170000Y-140970000D01*
X90170000Y-130810000D01*
X138430000Y-130810000D02*
X140970000Y-130810000D01*
X140970000Y-140970000D01*
X138430000Y-140970000D01*
X138430000Y-130810000D01*
X120650000Y-120650000D02*
X123190000Y-120650000D01*
X123190000Y-130810000D01*
X120650000Y-130810000D01*
X120650000Y-120650000D01*
X92710000Y-125730000D02*
X95250000Y-125730000D01*
X95250000Y-130810000D01*
X92710000Y-130810000D01*
X92710000Y-125730000D01*
X140970000Y-130810000D02*
X143510000Y-130810000D01*
X143510000Y-140970000D01*
X140970000Y-140970000D01*
X140970000Y-130810000D01*
X125730000Y-120650000D02*
X128270000Y-120650000D01*
X128270000Y-130810000D01*
X125730000Y-130810000D01*
X125730000Y-120650000D01*
X123190000Y-140970000D02*
X125730000Y-140970000D01*
X125730000Y-143510000D01*
X123190000Y-143510000D01*
X123190000Y-140970000D01*
X87630000Y-125730000D02*
X90170000Y-125730000D01*
X90170000Y-130810000D01*
X87630000Y-130810000D01*
X87630000Y-125730000D01*
X140970000Y-140970000D02*
X143510000Y-140970000D01*
X143510000Y-143510000D01*
X140970000Y-143510000D01*
X140970000Y-140970000D01*
X140970000Y-125730000D02*
X143510000Y-125730000D01*
X143510000Y-130810000D01*
X140970000Y-130810000D01*
X140970000Y-125730000D01*
X97790000Y-140970000D02*
X100330000Y-140970000D01*
X100330000Y-143510000D01*
X97790000Y-143510000D01*
X97790000Y-140970000D01*
X90170000Y-125730000D02*
X92710000Y-125730000D01*
X92710000Y-130810000D01*
X90170000Y-130810000D01*
X90170000Y-125730000D01*
X143510000Y-140970000D02*
X146050000Y-140970000D01*
X146050000Y-143510000D01*
X143510000Y-143510000D01*
X143510000Y-140970000D01*
X102870000Y-120650000D02*
X105410000Y-120650000D01*
X105410000Y-130810000D01*
X102870000Y-130810000D01*
X102870000Y-120650000D01*
X143510000Y-130810000D02*
X146050000Y-130810000D01*
X146050000Y-140970000D01*
X143510000Y-140970000D01*
X143510000Y-130810000D01*
X95250000Y-125730000D02*
X97790000Y-125730000D01*
X97790000Y-130810000D01*
X95250000Y-130810000D01*
X95250000Y-125730000D01*
X143510000Y-120650000D02*
X146050000Y-120650000D01*
X146050000Y-130810000D01*
X143510000Y-130810000D01*
X143510000Y-120650000D01*
X97790000Y-130810000D02*
X100330000Y-130810000D01*
X100330000Y-140970000D01*
X97790000Y-140970000D01*
X97790000Y-130810000D01*
X102870000Y-140970000D02*
X105410000Y-140970000D01*
X105410000Y-143510000D01*
X102870000Y-143510000D01*
X102870000Y-140970000D01*
X133350000Y-130810000D02*
X135890000Y-130810000D01*
X135890000Y-140970000D01*
X133350000Y-140970000D01*
X133350000Y-130810000D01*
X125730000Y-140970000D02*
X128270000Y-140970000D01*
X128270000Y-143510000D01*
X125730000Y-143510000D01*
X125730000Y-140970000D01*
X128270000Y-140970000D02*
X130810000Y-140970000D01*
X130810000Y-143510000D01*
X128270000Y-143510000D01*
X128270000Y-140970000D01*
X128270000Y-125730000D02*
X130810000Y-125730000D01*
X130810000Y-130810000D01*
X128270000Y-130810000D01*
X128270000Y-125730000D01*
X133350000Y-140970000D02*
X135890000Y-140970000D01*
X135890000Y-143510000D01*
X133350000Y-143510000D01*
X133350000Y-140970000D01*
X100330000Y-140970000D02*
X102870000Y-140970000D01*
X102870000Y-143510000D01*
X100330000Y-143510000D01*
X100330000Y-140970000D01*
X128270000Y-130810000D02*
X130810000Y-130810000D01*
X130810000Y-140970000D01*
X128270000Y-140970000D01*
X128270000Y-130810000D01*
X95250000Y-140970000D02*
X97790000Y-140970000D01*
X97790000Y-143510000D01*
X95250000Y-143510000D01*
X95250000Y-140970000D01*
X138430000Y-140970000D02*
X140970000Y-140970000D01*
X140970000Y-143510000D01*
X138430000Y-143510000D01*
X138430000Y-140970000D01*
X120650000Y-140970000D02*
X123190000Y-140970000D01*
X123190000Y-143510000D01*
X120650000Y-143510000D01*
X120650000Y-140970000D01*
X95250000Y-130810000D02*
X97790000Y-130810000D01*
X97790000Y-140970000D01*
X95250000Y-140970000D01*
X95250000Y-130810000D01*
X92710000Y-140970000D02*
X95250000Y-140970000D01*
X95250000Y-143510000D01*
X92710000Y-143510000D01*
X92710000Y-140970000D01*
X92710000Y-130810000D02*
X95250000Y-130810000D01*
X95250000Y-140970000D01*
X92710000Y-140970000D01*
X92710000Y-130810000D01*
X97790000Y-125730000D02*
X100330000Y-125730000D01*
X100330000Y-130810000D01*
X97790000Y-130810000D01*
X97790000Y-125730000D01*
X135890000Y-140970000D02*
X138430000Y-140970000D01*
X138430000Y-143510000D01*
X135890000Y-143510000D01*
X135890000Y-140970000D01*
X87630000Y-130810000D02*
X90170000Y-130810000D01*
X90170000Y-140970000D01*
X87630000Y-140970000D01*
X87630000Y-130810000D01*
X130810000Y-140970000D02*
X133350000Y-140970000D01*
X133350000Y-143510000D01*
X130810000Y-143510000D01*
X130810000Y-140970000D01*
X85090000Y-140970000D02*
X87630000Y-140970000D01*
X87630000Y-143510000D01*
X85090000Y-143510000D01*
X85090000Y-140970000D01*
X130810000Y-130810000D02*
X133350000Y-130810000D01*
X133350000Y-140970000D01*
X130810000Y-140970000D01*
X130810000Y-130810000D01*
X102870000Y-130810000D02*
X105410000Y-130810000D01*
X105410000Y-140970000D01*
X102870000Y-140970000D01*
X102870000Y-130810000D01*
D11*
X136690823Y-139727231D02*
X137960823Y-139727231D01*
X137960823Y-139727231D02*
X137960823Y-138965326D01*
X137960823Y-138965326D02*
X137900347Y-138774850D01*
X137900347Y-138774850D02*
X137839871Y-138679612D01*
X137839871Y-138679612D02*
X137718919Y-138584374D01*
X137718919Y-138584374D02*
X137537490Y-138584374D01*
X137537490Y-138584374D02*
X137416538Y-138679612D01*
X137416538Y-138679612D02*
X137356061Y-138774850D01*
X137356061Y-138774850D02*
X137295585Y-138965326D01*
X137295585Y-138965326D02*
X137295585Y-139727231D01*
X136811776Y-136584374D02*
X136751300Y-136679612D01*
X136751300Y-136679612D02*
X136690823Y-136965326D01*
X136690823Y-136965326D02*
X136690823Y-137155802D01*
X136690823Y-137155802D02*
X136751300Y-137441517D01*
X136751300Y-137441517D02*
X136872252Y-137631993D01*
X136872252Y-137631993D02*
X136993204Y-137727231D01*
X136993204Y-137727231D02*
X137235109Y-137822469D01*
X137235109Y-137822469D02*
X137416538Y-137822469D01*
X137416538Y-137822469D02*
X137658442Y-137727231D01*
X137658442Y-137727231D02*
X137779395Y-137631993D01*
X137779395Y-137631993D02*
X137900347Y-137441517D01*
X137900347Y-137441517D02*
X137960823Y-137155802D01*
X137960823Y-137155802D02*
X137960823Y-136965326D01*
X137960823Y-136965326D02*
X137900347Y-136679612D01*
X137900347Y-136679612D02*
X137839871Y-136584374D01*
X136690823Y-134679612D02*
X136690823Y-135822469D01*
X136690823Y-135251041D02*
X137960823Y-135251041D01*
X137960823Y-135251041D02*
X137779395Y-135441517D01*
X137779395Y-135441517D02*
X137658442Y-135631993D01*
X137658442Y-135631993D02*
X137597966Y-135822469D01*
X101130823Y-139727231D02*
X102400823Y-139727231D01*
X102400823Y-139727231D02*
X102400823Y-138965326D01*
X102400823Y-138965326D02*
X102340347Y-138774850D01*
X102340347Y-138774850D02*
X102279871Y-138679612D01*
X102279871Y-138679612D02*
X102158919Y-138584374D01*
X102158919Y-138584374D02*
X101977490Y-138584374D01*
X101977490Y-138584374D02*
X101856538Y-138679612D01*
X101856538Y-138679612D02*
X101796061Y-138774850D01*
X101796061Y-138774850D02*
X101735585Y-138965326D01*
X101735585Y-138965326D02*
X101735585Y-139727231D01*
X101251776Y-136584374D02*
X101191300Y-136679612D01*
X101191300Y-136679612D02*
X101130823Y-136965326D01*
X101130823Y-136965326D02*
X101130823Y-137155802D01*
X101130823Y-137155802D02*
X101191300Y-137441517D01*
X101191300Y-137441517D02*
X101312252Y-137631993D01*
X101312252Y-137631993D02*
X101433204Y-137727231D01*
X101433204Y-137727231D02*
X101675109Y-137822469D01*
X101675109Y-137822469D02*
X101856538Y-137822469D01*
X101856538Y-137822469D02*
X102098442Y-137727231D01*
X102098442Y-137727231D02*
X102219395Y-137631993D01*
X102219395Y-137631993D02*
X102340347Y-137441517D01*
X102340347Y-137441517D02*
X102400823Y-137155802D01*
X102400823Y-137155802D02*
X102400823Y-136965326D01*
X102400823Y-136965326D02*
X102340347Y-136679612D01*
X102340347Y-136679612D02*
X102279871Y-136584374D01*
X102400823Y-135917707D02*
X102400823Y-134679612D01*
X102400823Y-134679612D02*
X101917014Y-135346279D01*
X101917014Y-135346279D02*
X101917014Y-135060564D01*
X101917014Y-135060564D02*
X101856538Y-134870088D01*
X101856538Y-134870088D02*
X101796061Y-134774850D01*
X101796061Y-134774850D02*
X101675109Y-134679612D01*
X101675109Y-134679612D02*
X101372728Y-134679612D01*
X101372728Y-134679612D02*
X101251776Y-134774850D01*
X101251776Y-134774850D02*
X101191300Y-134870088D01*
X101191300Y-134870088D02*
X101130823Y-135060564D01*
X101130823Y-135060564D02*
X101130823Y-135631993D01*
X101130823Y-135631993D02*
X101191300Y-135822469D01*
X101191300Y-135822469D02*
X101251776Y-135917707D01*
X87160823Y-138774850D02*
X87160823Y-139727231D01*
X87160823Y-139727231D02*
X86556061Y-139822469D01*
X86556061Y-139822469D02*
X86616538Y-139727231D01*
X86616538Y-139727231D02*
X86677014Y-139536755D01*
X86677014Y-139536755D02*
X86677014Y-139060564D01*
X86677014Y-139060564D02*
X86616538Y-138870088D01*
X86616538Y-138870088D02*
X86556061Y-138774850D01*
X86556061Y-138774850D02*
X86435109Y-138679612D01*
X86435109Y-138679612D02*
X86132728Y-138679612D01*
X86132728Y-138679612D02*
X86011776Y-138774850D01*
X86011776Y-138774850D02*
X85951300Y-138870088D01*
X85951300Y-138870088D02*
X85890823Y-139060564D01*
X85890823Y-139060564D02*
X85890823Y-139536755D01*
X85890823Y-139536755D02*
X85951300Y-139727231D01*
X85951300Y-139727231D02*
X86011776Y-139822469D01*
X87160823Y-138108183D02*
X85890823Y-137441517D01*
X85890823Y-137441517D02*
X87160823Y-136774850D01*
X141770823Y-139727231D02*
X143040823Y-139727231D01*
X143040823Y-139727231D02*
X143040823Y-138965326D01*
X143040823Y-138965326D02*
X142980347Y-138774850D01*
X142980347Y-138774850D02*
X142919871Y-138679612D01*
X142919871Y-138679612D02*
X142798919Y-138584374D01*
X142798919Y-138584374D02*
X142617490Y-138584374D01*
X142617490Y-138584374D02*
X142496538Y-138679612D01*
X142496538Y-138679612D02*
X142436061Y-138774850D01*
X142436061Y-138774850D02*
X142375585Y-138965326D01*
X142375585Y-138965326D02*
X142375585Y-139727231D01*
X142436061Y-137060564D02*
X142375585Y-136774850D01*
X142375585Y-136774850D02*
X142315109Y-136679612D01*
X142315109Y-136679612D02*
X142194157Y-136584374D01*
X142194157Y-136584374D02*
X142012728Y-136584374D01*
X142012728Y-136584374D02*
X141891776Y-136679612D01*
X141891776Y-136679612D02*
X141831300Y-136774850D01*
X141831300Y-136774850D02*
X141770823Y-136965326D01*
X141770823Y-136965326D02*
X141770823Y-137727231D01*
X141770823Y-137727231D02*
X143040823Y-137727231D01*
X143040823Y-137727231D02*
X143040823Y-137060564D01*
X143040823Y-137060564D02*
X142980347Y-136870088D01*
X142980347Y-136870088D02*
X142919871Y-136774850D01*
X142919871Y-136774850D02*
X142798919Y-136679612D01*
X142798919Y-136679612D02*
X142677966Y-136679612D01*
X142677966Y-136679612D02*
X142557014Y-136774850D01*
X142557014Y-136774850D02*
X142496538Y-136870088D01*
X142496538Y-136870088D02*
X142436061Y-137060564D01*
X142436061Y-137060564D02*
X142436061Y-137727231D01*
X141770823Y-134679612D02*
X141770823Y-135822469D01*
X141770823Y-135251041D02*
X143040823Y-135251041D01*
X143040823Y-135251041D02*
X142859395Y-135441517D01*
X142859395Y-135441517D02*
X142738442Y-135631993D01*
X142738442Y-135631993D02*
X142677966Y-135822469D01*
X142617490Y-132965326D02*
X141770823Y-132965326D01*
X143101300Y-133441517D02*
X142194157Y-133917707D01*
X142194157Y-133917707D02*
X142194157Y-132679612D01*
X96111300Y-139822469D02*
X96050823Y-139536755D01*
X96050823Y-139536755D02*
X96050823Y-139060564D01*
X96050823Y-139060564D02*
X96111300Y-138870088D01*
X96111300Y-138870088D02*
X96171776Y-138774850D01*
X96171776Y-138774850D02*
X96292728Y-138679612D01*
X96292728Y-138679612D02*
X96413680Y-138679612D01*
X96413680Y-138679612D02*
X96534633Y-138774850D01*
X96534633Y-138774850D02*
X96595109Y-138870088D01*
X96595109Y-138870088D02*
X96655585Y-139060564D01*
X96655585Y-139060564D02*
X96716061Y-139441517D01*
X96716061Y-139441517D02*
X96776538Y-139631993D01*
X96776538Y-139631993D02*
X96837014Y-139727231D01*
X96837014Y-139727231D02*
X96957966Y-139822469D01*
X96957966Y-139822469D02*
X97078919Y-139822469D01*
X97078919Y-139822469D02*
X97199871Y-139727231D01*
X97199871Y-139727231D02*
X97260347Y-139631993D01*
X97260347Y-139631993D02*
X97320823Y-139441517D01*
X97320823Y-139441517D02*
X97320823Y-138965326D01*
X97320823Y-138965326D02*
X97260347Y-138679612D01*
X97320823Y-138012945D02*
X96050823Y-137536755D01*
X96050823Y-137536755D02*
X96957966Y-137155802D01*
X96957966Y-137155802D02*
X96050823Y-136774850D01*
X96050823Y-136774850D02*
X97320823Y-136298660D01*
X97320823Y-135155803D02*
X97320823Y-134774850D01*
X97320823Y-134774850D02*
X97260347Y-134584374D01*
X97260347Y-134584374D02*
X97139395Y-134393898D01*
X97139395Y-134393898D02*
X96897490Y-134298660D01*
X96897490Y-134298660D02*
X96474157Y-134298660D01*
X96474157Y-134298660D02*
X96232252Y-134393898D01*
X96232252Y-134393898D02*
X96111300Y-134584374D01*
X96111300Y-134584374D02*
X96050823Y-134774850D01*
X96050823Y-134774850D02*
X96050823Y-135155803D01*
X96050823Y-135155803D02*
X96111300Y-135346279D01*
X96111300Y-135346279D02*
X96232252Y-135536755D01*
X96232252Y-135536755D02*
X96474157Y-135631993D01*
X96474157Y-135631993D02*
X96897490Y-135631993D01*
X96897490Y-135631993D02*
X97139395Y-135536755D01*
X97139395Y-135536755D02*
X97260347Y-135346279D01*
X97260347Y-135346279D02*
X97320823Y-135155803D01*
X122720823Y-139917707D02*
X122720823Y-138679612D01*
X122720823Y-138679612D02*
X122237014Y-139346279D01*
X122237014Y-139346279D02*
X122237014Y-139060564D01*
X122237014Y-139060564D02*
X122176538Y-138870088D01*
X122176538Y-138870088D02*
X122116061Y-138774850D01*
X122116061Y-138774850D02*
X121995109Y-138679612D01*
X121995109Y-138679612D02*
X121692728Y-138679612D01*
X121692728Y-138679612D02*
X121571776Y-138774850D01*
X121571776Y-138774850D02*
X121511300Y-138870088D01*
X121511300Y-138870088D02*
X121450823Y-139060564D01*
X121450823Y-139060564D02*
X121450823Y-139631993D01*
X121450823Y-139631993D02*
X121511300Y-139822469D01*
X121511300Y-139822469D02*
X121571776Y-139917707D01*
X121571776Y-137822469D02*
X121511300Y-137727231D01*
X121511300Y-137727231D02*
X121450823Y-137822469D01*
X121450823Y-137822469D02*
X121511300Y-137917707D01*
X121511300Y-137917707D02*
X121571776Y-137822469D01*
X121571776Y-137822469D02*
X121450823Y-137822469D01*
X122720823Y-137060564D02*
X122720823Y-135822469D01*
X122720823Y-135822469D02*
X122237014Y-136489136D01*
X122237014Y-136489136D02*
X122237014Y-136203421D01*
X122237014Y-136203421D02*
X122176538Y-136012945D01*
X122176538Y-136012945D02*
X122116061Y-135917707D01*
X122116061Y-135917707D02*
X121995109Y-135822469D01*
X121995109Y-135822469D02*
X121692728Y-135822469D01*
X121692728Y-135822469D02*
X121571776Y-135917707D01*
X121571776Y-135917707D02*
X121511300Y-136012945D01*
X121511300Y-136012945D02*
X121450823Y-136203421D01*
X121450823Y-136203421D02*
X121450823Y-136774850D01*
X121450823Y-136774850D02*
X121511300Y-136965326D01*
X121511300Y-136965326D02*
X121571776Y-137060564D01*
X122720823Y-135251040D02*
X121450823Y-134584374D01*
X121450823Y-134584374D02*
X122720823Y-133917707D01*
X93510823Y-139727231D02*
X94780823Y-139727231D01*
X94780823Y-139727231D02*
X94780823Y-138965326D01*
X94780823Y-138965326D02*
X94720347Y-138774850D01*
X94720347Y-138774850D02*
X94659871Y-138679612D01*
X94659871Y-138679612D02*
X94538919Y-138584374D01*
X94538919Y-138584374D02*
X94357490Y-138584374D01*
X94357490Y-138584374D02*
X94236538Y-138679612D01*
X94236538Y-138679612D02*
X94176061Y-138774850D01*
X94176061Y-138774850D02*
X94115585Y-138965326D01*
X94115585Y-138965326D02*
X94115585Y-139727231D01*
X93873680Y-137822469D02*
X93873680Y-136870088D01*
X93510823Y-138012945D02*
X94780823Y-137346279D01*
X94780823Y-137346279D02*
X93510823Y-136679612D01*
X94357490Y-135155802D02*
X93510823Y-135155802D01*
X94841300Y-135631993D02*
X93934157Y-136108183D01*
X93934157Y-136108183D02*
X93934157Y-134870088D01*
X132880823Y-139727231D02*
X131852728Y-139727231D01*
X131852728Y-139727231D02*
X131731776Y-139631993D01*
X131731776Y-139631993D02*
X131671300Y-139536755D01*
X131671300Y-139536755D02*
X131610823Y-139346279D01*
X131610823Y-139346279D02*
X131610823Y-138965326D01*
X131610823Y-138965326D02*
X131671300Y-138774850D01*
X131671300Y-138774850D02*
X131731776Y-138679612D01*
X131731776Y-138679612D02*
X131852728Y-138584374D01*
X131852728Y-138584374D02*
X132880823Y-138584374D01*
X132094633Y-137631993D02*
X132094633Y-136108184D01*
X132880823Y-135441517D02*
X132880823Y-134298660D01*
X131610823Y-134870089D02*
X132880823Y-134870089D01*
X132880823Y-133822469D02*
X131610823Y-132489136D01*
X132880823Y-132489136D02*
X131610823Y-133822469D01*
X139230823Y-139727231D02*
X140500823Y-139727231D01*
X140500823Y-139727231D02*
X140500823Y-138965326D01*
X140500823Y-138965326D02*
X140440347Y-138774850D01*
X140440347Y-138774850D02*
X140379871Y-138679612D01*
X140379871Y-138679612D02*
X140258919Y-138584374D01*
X140258919Y-138584374D02*
X140077490Y-138584374D01*
X140077490Y-138584374D02*
X139956538Y-138679612D01*
X139956538Y-138679612D02*
X139896061Y-138774850D01*
X139896061Y-138774850D02*
X139835585Y-138965326D01*
X139835585Y-138965326D02*
X139835585Y-139727231D01*
X139351776Y-136584374D02*
X139291300Y-136679612D01*
X139291300Y-136679612D02*
X139230823Y-136965326D01*
X139230823Y-136965326D02*
X139230823Y-137155802D01*
X139230823Y-137155802D02*
X139291300Y-137441517D01*
X139291300Y-137441517D02*
X139412252Y-137631993D01*
X139412252Y-137631993D02*
X139533204Y-137727231D01*
X139533204Y-137727231D02*
X139775109Y-137822469D01*
X139775109Y-137822469D02*
X139956538Y-137822469D01*
X139956538Y-137822469D02*
X140198442Y-137727231D01*
X140198442Y-137727231D02*
X140319395Y-137631993D01*
X140319395Y-137631993D02*
X140440347Y-137441517D01*
X140440347Y-137441517D02*
X140500823Y-137155802D01*
X140500823Y-137155802D02*
X140500823Y-136965326D01*
X140500823Y-136965326D02*
X140440347Y-136679612D01*
X140440347Y-136679612D02*
X140379871Y-136584374D01*
X140500823Y-135346279D02*
X140500823Y-135155802D01*
X140500823Y-135155802D02*
X140440347Y-134965326D01*
X140440347Y-134965326D02*
X140379871Y-134870088D01*
X140379871Y-134870088D02*
X140258919Y-134774850D01*
X140258919Y-134774850D02*
X140017014Y-134679612D01*
X140017014Y-134679612D02*
X139714633Y-134679612D01*
X139714633Y-134679612D02*
X139472728Y-134774850D01*
X139472728Y-134774850D02*
X139351776Y-134870088D01*
X139351776Y-134870088D02*
X139291300Y-134965326D01*
X139291300Y-134965326D02*
X139230823Y-135155802D01*
X139230823Y-135155802D02*
X139230823Y-135346279D01*
X139230823Y-135346279D02*
X139291300Y-135536755D01*
X139291300Y-135536755D02*
X139351776Y-135631993D01*
X139351776Y-135631993D02*
X139472728Y-135727231D01*
X139472728Y-135727231D02*
X139714633Y-135822469D01*
X139714633Y-135822469D02*
X140017014Y-135822469D01*
X140017014Y-135822469D02*
X140258919Y-135727231D01*
X140258919Y-135727231D02*
X140379871Y-135631993D01*
X140379871Y-135631993D02*
X140440347Y-135536755D01*
X140440347Y-135536755D02*
X140500823Y-135346279D01*
X145520347Y-138679612D02*
X145580823Y-138870088D01*
X145580823Y-138870088D02*
X145580823Y-139155802D01*
X145580823Y-139155802D02*
X145520347Y-139441517D01*
X145520347Y-139441517D02*
X145399395Y-139631993D01*
X145399395Y-139631993D02*
X145278442Y-139727231D01*
X145278442Y-139727231D02*
X145036538Y-139822469D01*
X145036538Y-139822469D02*
X144855109Y-139822469D01*
X144855109Y-139822469D02*
X144613204Y-139727231D01*
X144613204Y-139727231D02*
X144492252Y-139631993D01*
X144492252Y-139631993D02*
X144371300Y-139441517D01*
X144371300Y-139441517D02*
X144310823Y-139155802D01*
X144310823Y-139155802D02*
X144310823Y-138965326D01*
X144310823Y-138965326D02*
X144371300Y-138679612D01*
X144371300Y-138679612D02*
X144431776Y-138584374D01*
X144431776Y-138584374D02*
X144855109Y-138584374D01*
X144855109Y-138584374D02*
X144855109Y-138965326D01*
X144310823Y-137727231D02*
X145580823Y-137727231D01*
X145580823Y-137727231D02*
X144310823Y-136584374D01*
X144310823Y-136584374D02*
X145580823Y-136584374D01*
X144310823Y-135631993D02*
X145580823Y-135631993D01*
X145580823Y-135631993D02*
X145580823Y-135155803D01*
X145580823Y-135155803D02*
X145520347Y-134870088D01*
X145520347Y-134870088D02*
X145399395Y-134679612D01*
X145399395Y-134679612D02*
X145278442Y-134584374D01*
X145278442Y-134584374D02*
X145036538Y-134489136D01*
X145036538Y-134489136D02*
X144855109Y-134489136D01*
X144855109Y-134489136D02*
X144613204Y-134584374D01*
X144613204Y-134584374D02*
X144492252Y-134679612D01*
X144492252Y-134679612D02*
X144371300Y-134870088D01*
X144371300Y-134870088D02*
X144310823Y-135155803D01*
X144310823Y-135155803D02*
X144310823Y-135631993D01*
X90970823Y-139727231D02*
X92240823Y-139727231D01*
X92240823Y-139727231D02*
X92240823Y-138965326D01*
X92240823Y-138965326D02*
X92180347Y-138774850D01*
X92180347Y-138774850D02*
X92119871Y-138679612D01*
X92119871Y-138679612D02*
X91998919Y-138584374D01*
X91998919Y-138584374D02*
X91817490Y-138584374D01*
X91817490Y-138584374D02*
X91696538Y-138679612D01*
X91696538Y-138679612D02*
X91636061Y-138774850D01*
X91636061Y-138774850D02*
X91575585Y-138965326D01*
X91575585Y-138965326D02*
X91575585Y-139727231D01*
X91333680Y-137822469D02*
X91333680Y-136870088D01*
X90970823Y-138012945D02*
X92240823Y-137346279D01*
X92240823Y-137346279D02*
X90970823Y-136679612D01*
X92240823Y-135155802D02*
X92240823Y-135536755D01*
X92240823Y-135536755D02*
X92180347Y-135727231D01*
X92180347Y-135727231D02*
X92119871Y-135822469D01*
X92119871Y-135822469D02*
X91938442Y-136012945D01*
X91938442Y-136012945D02*
X91696538Y-136108183D01*
X91696538Y-136108183D02*
X91212728Y-136108183D01*
X91212728Y-136108183D02*
X91091776Y-136012945D01*
X91091776Y-136012945D02*
X91031300Y-135917707D01*
X91031300Y-135917707D02*
X90970823Y-135727231D01*
X90970823Y-135727231D02*
X90970823Y-135346278D01*
X90970823Y-135346278D02*
X91031300Y-135155802D01*
X91031300Y-135155802D02*
X91091776Y-135060564D01*
X91091776Y-135060564D02*
X91212728Y-134965326D01*
X91212728Y-134965326D02*
X91515109Y-134965326D01*
X91515109Y-134965326D02*
X91636061Y-135060564D01*
X91636061Y-135060564D02*
X91696538Y-135155802D01*
X91696538Y-135155802D02*
X91757014Y-135346278D01*
X91757014Y-135346278D02*
X91757014Y-135727231D01*
X91757014Y-135727231D02*
X91696538Y-135917707D01*
X91696538Y-135917707D02*
X91636061Y-136012945D01*
X91636061Y-136012945D02*
X91515109Y-136108183D01*
X104880347Y-138679612D02*
X104940823Y-138870088D01*
X104940823Y-138870088D02*
X104940823Y-139155802D01*
X104940823Y-139155802D02*
X104880347Y-139441517D01*
X104880347Y-139441517D02*
X104759395Y-139631993D01*
X104759395Y-139631993D02*
X104638442Y-139727231D01*
X104638442Y-139727231D02*
X104396538Y-139822469D01*
X104396538Y-139822469D02*
X104215109Y-139822469D01*
X104215109Y-139822469D02*
X103973204Y-139727231D01*
X103973204Y-139727231D02*
X103852252Y-139631993D01*
X103852252Y-139631993D02*
X103731300Y-139441517D01*
X103731300Y-139441517D02*
X103670823Y-139155802D01*
X103670823Y-139155802D02*
X103670823Y-138965326D01*
X103670823Y-138965326D02*
X103731300Y-138679612D01*
X103731300Y-138679612D02*
X103791776Y-138584374D01*
X103791776Y-138584374D02*
X104215109Y-138584374D01*
X104215109Y-138584374D02*
X104215109Y-138965326D01*
X103670823Y-137727231D02*
X104940823Y-137727231D01*
X104940823Y-137727231D02*
X103670823Y-136584374D01*
X103670823Y-136584374D02*
X104940823Y-136584374D01*
X103670823Y-135631993D02*
X104940823Y-135631993D01*
X104940823Y-135631993D02*
X104940823Y-135155803D01*
X104940823Y-135155803D02*
X104880347Y-134870088D01*
X104880347Y-134870088D02*
X104759395Y-134679612D01*
X104759395Y-134679612D02*
X104638442Y-134584374D01*
X104638442Y-134584374D02*
X104396538Y-134489136D01*
X104396538Y-134489136D02*
X104215109Y-134489136D01*
X104215109Y-134489136D02*
X103973204Y-134584374D01*
X103973204Y-134584374D02*
X103852252Y-134679612D01*
X103852252Y-134679612D02*
X103731300Y-134870088D01*
X103731300Y-134870088D02*
X103670823Y-135155803D01*
X103670823Y-135155803D02*
X103670823Y-135631993D01*
X129131300Y-139822469D02*
X129070823Y-139536755D01*
X129070823Y-139536755D02*
X129070823Y-139060564D01*
X129070823Y-139060564D02*
X129131300Y-138870088D01*
X129131300Y-138870088D02*
X129191776Y-138774850D01*
X129191776Y-138774850D02*
X129312728Y-138679612D01*
X129312728Y-138679612D02*
X129433680Y-138679612D01*
X129433680Y-138679612D02*
X129554633Y-138774850D01*
X129554633Y-138774850D02*
X129615109Y-138870088D01*
X129615109Y-138870088D02*
X129675585Y-139060564D01*
X129675585Y-139060564D02*
X129736061Y-139441517D01*
X129736061Y-139441517D02*
X129796538Y-139631993D01*
X129796538Y-139631993D02*
X129857014Y-139727231D01*
X129857014Y-139727231D02*
X129977966Y-139822469D01*
X129977966Y-139822469D02*
X130098919Y-139822469D01*
X130098919Y-139822469D02*
X130219871Y-139727231D01*
X130219871Y-139727231D02*
X130280347Y-139631993D01*
X130280347Y-139631993D02*
X130340823Y-139441517D01*
X130340823Y-139441517D02*
X130340823Y-138965326D01*
X130340823Y-138965326D02*
X130280347Y-138679612D01*
X130340823Y-138012945D02*
X129070823Y-137536755D01*
X129070823Y-137536755D02*
X129977966Y-137155802D01*
X129977966Y-137155802D02*
X129070823Y-136774850D01*
X129070823Y-136774850D02*
X130340823Y-136298660D01*
X129070823Y-135536755D02*
X130340823Y-135536755D01*
X130340823Y-135536755D02*
X130340823Y-135060565D01*
X130340823Y-135060565D02*
X130280347Y-134774850D01*
X130280347Y-134774850D02*
X130159395Y-134584374D01*
X130159395Y-134584374D02*
X130038442Y-134489136D01*
X130038442Y-134489136D02*
X129796538Y-134393898D01*
X129796538Y-134393898D02*
X129615109Y-134393898D01*
X129615109Y-134393898D02*
X129373204Y-134489136D01*
X129373204Y-134489136D02*
X129252252Y-134584374D01*
X129252252Y-134584374D02*
X129131300Y-134774850D01*
X129131300Y-134774850D02*
X129070823Y-135060565D01*
X129070823Y-135060565D02*
X129070823Y-135536755D01*
X129070823Y-133536755D02*
X130340823Y-133536755D01*
X130340823Y-132203422D02*
X130340823Y-131822469D01*
X130340823Y-131822469D02*
X130280347Y-131631993D01*
X130280347Y-131631993D02*
X130159395Y-131441517D01*
X130159395Y-131441517D02*
X129917490Y-131346279D01*
X129917490Y-131346279D02*
X129494157Y-131346279D01*
X129494157Y-131346279D02*
X129252252Y-131441517D01*
X129252252Y-131441517D02*
X129131300Y-131631993D01*
X129131300Y-131631993D02*
X129070823Y-131822469D01*
X129070823Y-131822469D02*
X129070823Y-132203422D01*
X129070823Y-132203422D02*
X129131300Y-132393898D01*
X129131300Y-132393898D02*
X129252252Y-132584374D01*
X129252252Y-132584374D02*
X129494157Y-132679612D01*
X129494157Y-132679612D02*
X129917490Y-132679612D01*
X129917490Y-132679612D02*
X130159395Y-132584374D01*
X130159395Y-132584374D02*
X130280347Y-132393898D01*
X130280347Y-132393898D02*
X130340823Y-132203422D01*
X98590823Y-139727231D02*
X99860823Y-139727231D01*
X99860823Y-139727231D02*
X99860823Y-138965326D01*
X99860823Y-138965326D02*
X99800347Y-138774850D01*
X99800347Y-138774850D02*
X99739871Y-138679612D01*
X99739871Y-138679612D02*
X99618919Y-138584374D01*
X99618919Y-138584374D02*
X99437490Y-138584374D01*
X99437490Y-138584374D02*
X99316538Y-138679612D01*
X99316538Y-138679612D02*
X99256061Y-138774850D01*
X99256061Y-138774850D02*
X99195585Y-138965326D01*
X99195585Y-138965326D02*
X99195585Y-139727231D01*
X99256061Y-137060564D02*
X99195585Y-136774850D01*
X99195585Y-136774850D02*
X99135109Y-136679612D01*
X99135109Y-136679612D02*
X99014157Y-136584374D01*
X99014157Y-136584374D02*
X98832728Y-136584374D01*
X98832728Y-136584374D02*
X98711776Y-136679612D01*
X98711776Y-136679612D02*
X98651300Y-136774850D01*
X98651300Y-136774850D02*
X98590823Y-136965326D01*
X98590823Y-136965326D02*
X98590823Y-137727231D01*
X98590823Y-137727231D02*
X99860823Y-137727231D01*
X99860823Y-137727231D02*
X99860823Y-137060564D01*
X99860823Y-137060564D02*
X99800347Y-136870088D01*
X99800347Y-136870088D02*
X99739871Y-136774850D01*
X99739871Y-136774850D02*
X99618919Y-136679612D01*
X99618919Y-136679612D02*
X99497966Y-136679612D01*
X99497966Y-136679612D02*
X99377014Y-136774850D01*
X99377014Y-136774850D02*
X99316538Y-136870088D01*
X99316538Y-136870088D02*
X99256061Y-137060564D01*
X99256061Y-137060564D02*
X99256061Y-137727231D01*
X99739871Y-135822469D02*
X99800347Y-135727231D01*
X99800347Y-135727231D02*
X99860823Y-135536755D01*
X99860823Y-135536755D02*
X99860823Y-135060564D01*
X99860823Y-135060564D02*
X99800347Y-134870088D01*
X99800347Y-134870088D02*
X99739871Y-134774850D01*
X99739871Y-134774850D02*
X99618919Y-134679612D01*
X99618919Y-134679612D02*
X99497966Y-134679612D01*
X99497966Y-134679612D02*
X99316538Y-134774850D01*
X99316538Y-134774850D02*
X98590823Y-135917707D01*
X98590823Y-135917707D02*
X98590823Y-134679612D01*
X127740347Y-138679612D02*
X127800823Y-138870088D01*
X127800823Y-138870088D02*
X127800823Y-139155802D01*
X127800823Y-139155802D02*
X127740347Y-139441517D01*
X127740347Y-139441517D02*
X127619395Y-139631993D01*
X127619395Y-139631993D02*
X127498442Y-139727231D01*
X127498442Y-139727231D02*
X127256538Y-139822469D01*
X127256538Y-139822469D02*
X127075109Y-139822469D01*
X127075109Y-139822469D02*
X126833204Y-139727231D01*
X126833204Y-139727231D02*
X126712252Y-139631993D01*
X126712252Y-139631993D02*
X126591300Y-139441517D01*
X126591300Y-139441517D02*
X126530823Y-139155802D01*
X126530823Y-139155802D02*
X126530823Y-138965326D01*
X126530823Y-138965326D02*
X126591300Y-138679612D01*
X126591300Y-138679612D02*
X126651776Y-138584374D01*
X126651776Y-138584374D02*
X127075109Y-138584374D01*
X127075109Y-138584374D02*
X127075109Y-138965326D01*
X126530823Y-137727231D02*
X127800823Y-137727231D01*
X127800823Y-137727231D02*
X126530823Y-136584374D01*
X126530823Y-136584374D02*
X127800823Y-136584374D01*
X126530823Y-135631993D02*
X127800823Y-135631993D01*
X127800823Y-135631993D02*
X127800823Y-135155803D01*
X127800823Y-135155803D02*
X127740347Y-134870088D01*
X127740347Y-134870088D02*
X127619395Y-134679612D01*
X127619395Y-134679612D02*
X127498442Y-134584374D01*
X127498442Y-134584374D02*
X127256538Y-134489136D01*
X127256538Y-134489136D02*
X127075109Y-134489136D01*
X127075109Y-134489136D02*
X126833204Y-134584374D01*
X126833204Y-134584374D02*
X126712252Y-134679612D01*
X126712252Y-134679612D02*
X126591300Y-134870088D01*
X126591300Y-134870088D02*
X126530823Y-135155803D01*
X126530823Y-135155803D02*
X126530823Y-135631993D01*
X135420823Y-139727231D02*
X134392728Y-139727231D01*
X134392728Y-139727231D02*
X134271776Y-139631993D01*
X134271776Y-139631993D02*
X134211300Y-139536755D01*
X134211300Y-139536755D02*
X134150823Y-139346279D01*
X134150823Y-139346279D02*
X134150823Y-138965326D01*
X134150823Y-138965326D02*
X134211300Y-138774850D01*
X134211300Y-138774850D02*
X134271776Y-138679612D01*
X134271776Y-138679612D02*
X134392728Y-138584374D01*
X134392728Y-138584374D02*
X135420823Y-138584374D01*
X134634633Y-137631993D02*
X134634633Y-136108184D01*
X134150823Y-134012946D02*
X134755585Y-134679613D01*
X134150823Y-135155803D02*
X135420823Y-135155803D01*
X135420823Y-135155803D02*
X135420823Y-134393898D01*
X135420823Y-134393898D02*
X135360347Y-134203422D01*
X135360347Y-134203422D02*
X135299871Y-134108184D01*
X135299871Y-134108184D02*
X135178919Y-134012946D01*
X135178919Y-134012946D02*
X134997490Y-134012946D01*
X134997490Y-134012946D02*
X134876538Y-134108184D01*
X134876538Y-134108184D02*
X134816061Y-134203422D01*
X134816061Y-134203422D02*
X134755585Y-134393898D01*
X134755585Y-134393898D02*
X134755585Y-135155803D01*
X135420823Y-133346279D02*
X134150823Y-132012946D01*
X135420823Y-132012946D02*
X134150823Y-133346279D01*
X124051300Y-139841517D02*
X123990823Y-139570088D01*
X123990823Y-139570088D02*
X123990823Y-139117707D01*
X123990823Y-139117707D02*
X124051300Y-138936755D01*
X124051300Y-138936755D02*
X124111776Y-138846279D01*
X124111776Y-138846279D02*
X124232728Y-138755802D01*
X124232728Y-138755802D02*
X124353680Y-138755802D01*
X124353680Y-138755802D02*
X124474633Y-138846279D01*
X124474633Y-138846279D02*
X124535109Y-138936755D01*
X124535109Y-138936755D02*
X124595585Y-139117707D01*
X124595585Y-139117707D02*
X124656061Y-139479612D01*
X124656061Y-139479612D02*
X124716538Y-139660564D01*
X124716538Y-139660564D02*
X124777014Y-139751041D01*
X124777014Y-139751041D02*
X124897966Y-139841517D01*
X124897966Y-139841517D02*
X125018919Y-139841517D01*
X125018919Y-139841517D02*
X125139871Y-139751041D01*
X125139871Y-139751041D02*
X125200347Y-139660564D01*
X125200347Y-139660564D02*
X125260823Y-139479612D01*
X125260823Y-139479612D02*
X125260823Y-139027231D01*
X125260823Y-139027231D02*
X125200347Y-138755802D01*
X125260823Y-138122469D02*
X123990823Y-137670088D01*
X123990823Y-137670088D02*
X124897966Y-137308183D01*
X124897966Y-137308183D02*
X123990823Y-136946278D01*
X123990823Y-136946278D02*
X125260823Y-136493898D01*
X124111776Y-134684373D02*
X124051300Y-134774849D01*
X124051300Y-134774849D02*
X123990823Y-135046278D01*
X123990823Y-135046278D02*
X123990823Y-135227230D01*
X123990823Y-135227230D02*
X124051300Y-135498659D01*
X124051300Y-135498659D02*
X124172252Y-135679611D01*
X124172252Y-135679611D02*
X124293204Y-135770088D01*
X124293204Y-135770088D02*
X124535109Y-135860564D01*
X124535109Y-135860564D02*
X124716538Y-135860564D01*
X124716538Y-135860564D02*
X124958442Y-135770088D01*
X124958442Y-135770088D02*
X125079395Y-135679611D01*
X125079395Y-135679611D02*
X125200347Y-135498659D01*
X125200347Y-135498659D02*
X125260823Y-135227230D01*
X125260823Y-135227230D02*
X125260823Y-135046278D01*
X125260823Y-135046278D02*
X125200347Y-134774849D01*
X125200347Y-134774849D02*
X125139871Y-134684373D01*
X123990823Y-132965326D02*
X123990823Y-133870088D01*
X123990823Y-133870088D02*
X125260823Y-133870088D01*
X123990823Y-132331993D02*
X125260823Y-132331993D01*
X123990823Y-131246278D02*
X124716538Y-132060564D01*
X125260823Y-131246278D02*
X124535109Y-132331993D01*
X88430823Y-139727231D02*
X89700823Y-139727231D01*
X89700823Y-139727231D02*
X89700823Y-138965326D01*
X89700823Y-138965326D02*
X89640347Y-138774850D01*
X89640347Y-138774850D02*
X89579871Y-138679612D01*
X89579871Y-138679612D02*
X89458919Y-138584374D01*
X89458919Y-138584374D02*
X89277490Y-138584374D01*
X89277490Y-138584374D02*
X89156538Y-138679612D01*
X89156538Y-138679612D02*
X89096061Y-138774850D01*
X89096061Y-138774850D02*
X89035585Y-138965326D01*
X89035585Y-138965326D02*
X89035585Y-139727231D01*
X88793680Y-137822469D02*
X88793680Y-136870088D01*
X88430823Y-138012945D02*
X89700823Y-137346279D01*
X89700823Y-137346279D02*
X88430823Y-136679612D01*
X89700823Y-136203421D02*
X89700823Y-134870088D01*
X89700823Y-134870088D02*
X88430823Y-135727231D01*
M02*
